<?xml version="1.0" standalone="no"?>
<!DOCTYPE svg PUBLIC "-//W3C//DTD SVG 1.1//EN" "http://www.w3.org/Graphics/SVG/1.1/DTD/svg11.dtd" >
<svg xmlns="http://www.w3.org/2000/svg" xmlns:xlink="http://www.w3.org/1999/xlink" version="1.1">
<metadata></metadata>
<defs>
<font id="centumathin" horiz-adv-x="1121" >
<font-face units-per-em="2048" ascent="1536" descent="-512" />
<missing-glyph horiz-adv-x="490" />
<glyph unicode="&#xfb01;" horiz-adv-x="1067" d="M66 1027v55h188v158q0 162 85 251.5t238 89.5q144 0 268 -57l-8 -52q-65 28 -122 42q-53 13 -137 13q-126 0 -198 -76t-72 -211v-158h286v-55h-286v-1027h-54v1027h-188zM830 0v1082h54v-1082h-54z" />
<glyph horiz-adv-x="0" />
<glyph horiz-adv-x="682" />
<glyph horiz-adv-x="0" />
<glyph unicode="&#x9;" horiz-adv-x="0" />
<glyph unicode="&#xd;" horiz-adv-x="490" />
<glyph unicode=" "  horiz-adv-x="490" />
<glyph unicode="&#x09;" horiz-adv-x="490" />
<glyph unicode="&#xa0;" horiz-adv-x="490" />
<glyph unicode="!" horiz-adv-x="397" d="M147 0v134h95v-134h-95zM167 478v978h54v-978h-54z" />
<glyph unicode="&#x22;" horiz-adv-x="610" d="M156 1018l45 268v170h55v-167l-50 -271h-50zM337 1018l46 268v170h54v-167l-50 -271h-50z" />
<glyph unicode="#" horiz-adv-x="1265" d="M65 410v52h281l95 524h-300v54h310l75 416h56l-76 -416h365l76 416h56l-76 -416h254v-54h-264l-96 -524h285v-52h-294l-75 -410h-56l75 410h-364l-74 -410h-56l74 410h-271zM402 462h363l96 524h-365z" />
<glyph unicode="$" d="M42 120l40 37q113 -73 221.5 -98t264.5 -25q78 0 154.5 18.5t143 54.5t108 97.5t41.5 139.5q0 62 -24 112t-58.5 82t-95 62.5t-109.5 48t-127 42.5q-25 8 -38 12q-189 61 -254 92q-156 74 -202 190q-22 56 -23 126q-1 71 23.5 130.5t66.5 100.5t99 70.5t119.5 45 t130.5 19.5v186h56v-185q129 -1 245 -43t188 -105l-24 -48q-64 61 -181 101.5t-240 40.5q-83 0 -157 -17.5t-136.5 -53t-99 -97.5t-36.5 -143q0 -79 27.5 -135t98.5 -97.5t122 -61t167 -55.5q19 -6 28 -9q53 -17 82.5 -26.5t78.5 -27t77 -31t67.5 -34.5t62.5 -41t49.5 -47.5 t40 -57t23 -66.5t9.5 -78q0 -71 -28.5 -131.5t-75.5 -102t-110 -71t-130.5 -44t-137.5 -16.5v-189h-55v189q-337 5 -492 139z" />
<glyph unicode="%" horiz-adv-x="1527" d="M114 1099v77q0 127 76 213q76 88 196 88q119 0 195 -88q76 -86 76 -213v-77q0 -127 -76 -213q-75 -86 -193 -86q-121 0 -198 86q-76 86 -76 213zM169 1099q0 -99 56 -172q57 -72 163 -72q102 0 158 72q56 73 56 172v77q0 100 -57 173q-55 73 -159 73q-103 0 -160 -74 t-57 -172v-77zM417 162l711 1138l45 -31l-711 -1138zM870 279v78q0 125 75 212q76 88 196 88q119 0 196 -87q76 -86 76 -213v-78q0 -127 -76 -213q-75 -87 -194 -87q-121 0 -197 87q-76 86 -76 213zM925 279q0 -100 56 -173q55 -72 162 -72q103 0 159 72q56 73 56 173v78 q0 105 -56 175q-55 70 -161 70q-103 0 -160 -70q-56 -71 -56 -175v-78z" />
<glyph unicode="&#x26;" horiz-adv-x="1247" d="M115 387q0 138 78.5 230.5t221.5 127.5q-117 35 -192.5 128t-75.5 210q0 93 42.5 169.5t112.5 124.5t156.5 74t179.5 26q100 0 203.5 -28t168.5 -81l-40 -42q-56 46 -150.5 72.5t-181.5 26.5q-83 0 -160 -22.5t-139.5 -64t-100 -107t-37.5 -144.5q0 -92 53.5 -165 t138 -111.5t179.5 -38.5v-57q-85 0 -156 -19t-127.5 -58t-88 -104t-31.5 -151q0 -109 68.5 -191t171.5 -121t220 -40q95 3 193.5 23.5t147.5 55.5v662l178 8v-62h-123v-637q-66 -48 -179.5 -75t-216.5 -27q-95 0 -186 28t-164.5 79t-118.5 129.5t-45 171.5z" />
<glyph unicode="'" horiz-adv-x="406" d="M156 1018l45 267v171h55v-169l-50 -269h-50z" />
<glyph unicode="(" horiz-adv-x="607" d="M148 566v20q0 338 120 632q121 294 291 398h6l16 -36q-153 -101 -266 -388q-113 -288 -113 -602v-26q0 -315 113 -603q113 -287 266 -388l-16 -36h-6q-172 105 -292 391q-119 286 -119 638z" />
<glyph unicode=")" horiz-adv-x="623" d="M28 -427q152 101 265 388q114 287 114 603v26q0 316 -114 602q-113 287 -265 388l16 36h6q169 -103 290 -398q121 -293 121 -632v-20q0 -353 -120 -638q-120 -286 -291 -391h-6z" />
<glyph unicode="*" horiz-adv-x="856" d="M90 799l18 54l302 -93l-7 324l56 -2l1 -325l292 105l20 -53l-300 -97l189 -257l-47 -33l-182 262l-178 -265l-45 32l184 264z" />
<glyph unicode="+" horiz-adv-x="1151" d="M73 649v53h462v504h55v-504h481v-53h-481v-503h-55v503h-462z" />
<glyph unicode="," horiz-adv-x="383" d="M114 -258l67 246v171h54v-167l-70 -250h-51z" />
<glyph unicode="-" horiz-adv-x="807" d="M99 599v54h590v-54h-590z" />
<glyph unicode="." horiz-adv-x="439" d="M173 0v130h86v-130h-86z" />
<glyph unicode="/" horiz-adv-x="782" d="M42 -125l608 1581h59l-608 -1581h-59z" />
<glyph unicode="0" d="M117 514v428q0 249 116 392q117 143 327 143q209 0 326 -143q118 -142 118 -392v-428q0 -250 -116 -393q-115 -142 -326 -142q-209 0 -327 142t-118 393zM171 516q0 -216 101 -350q102 -133 290 -133q187 0 287 132q101 134 101 351v426q0 219 -101 350t-289 131 t-289 -131q-100 -130 -100 -350v-426z" />
<glyph unicode="1" horiz-adv-x="742" d="M77 1336v58l422 72v-1466h-54v1400z" />
<glyph unicode="2" d="M151 1316q68 89 168 125t240 36q184 0 287 -100.5t103 -290.5q0 -122 -79 -247q-78 -126 -221 -293l-417 -487l2 -5h793v-54h-871v54l497 572q134 155 187 257q54 103 54 203q0 163 -86.5 251t-248.5 88q-288 0 -381 -167z" />
<glyph unicode="3" d="M151 80l26 53q133 -104 360 -104q174 2 277.5 94t103.5 259q0 73 -22 130t-60 95t-92.5 63t-116.5 35.5t-134 10.5h-82v53h82q169 0 281 85t112 232q0 159 -95.5 249t-262.5 90q-88 0 -174 -25.5t-147 -78.5l-26 46q58 52 155 81t192 29q198 0 305 -104.5t107 -290.5 q0 -118 -74.5 -211.5t-193.5 -125.5q146 -27 222.5 -121.5t76.5 -237.5q0 -193 -114 -300t-320 -107q-246 0 -386 101z" />
<glyph unicode="4" horiz-adv-x="1087" d="M78 397v30l695 1029h59l-670 -1006h622l14 320h41v-770h-55v397h-706z" />
<glyph unicode="5" d="M178 126l35 45q139 -138 377 -138q190 0 282.5 106.5t92.5 322.5q0 108 -37.5 197.5t-117 147t-189.5 57.5q-113 0 -204 -22t-181 -76l-39 25l78 665h690v-53h-641l-70 -570q65 36 161 59.5t205 23.5q187 0 293.5 -129t106.5 -323q0 -90 -13.5 -162.5t-45 -133.5 t-80.5 -102t-122.5 -64t-168.5 -23q-265 0 -412 147z" />
<glyph unicode="6" d="M162 493v503q0 225 121 352q122 129 320 129q116 0 194 -21q76 -19 151 -53l-19 -55q-95 44 -161 59q-65 16 -165 16q-175 0 -277 -113q-103 -113 -110 -312v-238q68 42 173 80q108 40 223 40q214 0 321 -120q107 -119 107 -292q0 -206 -123 -348q-121 -141 -313 -141 q-196 0 -319 133q-123 134 -123 381zM216 494q7 -229 112 -346q105 -115 272 -115q168 0 273 122q105 123 105 313q0 139 -86 249t-280 110q-127 0 -238 -46q-108 -45 -158 -72v-215z" />
<glyph unicode="7" d="M87 1402v54h930v-54q-220 -247 -365 -561q-146 -316 -146 -710v-131h-54v131q0 361 134 683q134 321 366 588h-865z" />
<glyph unicode="8" d="M98 389q0 201 245 394q-96 45 -150 125t-54 188q0 174 121.5 277.5t310.5 103.5q180 0 296.5 -102t116.5 -279q0 -67 -40 -144t-86 -129.5t-90 -87.5q120 -47 189 -129t69 -217q0 -95 -35.5 -173.5t-97.5 -129.5t-144 -79t-176 -28q-98 0 -183 26.5t-150.5 76t-103.5 129 t-38 178.5zM152 384q0 -84 35 -152t94 -111t134 -65.5t158 -22.5q104 0 193 39.5t147 121t58 190.5q0 158 -117 243q-65 48 -138 69t-166.5 35t-156.5 34q-56 -40 -107.5 -94.5t-92.5 -133.5t-41 -153zM193 1101q0 -63 18 -112.5t53.5 -82.5t76 -57t97 -40t104.5 -25.5 t110 -20.5q44 -7 65 -11h1q82 67 147 162t65 187q0 141 -105.5 231.5t-253.5 90.5q-75 0 -141 -20t-118.5 -59t-84.5 -101.5t-34 -141.5z" />
<glyph unicode="9" d="M95 988q0 205 122 347q123 142 314 142q196 0 319 -133q123 -134 123 -381v-503q0 -225 -121 -353q-122 -128 -320 -128q-116 0 -195 21q-72 18 -186 67l19 55q124 -56 197 -74q67 -15 165 -15q175 0 277 113q103 113 110 312v244q-65 -40 -174 -81q-109 -39 -222 -39 q-204 0 -317 125q-111 125 -111 281zM157 988q0 -139 91 -246q92 -107 275 -107q127 0 238 46q108 45 158 72v209q-7 229 -113 345q-104 116 -271 116q-168 0 -273 -123q-105 -122 -105 -312z" />
<glyph unicode=":" horiz-adv-x="364" d="M146 0v130h86v-130h-86zM146 949v130h86v-130h-86z" />
<glyph unicode=";" horiz-adv-x="364" d="M115 -258l67 246v171h54v-167l-70 -250h-51zM153 952v130h86v-130h-86z" />
<glyph unicode="&#x3c;" horiz-adv-x="1053" d="M82 515v50l837 378v-58l-661 -308l-119 -37v-6l119 -36l661 -303v-59z" />
<glyph unicode="=" horiz-adv-x="1142" d="M147 436v54h834v-54h-834zM147 843v54h834v-54h-834z" />
<glyph unicode="&#x3e;" horiz-adv-x="1053" d="M114 137v59l660 307l118 36v6l-118 37l-660 304v58l836 -378v-50z" />
<glyph unicode="?" horiz-adv-x="893" d="M97 1343q62 57 151.5 95.5t199.5 38.5q160 0 256.5 -97.5t96.5 -269.5q0 -135 -63 -239t-190 -221q-61 -53 -79 -104t-20 -146h-54q1 77 8.5 117.5t33.5 81.5t83 93q48 46 75 74t60.5 70.5t50.5 79.5t29 88t12 108q0 147 -78.5 229.5t-220.5 82.5q-202 0 -317 -126z M391 0h82v106h-82v-106z" />
<glyph unicode="@" horiz-adv-x="1902" d="M129 478q18 426 255 680q238 253 617 253q401 0 592 -234t174 -654q-10 -218 -114 -382q-103 -162 -296 -162q-83 0 -135 61t-61 169q-110 -230 -332 -230q-135 0 -203 119q-68 118 -48 318q22 249 144 401q121 151 293 151q83 0 135 -28q53 -27 115 -82l-49 -565 q-11 -152 36 -206q48 -53 108 -53q158 0 248 134q92 135 102 355q20 396 -154 613q-174 218 -559 218q-335 0 -565 -240q-229 -239 -248 -636q-20 -383 174 -629q195 -247 552 -247q89 0 177 22q93 23 153 58l24 -46q-60 -40 -164 -64q-100 -25 -194 -25q-380 0 -588 250 q-208 249 -189 681zM632 416q-19 -165 31 -275q51 -108 164 -108q109 0 194 66q85 67 144 246l42 486q-71 82 -195 82q-142 0 -248 -127q-107 -126 -132 -370z" />
<glyph unicode="A" horiz-adv-x="1223" d="M34 0l544 1456h66l545 -1456h-59l-163 435h-711l-163 -435h-59zM276 489h671l-305 815l-28 85h-6l-27 -85z" />
<glyph unicode="B" horiz-adv-x="1230" d="M200 0v1456h383q229 0 352.5 -94.5t123.5 -278.5q0 -123 -60 -208.5t-168 -114.5l-1 -6q128 -16 217 -119q88 -100 88 -234q0 -191 -124 -296q-123 -105 -326 -105h-485zM254 54h431q184 0 290 91t106 254q0 143 -107 232q-106 88 -289 88h-431v-665zM254 773h368 q382 6 382 314q0 156 -106.5 235.5t-314.5 79.5h-329v-629z" />
<glyph unicode="C" horiz-adv-x="1269" d="M134 619v218q0 143 34.5 258.5t103.5 201.5t180.5 133t258.5 47q118 0 248.5 -27t199.5 -75l-24 -42q-78 45 -196.5 71t-227.5 26q-247 0 -385 -150.5t-138 -440.5v-220q0 -124 33 -230t97 -186.5t164.5 -127t228.5 -48.5q256 0 422 92l27 -42q-65 -48 -187.5 -73 t-261.5 -25q-140 0 -251.5 49t-182 136t-107.5 203q-36 113 -36 245v7z" />
<glyph unicode="D" horiz-adv-x="1370" d="M200 0v1456h433q271 0 435 -163q166 -162 166 -476v-178q0 -313 -156 -476q-154 -163 -445 -163h-433zM254 54h379q267 0 406.5 151t139.5 434v181v7q0 279 -154 426q-155 149 -392 149h-379v-1348z" />
<glyph unicode="E" horiz-adv-x="1129" d="M200 0v1456h819v-54h-765v-616h700v-54h-700v-678h765v-54h-819z" />
<glyph unicode="F" horiz-adv-x="1127" d="M200 0v1456h872v-54h-818v-630h716v-56h-716v-716h-54z" />
<glyph unicode="G" horiz-adv-x="1429" d="M168 620v238v24q0 154 60 284q65 141 192.5 226t291.5 85q259 0 469 -166l-33 -41q-85 69 -187 113t-249 44q-150 0 -264.5 -78.5t-171.5 -206.5q-54 -121 -54 -262v-20v-240v-19q0 -109 31 -207q34 -106 98 -186.5t162 -127.5t216 -47q315 0 443 188v414h-445v55h499 v-494q-74 -107 -207.5 -162t-289.5 -55q-171 0 -302 88t-197 233q-62 136 -62 296v24z" />
<glyph unicode="H" horiz-adv-x="1438" d="M200 0v1456h54v-707h930v707h54v-1456h-54v695h-930v-695h-54z" />
<glyph unicode="I" horiz-adv-x="534" d="M240 0v1456h54v-1456h-54z" />
<glyph unicode="J" horiz-adv-x="1122" d="M133 79l19 59q63 -53 164 -79t203 -26q158 0 256 110.5t98 278.5v1034h54v-1034q0 -194 -112 -318.5t-296 -124.5q-112 0 -218.5 25.5t-167.5 74.5z" />
<glyph unicode="K" horiz-adv-x="1227" d="M200 0v1456h54v-689l198 7l598 682h62v-8l-617 -708l694 -731v-9h-63l-689 721l-183 7v-728h-54z" />
<glyph unicode="L" horiz-adv-x="1130" d="M200 0v1456h55v-1402h787v-54h-842z" />
<glyph unicode="M" horiz-adv-x="1756" d="M200 0v1456h72l608 -1080h8l607 1080h61v-1456h-54v1345l-6 1l-588 -1046h-47l-601 1053l-6 -1v-1352h-54z" />
<glyph unicode="N" horiz-adv-x="1449" d="M200 0v1456h55l934 -1353l6 2v1351h54v-1456h-54l-934 1356l-6 -2v-1354h-55z" />
<glyph unicode="O" horiz-adv-x="1364" d="M133 619v218q0 359 156 499q156 141 392 141q243 0 397 -140q153 -140 153 -500v-218q0 -344 -146 -493q-145 -147 -402 -147t-404 147q-146 149 -146 493zM188 619q0 -314 128 -451q129 -135 367 -139q239 5 366 138q128 134 128 452v220q0 317 -129 450 q-129 134 -367 137q-238 -3 -365 -139q-128 -136 -128 -448v-220z" />
<glyph unicode="P" horiz-adv-x="1230" d="M200 0v1456h455q227 0 348 -114q122 -113 122 -301q0 -190 -122 -303t-348 -113h-401v-625h-54zM254 679h401q208 0 311 103q105 104 105 257q0 158 -104 260q-103 103 -312 103h-401v-723z" />
<glyph unicode="Q" horiz-adv-x="1364" d="M133 619v218q0 295 145 467q146 173 403 173q256 0 403 -173q147 -172 147 -467v-218q0 -305 -154 -477l246 -240l-39 -35l-246 236q-142 -124 -355 -124q-257 0 -404 172q-146 173 -146 468zM188 619q0 -270 128 -428q129 -158 367 -158q239 0 366 157q128 158 128 429 v220q0 269 -129 426q-129 158 -367 158q-237 0 -365 -158t-128 -426v-220z" />
<glyph unicode="R" horiz-adv-x="1257" d="M196 0v1456h455q212 0 341 -108.5t129 -306.5q0 -150 -80.5 -254.5t-231.5 -143.5l297 -626v-17h-58l-297 631q-43 -4 -104 -4h-397v-627h-54zM250 679h399q198 0 308 94t110 266q0 173 -113 268.5t-303 95.5h-401v-724z" />
<glyph unicode="S" horiz-adv-x="1223" d="M87 119l40 37q113 -73 221.5 -98t264.5 -25q78 0 154.5 18.5t143 54.5t108 97.5t41.5 139.5q0 62 -24 112t-58.5 82t-95 62.5t-109.5 48t-127 42.5q-25 8 -38 12q-189 61 -254 92q-156 74 -202 190q-22 56 -23 126v5q0 73 27 133q28 62 74.5 104t109.5 70.5t131.5 41.5 t140.5 13q133 0 252 -42t193 -106l-25 -48q-64 61 -180.5 101.5t-239.5 40.5q-83 0 -157 -17.5t-136.5 -53t-99 -97.5t-36.5 -143q0 -46 12 -85t29 -67.5t50.5 -55t62 -43.5t78.5 -36.5t85 -31t96 -30.5q19 -6 29 -9q53 -17 83 -26.5t78.5 -27t77 -31t67.5 -34.5t62 -41 t49.5 -47.5t40 -57t23 -66.5t9.5 -78q0 -91 -45 -163.5t-119 -115.5t-160.5 -65t-177.5 -22q-365 0 -526 140z" />
<glyph unicode="T" horiz-adv-x="1224" d="M57 1402v54h1110v-54h-510v-1402h-54v1402h-546z" />
<glyph unicode="U" horiz-adv-x="1365" d="M185 489v967h54v-967q0 -207 125 -332q125 -124 319 -124q193 0 317 124q126 124 126 332v967h54v-967q0 -240 -139 -375t-358 -135t-359 135q-139 136 -139 375z" />
<glyph unicode="V" horiz-adv-x="1223" d="M35 1456h59l489 -1314l26 -79h6l26 79l489 1314h59l-544 -1456h-66z" />
<glyph unicode="W" horiz-adv-x="1855" d="M61 1456h60l302 -1116l63 -242h6l407 1056h60l404 -1055h6l65 241l300 1116h59l-392 -1456h-59l-411 1082h-6l-412 -1082h-59z" />
<glyph unicode="X" horiz-adv-x="1223" d="M53 0l524 743l-504 713h68l469 -671l471 671h67l-503 -713l524 -743h-67l-492 701l-491 -701h-66z" />
<glyph unicode="Y" horiz-adv-x="1223" d="M36 1456h66l481 -809l26 -50l27 50l483 809h66l-547 -903v-553h-55v553z" />
<glyph unicode="Z" horiz-adv-x="1224" d="M94 0v44l929 1359h-889v53h964v-38l-930 -1364h962v-54h-1036z" />
<glyph unicode="[" horiz-adv-x="439" d="M181 -312v1976h283v-54h-229v-1868h229v-54h-283z" />
<glyph unicode="\" horiz-adv-x="774" d="M57 1456h58l608 -1581h-58z" />
<glyph unicode="]" horiz-adv-x="439" d="M-8 -258h228v1868h-228v54h283v-1976h-283v54z" />
<glyph unicode="^" horiz-adv-x="849" d="M91 729l299 727h52l299 -727h-61l-222 543l-40 114h-6l-43 -114l-219 -543h-59z" />
<glyph unicode="_" horiz-adv-x="845" d="M-1 0h846v-54h-846v54z" />
<glyph unicode="`" horiz-adv-x="537" d="M103 1513l2 5h89l220 -261l-2 -5h-75z" />
<glyph unicode="a" horiz-adv-x="1081" d="M91 284q0 79 41.5 142.5t108.5 101t144 57t156 19.5q97 0 174 -13t106 -25l29 -13v209q0 135 -86.5 210.5t-243.5 75.5q-203 0 -354 -83l-21 53q170 84 375 84q109 0 193 -36t136 -114.5t55 -191.5l-1 -760h-42l-9 178q-76 -97 -189.5 -148t-248.5 -51q-147 0 -235 81 t-88 224zM145 280q0 -114 75.5 -181t193.5 -67q280 0 436 202v269q-10 6 -31 14t-100 22t-175 14q-67 0 -134.5 -17t-128 -48.5t-98.5 -86t-38 -121.5z" />
<glyph unicode="b" d="M172 0v1560h54v-648q54 78 146 134t219 56q191 0 299 -152q109 -151 109 -408v-21q0 -251 -108 -396q-108 -146 -298 -146q-122 0 -218 49t-153 131l-5 -159h-45zM226 208q59 -74 143 -125q85 -50 225 -50q172 0 260 132q89 133 89 356v21q0 226 -90 365 q-90 141 -261 141q-141 0 -235 -77q-93 -78 -131 -123v-640z" />
<glyph unicode="c" horiz-adv-x="1039" d="M97 520v42q0 122 26 218.5t79.5 169.5t142 112.5t207.5 39.5q91 0 188 -23t158 -63l-27 -49q-65 43 -151.5 63.5t-167.5 20.5q-191 -3 -296 -129t-105 -360v-42v-10q0 -72 14 -138q15 -71 47.5 -134t79.5 -109.5t114.5 -74t147.5 -27.5q112 0 195 18.5t122 47.5l30 -45 q-107 -69 -347 -69q-115 0 -203.5 41.5t-143 116t-82.5 171.5t-28 212z" />
<glyph unicode="d" d="M122 521v21q0 256 108 408t300 152q255 0 366 -223v681h54v-811q0 -4 1 -4v-441q-1 -3 -1 -5v-299h-52l-2 167q-55 -89 -149.5 -138.5t-218.5 -49.5q-191 0 -299 146q-107 146 -107 396zM178 521q0 -225 88 -356q88 -132 261 -132q141 0 234 66q94 66 135 146v533 q-41 116 -127 192q-85 78 -240 78q-172 0 -262 -141q-89 -140 -89 -365v-21z" />
<glyph unicode="e" horiz-adv-x="1039" d="M97 500v64q0 235 130 386q131 152 329 152q180 0 287 -119t107 -323v-83h-799v-13v-64q0 -199 112 -333q113 -134 288 -134q186 0 348 84l32 -47q-162 -91 -380 -91q-191 0 -323 148q-131 149 -131 373zM159 637l3 -6h734v33q0 168 -91 275q-91 109 -249 109 q-168 0 -276 -117t-121 -294z" />
<glyph unicode="f" horiz-adv-x="645" d="M66 1032v50h188v178q0 153 73 235t210 86q79 0 118 -5l-2 -49q-36 4 -115 4q-108 -5 -168 -66q-59 -62 -62 -205v-178h286v-50h-286v-1032h-54v1032h-188z" />
<glyph unicode="g" horiz-adv-x="1109" d="M118 -161q0 102 83 160.5t193 58.5q-53 9 -86.5 23.5t-49 36t-20 40.5t-4.5 48q0 53 32 86.5t119 51.5q-141 29 -202.5 117t-64.5 238v30q0 185 116 280.5t311 95.5q100 0 184 -30l292 4v-54l-223 5q83 -50 125.5 -129t47.5 -173v-30q0 -99 -31.5 -172.5t-90 -117.5 t-134 -65t-169.5 -21q-125 0 -190.5 -31t-65.5 -85q0 -68 61 -97t218 -29q278 0 385.5 -51.5t107.5 -188.5q0 -66 -38 -115t-103.5 -77t-143 -41.5t-167.5 -13.5q-78 0 -134.5 3t-116.5 11.5t-100.5 26t-74.5 44t-50 67t-16 94.5zM166 699q12 -172 102 -249.5t279 -77.5 q175 0 274.5 78.5t99.5 247.5v30q0 140 -113 234.5t-263 94.5q-171 0 -275 -85t-104 -243v-30zM174 -161q0 -110 101.5 -153t334.5 -43q172 0 284 49.5t112 142.5q0 116 -92 156t-345 40q-204 0 -299.5 -47.5t-95.5 -144.5z" />
<glyph unicode="h" d="M170 554q0 50 2 63v943h54v-703q46 115 146.5 180t237.5 65q171 0 257.5 -108.5t86.5 -335.5v-658h-55v660q0 214 -79 300q-78 88 -209 88q-172 0 -271 -105t-114 -174v-769h-54v554h-2z" />
<glyph unicode="i" horiz-adv-x="422" d="M185 0v1082h54v-1082h-54zM185 1422v138h54v-138h-54z" />
<glyph unicode="j" horiz-adv-x="445" d="M-124 -437l7 54h72q225 0 231 294v1171h54v-1171q-3 -172 -76 -260t-209 -88h-40h-39zM180 1426v134h54v-134h-54z" />
<glyph unicode="k" horiz-adv-x="969" d="M172 0v1560h54v-959l134 11l485 470h68v-8l-499 -485l536 -582v-7h-67l-512 557l-145 2v-559h-54z" />
<glyph unicode="l" horiz-adv-x="422" d="M185 0v1560h54v-1560h-54z" />
<glyph unicode="m" horiz-adv-x="1836" d="M163 0v1082h47l7 -218q106 238 363 238q280 0 346 -285q46 137 143 211.5t239 74.5q182 0 273.5 -118.5t91.5 -366.5v-617h-55v619q0 234 -84 332q-84 97 -224 97q-166 0 -255 -98q-86 -97 -112 -254q1 -19 3 -697h-55v629q-3 229 -86 324t-223 95q-165 0 -252 -96 t-112 -247v-705h-55z" />
<glyph unicode="n" d="M172 0v1082h46l7 -184q49 80 144 141q95 63 231 63q179 0 266.5 -112.5t87.5 -352.5v-637h-54v639q0 225 -81 317q-80 92 -218 92q-170 0 -271 -101q-100 -99 -104 -122v-825h-54z" />
<glyph unicode="o" d="M87 520v42q0 256 131 398q132 142 342 142q212 0 342 -144q132 -142 132 -396v-42q0 -256 -132 -398q-131 -143 -340 -143q-211 0 -343 143q-132 142 -132 398zM141 520q0 -224 114 -356q114 -131 307 -131q190 0 304 131q114 132 114 356v42q0 213 -115 349 q-116 137 -305 137q-191 0 -305 -137t-114 -349v-42z" />
<glyph unicode="p" d="M172 -416v1498h42l11 -191q55 100 148.5 155.5t217.5 55.5q191 0 299 -152q109 -151 109 -408v-21q0 -251 -108 -396q-108 -146 -298 -146q-124 0 -218 49t-149 137v-581h-54zM226 242q39 -74 134 -143q93 -66 234 -66q172 0 260 132q90 132 90 356v21q0 226 -91 365 q-90 141 -261 141q-153 0 -241 -77q-86 -77 -125 -162v-567z" />
<glyph unicode="q" d="M122 521v21q0 256 108 408t300 152q124 0 217 -55.5t149 -156.5l5 192h49v-333q0 -4 1 -4v-441q-1 -3 -1 -5v-715h-54v582q-56 -88 -150.5 -137.5t-217.5 -49.5q-191 0 -299 146q-107 146 -107 396zM178 521q0 -225 88 -356q88 -132 261 -132q137 0 231.5 62t137.5 171 v512q-41 116 -127 192q-85 78 -240 78q-172 0 -262 -141q-89 -140 -89 -365v-21z" />
<glyph unicode="r" horiz-adv-x="685" d="M172 0v1082h44l9 -180q47 70 135 135q85 62 208 62h11q33 0 76 -8l-6 -48q-40 5 -77 5q-132 0 -213 -70q-101 -87 -133 -128v-850h-54z" />
<glyph unicode="s" horiz-adv-x="1019" d="M120 83l28 48q180 -103 361 -103q77 0 149.5 25.5t124.5 81.5t52 130q0 191 -330 267q-53 12 -85 20t-75.5 22.5t-69.5 28.5t-55 36.5t-44.5 48.5t-26 62t-10.5 79q0 89 54.5 153t134.5 92t173 28q113 0 205.5 -35t147.5 -85l-19 -48q-47 48 -139.5 83.5t-194.5 35.5 q-125 0 -216.5 -57.5t-91.5 -164.5q0 -34 8.5 -62t21 -49t36 -38.5t45.5 -29.5t58.5 -24.5t65 -21t74.5 -20.5q13 -3 19 -5q368 -86 368 -317q0 -72 -32.5 -128.5t-87 -89.5t-121 -50t-139.5 -17q-125 0 -225.5 29.5t-163.5 74.5z" />
<glyph unicode="t" horiz-adv-x="576" d="M170 279v1069l55 26v-292h266v-53h-266v-750q0 -246 164 -246q43 0 106 9l10 -49q-42 -14 -113 -14q-111 0 -166.5 72.5t-55.5 227.5z" />
<glyph unicode="u" d="M168 465v617h54v-619q0 -214 79 -322t221 -108q164 0 255 80q87 77 118 108v861h55v-1082h-45l-8 174q-65 -89 -152 -142q-88 -53 -221 -53q-171 0 -263.5 121t-92.5 365z" />
<glyph unicode="v" horiz-adv-x="978" d="M43 1082h58l334 -853l51 -146h6l52 146l333 853h58l-421 -1081l1 -1h-52z" />
<glyph unicode="w" horiz-adv-x="1550" d="M83 1082h62l221 -769l56 -222l6 -1l314 780h55l312 -780l6 1l58 222l220 769h63l-315 -1082h-54l-312 794h-11l-313 -794h-54z" />
<glyph unicode="x" horiz-adv-x="978" d="M55 0l400 555l-380 527h68l346 -480l345 480h68l-380 -527l400 -555h-67l-367 508l-366 -508h-67z" />
<glyph unicode="y" horiz-adv-x="978" d="M43 1082h59l356 -886l40 -108h6l6 16l374 978h60l-481 -1262q-71 -158 -123 -207q-53 -50 -166 -50h-87l5 53h82q93 0 134 37q42 36 101 177l65 176z" />
<glyph unicode="z" horiz-adv-x="978" d="M87 0v44l717 989h-686v49h753v-43l-711 -985h770v-54h-843z" />
<glyph unicode="{" horiz-adv-x="660" d="M73 543v66q250 0 250 276v247q0 172 73 290q73 119 246 175l15 -45q-140 -45 -210 -153t-70 -267v-247q0 -123 -53 -204t-158 -105q105 -26 158 -107.5t53 -203.5v-245q0 -156 71.5 -261.5t213.5 -153.5l-20 -46q-173 56 -246 173q-73 118 -73 288v245q0 135 -62 206.5 t-188 71.5z" />
<glyph unicode="|" horiz-adv-x="406" d="M181 -270v1726h54v-1726h-54z" />
<glyph unicode="}" horiz-adv-x="660" d="M0 -395q284 97 284 415v245q0 123 53 204t158 107q-105 24 -158 105t-53 204v247q0 158 -70 266.5t-209 153.5l14 45q172 -55 245 -175q74 -119 74 -290v-247q0 -276 250 -276v-66q-126 0 -188 -72t-62 -206v-245q0 -172 -73 -288q-73 -117 -246 -173z" />
<glyph unicode="~" horiz-adv-x="1412" d="M156 474q0 129 73 214q74 86 189 86q87 0 158 -40q74 -39 165 -120q67 -62 125 -90t121 -28q86 0 144 70q59 71 59 187l61 -13q0 -121 -76 -209q-75 -88 -188 -88q-86 0 -159 38q-68 36 -162 121q-136 118 -248 118q-89 0 -146 -68t-57 -190z" />
<glyph unicode="&#xa1;" horiz-adv-x="406" d="M147 918v164h95v-164h-95zM167 -374v978h54v-978h-54z" />
<glyph unicode="&#xa2;" horiz-adv-x="1110" d="M142 524v42q0 119 25 214t76 167.5t135 113t197 44.5v216h55v-216q86 -4 172 -27t142 -59l-28 -48q-65 42 -151.5 63t-167.5 21q-195 0 -298 -124t-103 -365v-42q-1 -97 23.5 -183.5t73 -156t127.5 -110.5t179 -41q234 0 317 64l30 -45q-101 -66 -316 -70v-224h-55v225 q-109 4 -192.5 47.5t-135.5 117t-78.5 168.5t-26.5 208z" />
<glyph unicode="&#xa3;" horiz-adv-x="1150" d="M65 667v54h242l-12 319q-3 190 95 313.5t276 123.5q184 0 265 -102l-19 -64q-29 51 -100 81.5t-146 30.5q-156 0 -237.5 -107t-78.5 -276l10 -319h479v-54h-477l9 -201q0 -265 -139 -412h808l1 -54h-912v54h10q52 11 89.5 58t55 114.5t24.5 125t8 114.5l-7 201h-244z" />
<glyph unicode="&#xa4;" horiz-adv-x="1502" d="M114 13l179 182q-144 175 -144 413q0 248 154 424l-189 193l40 39l188 -192q168 162 403 162q231 0 403 -164l191 195l41 -40l-193 -196q152 -179 152 -421q0 -233 -141 -409l182 -186l-41 -40l-180 183q-82 -85 -189 -130.5t-225 -45.5q-119 0 -226 45t-189 129 l-176 -180zM204 608q0 -238 159 -407q159 -168 382 -168q221 0 380 168q160 169 160 407t-160 405q-159 168 -380 168q-223 0 -382 -168t-159 -405z" />
<glyph unicode="&#xa5;" horiz-adv-x="1207" d="M58 1456h65l452 -718l24 -51h5l24 51l451 718h66l-489 -780h424v-55h-452v-240h452v-55h-452v-326h-54v326h-450v55h450v240h-450v55h421z" />
<glyph unicode="&#xa6;" horiz-adv-x="398" d="M172 -270v752h54v-752h-54zM172 698v758h54v-758h-54z" />
<glyph unicode="&#xa7;" horiz-adv-x="1223" d="M122 555q0 108 76 179.5t211 91.5q-124 49 -183 122t-59 187q0 87 38 155.5t102.5 109.5t143.5 61.5t168 20.5q117 0 214.5 -37t161.5 -97l-40 -51q-57 59 -143.5 94.5t-192.5 35.5q-64 0 -120.5 -9.5t-108 -31.5t-88.5 -54.5t-59 -82t-22 -111.5q0 -43 12.5 -80.5 t32 -66t52 -53.5t63 -42.5t75.5 -35t78.5 -28t82.5 -24.5q196 -50 268 -81q153 -66 193 -183q17 -48 17 -108q0 -106 -82 -176q-81 -71 -222 -92q135 -52 197.5 -124t62.5 -188q0 -89 -37 -157t-101.5 -108.5t-143 -61t-168.5 -20.5q-116 0 -226 43t-193 104l41 41 q75 -53 178 -93t200 -40q77 0 145.5 16.5t125.5 49.5t90.5 91t33.5 133q0 61 -23.5 109t-59.5 79t-90.5 56t-103 40t-109.5 32h-2q-205 56 -278 88q-142 63 -185 167q-23 56 -23 130zM176 558q0 -54 16.5 -97.5t47 -74t65 -53t80.5 -39.5t84 -28t84 -23.5t72 -22.5l69 -19 q162 2 254 67q93 66 93 165q0 66 -26 116.5t-65 81t-101 56.5t-116.5 40t-131 35t-125.5 39q-148 -7 -224 -72t-76 -171z" />
<glyph unicode="&#xa8;" horiz-adv-x="906" d="M155 1338v118h137v-118h-137zM625 1338v118h136v-118h-136z" />
<glyph unicode="&#xa9;" horiz-adv-x="1666" d="M123 729q0 315 207 531t503 216q295 0 502 -216q208 -215 208 -531t-208 -533q-207 -217 -502 -217t-503 217q-207 218 -207 533zM179 729q0 -290 191 -493q192 -202 463 -202q269 0 461 202q193 202 193 493q0 289 -192 490q-192 202 -462 202q-271 0 -463 -202 q-191 -202 -191 -490zM472 667v130q0 381 344 381q69 0 147 -16t119 -45l-15 -40q-90 53 -251 53q-148 0 -221.5 -79.5t-73.5 -252.5v-131q-1 -153 72 -242t223 -92q155 0 250 53l17 -41q-39 -28 -112 -43.5t-155 -15.5q-168 0 -256 100.5t-88 280.5z" />
<glyph unicode="&#xaa;" horiz-adv-x="811" d="M104 909q0 79 49 134t119.5 76.5t152.5 18.5q56 -2 102.5 -13t64.5 -21l19 -9v137q0 81 -51.5 127t-145.5 46q-114 0 -248 -54l-17 71q128 55 269 55q128 0 201 -63q76 -66 76 -183v-374l1 -153h-67q-3 33 -8 62.5t-7 51.5q-41 -52 -118.5 -90t-157.5 -38q-108 0 -171 57 t-63 162zM188 906q0 -67 44.5 -105t115.5 -38q70 0 141.5 34t121.5 83v149q-9 5 -24.5 12.5t-64.5 19.5t-98 12q-91 0 -163.5 -43t-72.5 -124z" />
<glyph unicode="&#xab;" horiz-adv-x="905" d="M145 516v19l295 370h70l-294 -380l294 -379h-70zM432 516v19l295 370h70l-294 -380l294 -379h-70z" />
<glyph unicode="&#xac;" horiz-adv-x="1101" d="M122 700v53h793v-357h-54v304h-739z" />
<glyph unicode="&#xad;" horiz-adv-x="807" d="M99 599v54h590v-54h-590z" />
<glyph unicode="&#xae;" horiz-adv-x="1674" d="M115 729q0 315 207 531t503 216q295 0 502 -216q208 -215 208 -531t-208 -533q-207 -217 -502 -217q-296 0 -503 217q-207 218 -207 533zM170 729q0 -291 192 -493t463 -202q269 0 461 202q193 202 193 493q0 289 -192 490q-192 202 -462 202q-271 0 -463 -202 q-192 -201 -192 -490zM593 316v850h239q143 0 216 -61t73 -179q0 -74 -43 -136t-154 -92q101 -179 140 -258q46 -90 53 -108v-16h-59l-72 144q-65 130 -121 228h-217v-372h-55zM648 744h205q91 0 152 48t61 135q0 97 -53.5 140.5t-180.5 43.5h-184v-367z" />
<glyph unicode="&#xaf;" horiz-adv-x="811" d="M92 1403v53h627v-53h-627z" />
<glyph unicode="&#xb0;" horiz-adv-x="783" d="M156 1237q0 99 69 169q69 71 167 71q95 0 163 -71q69 -70 69 -169q0 -100 -69 -169q-68 -68 -163 -68q-97 0 -167 68q-69 69 -69 169zM211 1237q0 -79 51 -130q52 -51 130 -51q76 0 126 51q50 52 50 130q0 79 -50 132t-126 53q-77 0 -130 -53q-51 -53 -51 -132z" />
<glyph unicode="&#xb1;" horiz-adv-x="1077" d="M72 751v54h443v462h54v-462h419v-54h-419v-462h-54v462h-443zM240 88v54h835v-54h-835z" />
<glyph unicode="&#xb2;" horiz-adv-x="807" d="M153 659v51l265 310q8 11 32.5 43t32 42.5t23.5 35.5t21 40t10.5 37t5.5 44q0 75 -40 117t-116 42q-111 0 -189 -61l-32 48q87 69 221 69q102 0 162.5 -57.5t60.5 -157.5q0 -30 -8 -59t-26 -59t-34 -53t-43.5 -59.5t-43.5 -59.5l-218 -254l1 -3h406v-56h-491z" />
<glyph unicode="&#xb3;" horiz-adv-x="761" d="M109 711l28 52q77 -57 204 -57q94 0 149 42t55 130q0 84 -49.5 126t-143.5 42h-74v56h74q79 -2 128.5 40.5t49.5 116.5q0 79 -47.5 120.5t-130.5 41.5q-129 0 -181 -58l-24 52q33 29 90.5 45.5t114.5 16.5q112 0 178 -56.5t66 -164.5q0 -60 -35.5 -109t-93.5 -71 q70 -22 107 -72.5t37 -123.5q0 -114 -75 -171.5t-195 -57.5q-58 0 -127 16t-105 44z" />
<glyph unicode="&#xb4;" horiz-adv-x="511" d="M119 1257l220 261h78l2 -5l-231 -261h-67z" />
<glyph unicode="&#xb5;" d="M171 -416v1498h52v-642q0 -224 85 -315q86 -92 221 -92q184 0 268 93t102 263v693h54v-577h2q0 -9 -2 -67v-438h-41l-11 205q-100 -226 -363 -226q-226 0 -315 192v-587h-52z" />
<glyph unicode="&#xb6;" horiz-adv-x="946" d="M99 988q0 206 129 337q131 131 363 131h179v-1456h-54v520h-125q-234 0 -363 129q-129 131 -129 339z" />
<glyph unicode="&#xb7;" horiz-adv-x="472" d="M171 624v152h118v-152h-118z" />
<glyph unicode="&#xb8;" horiz-adv-x="490" d="M81 -386q103 0 180 36t77 105q0 64 -46 89q-43 24 -163 35l25 121h53l-11 -76q197 -15 197 -169q0 -88 -80 -139t-225 -51z" />
<glyph unicode="&#xb9;" horiz-adv-x="471" d="M79 1398v56l220 23v-812h-54v750z" />
<glyph unicode="&#xba;" horiz-adv-x="914" d="M148 1025v117q0 149 82 241q82 94 222 94t222 -94q83 -94 83 -241v-117q0 -150 -82 -242q-83 -92 -221 -92q-141 0 -224 92q-82 92 -82 242zM202 1025q0 -125 63 -203q63 -77 189 -77q120 0 185 78q65 80 65 202v117q0 121 -65 201t-187 80q-121 0 -186 -80 q-64 -79 -64 -201v-117z" />
<glyph unicode="&#xbb;" horiz-adv-x="897" d="M128 171l293 379l-293 390h70l294 -380v-19l-294 -370h-70zM418 171l293 379l-293 390h70l294 -380v-19l-294 -370h-70z" />
<glyph unicode="&#xbf;" horiz-adv-x="912" d="M104 -27q0 135 63 239t190 221q61 53 79 104t20 146h54q-1 -77 -8.5 -117.5t-33.5 -81.5t-83 -93q-48 -46 -75 -74t-60.5 -70.5t-50.5 -79.5t-29 -88t-12 -108q0 -147 78.5 -229.5t220.5 -82.5q202 0 317 126l34 -45q-62 -57 -151.5 -95.5t-199.5 -38.5 q-160 0 -256.5 97.5t-96.5 269.5zM432 977v106h82v-106h-82z" />
<glyph unicode="&#xc0;" horiz-adv-x="1223" d="M34 0l544 1456h66l545 -1456h-59l-163 435h-711l-163 -435h-59zM276 489h671l-305 815l-28 85h-6l-27 -85zM355 1865l2 5h89l220 -261l-2 -5h-75z" />
<glyph unicode="&#xc1;" horiz-adv-x="1223" d="M34 0l544 1456h66l545 -1456h-59l-163 435h-711l-163 -435h-59zM276 489h671l-305 815l-28 85h-6l-27 -85zM565 1601l220 261h78l2 -5l-231 -261h-67z" />
<glyph unicode="&#xc2;" horiz-adv-x="1223" d="M34 0l544 1456h66l545 -1456h-59l-163 435h-711l-163 -435h-59zM276 489h671l-305 815l-28 85h-6l-27 -85zM362 1601v17l210 206h80l214 -210v-13h-70l-185 186l-183 -186h-66z" />
<glyph unicode="&#xc3;" horiz-adv-x="1223" d="M34 0l544 1456h66l545 -1456h-59l-163 435h-711l-163 -435h-59zM270 1615q0 79 50 129t126 50q71 0 153 -62t134 -62q51 0 85 39q36 41 36 102l55 -10q0 -81 -51 -134q-51 -52 -125 -52q-75 0 -154 62q-78 63 -133 63q-52 0 -86.5 -37.5t-34.5 -97.5zM276 489h671 l-305 815l-28 85h-6l-27 -85z" />
<glyph unicode="&#xc4;" horiz-adv-x="1223" d="M34 0l544 1456h66l545 -1456h-59l-163 435h-711l-163 -435h-59zM276 489h671l-305 815l-28 85h-6l-27 -85zM317 1673v118h137v-118h-137zM787 1673v118h136v-118h-136z" />
<glyph unicode="&#xc5;" horiz-adv-x="1223" d="M34 0l544 1456h66l545 -1456h-59l-163 435h-711l-163 -435h-59zM276 489h671l-305 815l-28 85h-6l-27 -85zM474 1726q0 57 40 97q40 42 96 42q54 0 93 -41q40 -40 40 -98q0 -57 -39 -96t-94 -39q-56 0 -96 39t-40 96zM531 1726q0 -34 23 -56.5t56 -22.5t54.5 22t21.5 57 t-22 58.5t-54 23.5q-33 0 -56 -23.5t-23 -58.5z" />
<glyph unicode="&#xc6;" horiz-adv-x="1816" d="M50 0l881 1456h776v-54h-696l26 -616h588v-54h-586l28 -678h701v-54h-752l-18 425h-628l-255 -425h-65zM402 478h594l-39 924l-5 1l-57 -105z" />
<glyph unicode="&#xc7;" horiz-adv-x="1327" d="M134 619v218q0 143 34.5 258.5t103.5 201.5t180.5 133t258.5 47q118 0 248.5 -27t199.5 -75l-24 -42q-78 45 -196.5 71t-227.5 26q-247 0 -385 -150.5t-138 -440.5v-220q0 -124 33 -230t97 -186.5t164.5 -127t228.5 -48.5q256 0 422 92l27 -42q-65 -48 -187.5 -73 t-261.5 -25q-140 0 -251.5 49t-182 136t-107.5 203t-36 252zM553 -395l7 -49q145 0 225 51t80 139q0 154 -197 169l11 76h-53l-25 -121q120 -11 163 -35q46 -25 46 -89q0 -69 -77 -105t-180 -36z" />
<glyph unicode="&#xc8;" horiz-adv-x="1129" d="M200 0v1456h819v-54h-765v-616h700v-54h-700v-678h765v-54h-819zM362 1865l2 5h89l220 -261l-2 -5h-75z" />
<glyph unicode="&#xc9;" horiz-adv-x="1129" d="M200 0v1456h819v-54h-765v-616h700v-54h-700v-678h765v-54h-819zM572 1601l220 261h78l2 -5l-231 -261h-67z" />
<glyph unicode="&#xca;" horiz-adv-x="1129" d="M200 0v1456h819v-54h-765v-616h700v-54h-700v-678h765v-54h-819zM369 1601v17l210 206h80l214 -210v-13h-70l-185 186l-183 -186h-66z" />
<glyph unicode="&#xcb;" horiz-adv-x="1129" d="M200 0v1456h819v-54h-765v-616h700v-54h-700v-678h765v-54h-819zM324 1673v118h137v-118h-137zM794 1673v118h136v-118h-136z" />
<glyph unicode="&#xcc;" horiz-adv-x="534" d="M12 1865l2 5h89l220 -261l-2 -5h-75zM240 0v1456h54v-1456h-54z" />
<glyph unicode="&#xcd;" horiz-adv-x="534" d="M221 1601l220 261h78l2 -5l-231 -261h-67zM240 0v1456h54v-1456h-54z" />
<glyph unicode="&#xce;" horiz-adv-x="534" d="M19 1601v17l210 206h80l214 -210v-13h-70l-185 186l-183 -186h-66zM240 0v1456h54v-1456h-54z" />
<glyph unicode="&#xcf;" horiz-adv-x="534" d="M-26 1673v118h137v-118h-137zM240 0v1456h54v-1456h-54zM444 1673v118h136v-118h-136z" />
<glyph unicode="&#xd0;" horiz-adv-x="1370" d="M60 713v54h140v689h433q251 0 426 -180q175 -179 175 -459v-178q0 -281 -175 -460q-176 -179 -426 -179h-433v713h-140zM254 54h379q227 0 387 166t160 419v181q0 250 -160 416t-387 166h-379v-635h393v-54h-393v-659z" />
<glyph unicode="&#xd1;" horiz-adv-x="1449" d="M200 0v1456h55l934 -1353l6 2v1351h54v-1456h-54l-934 1356l-6 -2v-1354h-55zM384 1615q0 79 50 129t126 50q71 0 153 -62t134 -62q51 0 85 39q36 41 36 102l55 -10q0 -81 -51 -134q-51 -52 -125 -52q-75 0 -154 62q-78 63 -133 63q-52 0 -86.5 -37.5t-34.5 -97.5z" />
<glyph unicode="&#xd2;" horiz-adv-x="1364" d="M133 619v218q0 359 156 499q156 141 392 141q243 0 397 -140q153 -140 153 -500v-218q0 -344 -146 -493q-145 -147 -402 -147t-404 147q-146 149 -146 493zM188 619q0 -314 128 -451q129 -135 367 -139q239 5 366 138q128 134 128 452v220q0 317 -129 450 q-129 134 -367 137q-238 -3 -365 -139q-128 -136 -128 -448v-220zM419 1886l2 5h89l220 -261l-2 -5h-75z" />
<glyph unicode="&#xd3;" horiz-adv-x="1364" d="M133 619v218q0 359 156 499q156 141 392 141q243 0 397 -140q153 -140 153 -500v-218q0 -344 -146 -493q-145 -147 -402 -147t-404 147q-146 149 -146 493zM188 619q0 -314 128 -451q129 -135 367 -139q239 5 366 138q128 134 128 452v220q0 317 -129 450 q-129 134 -367 137q-238 -3 -365 -139q-128 -136 -128 -448v-220zM629 1622l220 261h78l2 -5l-231 -261h-67z" />
<glyph unicode="&#xd4;" horiz-adv-x="1364" d="M133 619v218q0 359 156 499q156 141 392 141q243 0 397 -140q153 -140 153 -500v-218q0 -344 -146 -493q-145 -147 -402 -147t-404 147q-146 149 -146 493zM188 619q0 -314 128 -451q129 -135 367 -139q239 5 366 138q128 134 128 452v220q0 317 -129 450 q-129 134 -367 137q-238 -3 -365 -139q-128 -136 -128 -448v-220zM426 1622v17l210 206h80l214 -210v-13h-70l-185 186l-183 -186h-66z" />
<glyph unicode="&#xd5;" horiz-adv-x="1364" d="M133 619v218q0 359 156 499q156 141 392 141q243 0 397 -140q153 -140 153 -500v-218q0 -344 -146 -493q-145 -147 -402 -147t-404 147q-146 149 -146 493zM188 619q0 -314 128 -451q129 -135 367 -139q239 5 366 138q128 134 128 452v220q0 317 -129 450 q-129 134 -367 137q-238 -3 -365 -139q-128 -136 -128 -448v-220zM334 1636q0 79 50 129t126 50q71 0 153 -62t134 -62q51 0 85 39q36 40 36 102l55 -10q0 -82 -51 -134t-125 -52q-75 0 -154 62q-78 63 -133 63q-52 0 -86.5 -37.5t-34.5 -97.5z" />
<glyph unicode="&#xd6;" horiz-adv-x="1364" d="M133 619v218q0 359 156 499q156 141 392 141q243 0 397 -140q153 -140 153 -500v-218q0 -344 -146 -493q-145 -147 -402 -147t-404 147q-146 149 -146 493zM188 619q0 -314 128 -451q129 -135 367 -139q239 5 366 138q128 134 128 452v220q0 317 -129 450 q-129 134 -367 137q-238 -3 -365 -139q-128 -136 -128 -448v-220zM381 1694v118h137v-118h-137zM851 1694v118h136v-118h-136z" />
<glyph unicode="&#xd7;" horiz-adv-x="1052" d="M98 289l384 393l-357 364l39 39l356 -364l357 364l39 -39l-357 -364l385 -393l-39 -37l-384 391l-384 -391z" />
<glyph unicode="&#xd8;" horiz-adv-x="1364" d="M133 619v218q0 295 145 467q146 173 403 173q242 0 391 -160l37 -45q122 -171 122 -435v-218q0 -295 -146 -468q-145 -172 -402 -172q-197 0 -330 103l-42 36q-178 172 -178 501zM188 619q0 -303 150 -447l6 -1l699 1100q-136 152 -362 152q-237 0 -365 -158t-128 -426 v-220zM382 127q118 -94 301 -94q239 0 366 157q128 158 128 429v220q0 238 -96 378l-6 1z" />
<glyph unicode="&#xd9;" horiz-adv-x="1365" d="M185 489v967h54v-967q0 -207 125 -332q125 -124 319 -124q193 0 317 124q126 124 126 332v967h54v-967q0 -240 -139 -375t-358 -135t-359 135q-139 136 -139 375zM440 1865l2 5h89l220 -261l-2 -5h-75z" />
<glyph unicode="&#xda;" horiz-adv-x="1365" d="M185 489v967h54v-967q0 -207 125 -332q125 -124 319 -124q193 0 317 124q126 124 126 332v967h54v-967q0 -240 -139 -375t-358 -135t-359 135q-139 136 -139 375zM650 1601l220 261h78l2 -5l-231 -261h-67z" />
<glyph unicode="&#xdb;" horiz-adv-x="1365" d="M185 489v967h54v-967q0 -207 125 -332q125 -124 319 -124q193 0 317 124q126 124 126 332v967h54v-967q0 -240 -139 -375t-358 -135t-359 135q-139 136 -139 375zM447 1601v17l210 206h80l214 -210v-13h-70l-185 186l-183 -186h-66z" />
<glyph unicode="&#xdc;" horiz-adv-x="1365" d="M185 489v967h54v-967q0 -207 125 -332q125 -124 319 -124q193 0 317 124q126 124 126 332v967h54v-967q0 -240 -139 -375t-358 -135t-359 135q-139 136 -139 375zM402 1673v118h137v-118h-137zM872 1673v118h136v-118h-136z" />
<glyph unicode="&#xdd;" horiz-adv-x="1223" d="M36 1456h66l481 -809l26 -50l27 50l483 809h66l-547 -903v-553h-55v553zM561 1590l220 261h78l2 -5l-231 -261h-67z" />
<glyph unicode="&#xde;" horiz-adv-x="1219" d="M200 0v1456h54v-313h371q212 0 331 -113t119 -292t-119 -292q-118 -112 -331 -112h-371v-334h-54zM254 388h371q194 0 295 104t101 244q0 145 -100 248q-100 105 -296 105h-371v-701z" />
<glyph unicode="&#xdf;" horiz-adv-x="1183" d="M164 0v1082q0 188 88.5 290t250.5 102q124 0 207 -73q85 -73 85 -195q0 -102 -60 -205q-59 -104 -59 -201q0 -90 193 -232q193 -141 193 -291q0 -141 -114 -220q-114 -78 -253 -78q-85 0 -180 26q-91 25 -132 63l25 49q42 -34 122 -60q79 -25 157 -25q139 0 230 71 q91 72 91 183q0 113 -193 252t-193 264q0 105 56 212q57 106 57 194q0 89 -68 151q-67 61 -154 61q-134 0 -215 -88q-80 -88 -80 -250v-1082h-54z" />
<glyph unicode="&#xe0;" horiz-adv-x="1081" d="M91 284q0 79 41.5 142.5t108.5 101t144 57t156 19.5q97 0 174 -13t106 -25l29 -13v209q0 135 -86.5 210.5t-243.5 75.5q-203 0 -354 -83l-21 53q170 84 375 84q109 0 193 -36t136 -114.5t55 -191.5l-1 -760h-42l-9 178q-76 -97 -189.5 -148t-248.5 -51q-147 0 -235 81 t-88 224zM145 280q0 -114 75.5 -181t193.5 -67q280 0 436 202v269q-10 6 -31 14t-100 22t-175 14q-67 0 -134.5 -17t-128 -48.5t-98.5 -86t-38 -121.5zM277 1545l2 5h89l220 -261l-2 -5h-75z" />
<glyph unicode="&#xe1;" horiz-adv-x="1081" d="M91 284q0 79 41.5 142.5t108.5 101t144 57t156 19.5q97 0 174 -13t106 -25l29 -13v209q0 135 -86.5 210.5t-243.5 75.5q-203 0 -354 -83l-21 53q170 84 375 84q109 0 193 -36t136 -114.5t55 -191.5l-1 -760h-42l-9 178q-76 -97 -189.5 -148t-248.5 -51q-147 0 -235 81 t-88 224zM145 280q0 -114 75.5 -181t193.5 -67q280 0 436 202v269q-10 6 -31 14t-100 22t-175 14q-67 0 -134.5 -17t-128 -48.5t-98.5 -86t-38 -121.5zM487 1281l220 261h78l2 -5l-231 -261h-67z" />
<glyph unicode="&#xe2;" horiz-adv-x="1081" d="M91 284q0 79 41.5 142.5t108.5 101t144 57t156 19.5q97 0 174 -13t106 -25l29 -13v209q0 135 -86.5 210.5t-243.5 75.5q-203 0 -354 -83l-21 53q170 84 375 84q109 0 193 -36t136 -114.5t55 -191.5l-1 -760h-42l-9 178q-76 -97 -189.5 -148t-248.5 -51q-147 0 -235 81 t-88 224zM145 280q0 -114 75.5 -181t193.5 -67q280 0 436 202v269q-10 6 -31 14t-100 22t-175 14q-67 0 -134.5 -17t-128 -48.5t-98.5 -86t-38 -121.5zM284 1281v17l210 206h80l214 -210v-13h-70l-185 186l-183 -186h-66z" />
<glyph unicode="&#xe3;" horiz-adv-x="1081" d="M91 284q0 79 41.5 142.5t108.5 101t144 57t156 19.5q97 0 174 -13t106 -25l29 -13v209q0 135 -86.5 210.5t-243.5 75.5q-203 0 -354 -83l-21 53q170 84 375 84q109 0 193 -36t136 -114.5t55 -191.5l-1 -760h-42l-9 178q-76 -97 -189.5 -148t-248.5 -51q-147 0 -235 81 t-88 224zM145 280q0 -114 75.5 -181t193.5 -67q280 0 436 202v269q-10 6 -31 14t-100 22t-175 14q-67 0 -134.5 -17t-128 -48.5t-98.5 -86t-38 -121.5zM192 1295q0 79 50 129t126 50q71 0 153 -62t134 -62q51 0 85 39q36 41 36 102l55 -10q0 -81 -51 -134q-51 -52 -125 -52 q-75 0 -154 62q-78 63 -133 63q-52 0 -86.5 -37.5t-34.5 -97.5z" />
<glyph unicode="&#xe4;" horiz-adv-x="1081" d="M91 284q0 79 41.5 142.5t108.5 101t144 57t156 19.5q97 0 174 -13t106 -25l29 -13v209q0 135 -86.5 210.5t-243.5 75.5q-203 0 -354 -83l-21 53q170 84 375 84q109 0 193 -36t136 -114.5t55 -191.5l-1 -760h-42l-9 178q-76 -97 -189.5 -148t-248.5 -51q-147 0 -235 81 t-88 224zM145 280q0 -114 75.5 -181t193.5 -67q280 0 436 202v269q-10 6 -31 14t-100 22t-175 14q-67 0 -134.5 -17t-128 -48.5t-98.5 -86t-38 -121.5zM239 1353v118h137v-118h-137zM709 1353v118h136v-118h-136z" />
<glyph unicode="&#xe5;" horiz-adv-x="1081" d="M91 284q0 79 41.5 142.5t108.5 101t144 57t156 19.5q97 0 174 -13t106 -25l29 -13v209q0 135 -86.5 210.5t-243.5 75.5q-203 0 -354 -83l-21 53q170 84 375 84q109 0 193 -36t136 -114.5t55 -191.5l-1 -760h-42l-9 178q-76 -97 -189.5 -148t-248.5 -51q-147 0 -235 81 t-88 224zM145 280q0 -114 75.5 -181t193.5 -67q280 0 436 202v269q-10 6 -31 14t-100 22t-175 14q-67 0 -134.5 -17t-128 -48.5t-98.5 -86t-38 -121.5zM396 1406q0 57 40 97q40 42 96 42q54 0 93 -41q40 -40 40 -98q0 -57 -39 -96t-94 -39q-56 0 -96 39t-40 96zM453 1406 q0 -34 23 -56.5t56 -22.5t54.5 22t21.5 57t-22 58.5t-54 23.5q-33 0 -56 -23.5t-23 -58.5z" />
<glyph unicode="&#xe6;" horiz-adv-x="1802" d="M94 284q0 92 30 156.5t88.5 101t134 52.5t177.5 16h290v109q0 158 -72.5 243.5t-209.5 87.5q-85 -1 -172.5 -28.5t-156.5 -85.5l-36 41q73 65 170.5 95t194.5 30q132 0 219 -75t110 -213q50 130 155 209t238 79q191 0 299.5 -123t104.5 -319v-95h-787v-14v-51 q0 -136 40.5 -238.5t131.5 -166t226 -66.5q115 0 196 20.5t186 74.5l18 -57q-116 -50 -197 -69t-203 -19q-142 0 -244 65t-156 185l-16 39q-26 -145 -136 -217t-268 -72q-160 0 -257.5 77.5t-97.5 227.5zM149 280q0 -118 77.5 -183.5t221.5 -67.5q68 1 129 18.5t112 51 t84.5 89.5t40.5 127v248h-288q-90 -2 -152 -13.5t-116.5 -41t-81.5 -86t-27 -142.5zM880 611h724v53q2 166 -92.5 276.5t-257.5 110.5q-170 -7 -268.5 -129t-105.5 -307v-4z" />
<glyph unicode="&#xe7;" horiz-adv-x="1039" d="M97 520v42q0 122 26 218.5t79.5 169.5t142 112.5t207.5 39.5q91 0 188 -23t158 -63l-27 -49q-65 43 -151.5 63.5t-167.5 20.5q-191 -3 -296 -129t-105 -360v-42q-1 -77 14 -148t47.5 -134t79.5 -109.5t114.5 -74t147.5 -27.5q112 0 195 18.5t122 47.5l30 -45 q-107 -69 -347 -69q-115 0 -203.5 41.5t-143 116t-82.5 171.5t-28 212zM422 -395l7 -49q145 0 225 51t80 139q0 154 -197 169l11 76h-53l-25 -121q120 -11 163 -35q46 -25 46 -89q0 -69 -77 -105q-76 -36 -180 -36z" />
<glyph unicode="&#xe8;" horiz-adv-x="1039" d="M97 500v64q0 235 130 386q131 152 329 152q180 0 287 -119t107 -323v-83h-799v-13v-64q0 -199 112 -333q113 -134 288 -134q186 0 348 84l32 -47q-162 -91 -380 -91q-191 0 -323 148q-131 149 -131 373zM159 637l3 -6h734v33q0 168 -91 275q-91 109 -249 109 q-168 0 -276 -117t-121 -294zM300 1544l2 5h89l220 -261l-2 -5h-75z" />
<glyph unicode="&#xe9;" horiz-adv-x="1039" d="M97 500v64q0 235 130 386q131 152 329 152q180 0 287 -119t107 -323v-83h-799v-13v-64q0 -199 112 -333q113 -134 288 -134q186 0 348 84l32 -47q-162 -91 -380 -91q-191 0 -323 148q-131 149 -131 373zM159 637l3 -6h734v33q0 168 -91 275q-91 109 -249 109 q-168 0 -276 -117t-121 -294zM510 1280l220 261h78l2 -5l-231 -261h-67z" />
<glyph unicode="&#xea;" horiz-adv-x="1039" d="M97 500v64q0 235 130 386q131 152 329 152q180 0 287 -119t107 -323v-83h-799v-13v-64q0 -199 112 -333q113 -134 288 -134q186 0 348 84l32 -47q-162 -91 -380 -91q-191 0 -323 148q-131 149 -131 373zM159 637l3 -6h734v33q0 168 -91 275q-91 109 -249 109 q-168 0 -276 -117t-121 -294zM307 1280v17l210 206h80l214 -210v-13h-70l-185 186l-183 -186h-66z" />
<glyph unicode="&#xeb;" horiz-adv-x="1039" d="M97 500v64q0 235 130 386q131 152 329 152q180 0 287 -119t107 -323v-83h-799v-13v-64q0 -199 112 -333q113 -134 288 -134q186 0 348 84l32 -47q-162 -91 -380 -91q-191 0 -323 148q-131 149 -131 373zM159 637l3 -6h734v33q0 168 -91 275q-91 109 -249 109 q-168 0 -276 -117t-121 -294zM262 1352v118h137v-118h-137zM732 1352v118h136v-118h-136z" />
<glyph unicode="&#xec;" horiz-adv-x="406" d="M-47 1522l2 5h89l220 -261l-2 -5h-75zM181 0v1082h54v-1082h-54z" />
<glyph unicode="&#xed;" horiz-adv-x="406" d="M162 1258l220 261h78l2 -5l-231 -261h-67zM181 0v1082h54v-1082h-54z" />
<glyph unicode="&#xee;" horiz-adv-x="406" d="M-40 1258v17l210 206h80l214 -210v-13h-70l-185 186l-183 -186h-66zM181 0v1082h54v-1082h-54z" />
<glyph unicode="&#xef;" horiz-adv-x="406" d="M-85 1331v118h137v-118h-137zM181 0v1082h54v-1082h-54zM385 1331v118h136v-118h-136z" />
<glyph unicode="&#xf0;" horiz-adv-x="1183" d="M123 446q0 241 118 374t330 133q137 0 246 -51q111 -52 163 -141l4 5q1 339 -207 529l-360 -206l-28 48l341 195q-101 74 -252 135l20 50q170 -68 284 -155l260 149l29 -48l-244 -140q214 -202 214 -568v-220q0 -245 -132 -401q-131 -155 -330 -155t-328 134 q-128 136 -128 333zM178 446q0 -165 109 -287q110 -122 296 -122q179 0 291 139q113 140 113 359v128q-44 96 -151 163q-107 69 -265 69q-198 0 -296 -125q-97 -124 -97 -324z" />
<glyph unicode="&#xf1;" d="M172 0v1082h46l7 -184q49 80 144 141q95 63 231 63q179 0 266.5 -112.5t87.5 -352.5v-637h-54v639q0 225 -81 317q-80 92 -218 92q-170 0 -271 -101q-100 -99 -104 -122v-825h-54zM236 1293q0 79 50 129t126 50q71 0 153 -62t134 -62q51 0 85 39q36 41 36 102l55 -10 q0 -81 -51 -134q-51 -52 -125 -52q-75 0 -154 62q-78 63 -133 63q-52 0 -86.5 -37.5t-34.5 -97.5z" />
<glyph unicode="&#xf2;" d="M87 520v42q0 256 131 398q132 142 342 142q212 0 342 -144q132 -142 132 -396v-42q0 -256 -132 -398q-131 -143 -340 -143q-211 0 -343 143q-132 142 -132 398zM141 520q0 -224 114 -356q114 -131 307 -131q190 0 304 131q114 132 114 356v42q0 213 -115 349 q-116 137 -305 137q-191 0 -305 -137t-114 -349v-42zM325 1543l2 5h89l220 -261l-2 -5h-75z" />
<glyph unicode="&#xf3;" d="M87 520v42q0 256 131 398q132 142 342 142q212 0 342 -144q132 -142 132 -396v-42q0 -256 -132 -398q-131 -143 -340 -143q-211 0 -343 143q-132 142 -132 398zM141 520q0 -224 114 -356q114 -131 307 -131q190 0 304 131q114 132 114 356v42q0 213 -115 349 q-116 137 -305 137q-191 0 -305 -137t-114 -349v-42zM535 1279l220 261h78l2 -5l-231 -261h-67z" />
<glyph unicode="&#xf4;" d="M87 520v42q0 256 131 398q132 142 342 142q212 0 342 -144q132 -142 132 -396v-42q0 -256 -132 -398q-131 -143 -340 -143q-211 0 -343 143q-132 142 -132 398zM141 520q0 -224 114 -356q114 -131 307 -131q190 0 304 131q114 132 114 356v42q0 213 -115 349 q-116 137 -305 137q-191 0 -305 -137t-114 -349v-42zM332 1279v17l210 206h80l214 -210v-13h-70l-185 186l-183 -186h-66z" />
<glyph unicode="&#xf5;" d="M87 520v42q0 256 131 398q132 142 342 142q212 0 342 -144q132 -142 132 -396v-42q0 -256 -132 -398q-131 -143 -340 -143q-211 0 -343 143q-132 142 -132 398zM141 520q0 -224 114 -356q114 -131 307 -131q190 0 304 131q114 132 114 356v42q0 213 -115 349 q-116 137 -305 137q-191 0 -305 -137t-114 -349v-42zM240 1293q0 79 50 129t126 50q71 0 153 -62t134 -62q51 0 85 39q36 41 36 102l55 -10q0 -81 -51 -134q-51 -52 -125 -52q-75 0 -154 62q-78 63 -133 63q-52 0 -86.5 -37.5t-34.5 -97.5z" />
<glyph unicode="&#xf6;" d="M87 520v42q0 256 131 398q132 142 342 142q212 0 342 -144q132 -142 132 -396v-42q0 -256 -132 -398q-131 -143 -340 -143q-211 0 -343 143q-132 142 -132 398zM141 520q0 -224 114 -356q114 -131 307 -131q190 0 304 131q114 132 114 356v42q0 213 -115 349 q-116 137 -305 137q-191 0 -305 -137t-114 -349v-42zM287 1351v118h137v-118h-137zM757 1351v118h136v-118h-136z" />
<glyph unicode="&#xf7;" horiz-adv-x="1159" d="M73 686v52h998v-52h-998zM535 241v122h96v-122h-96zM535 1020v122h96v-122h-96z" />
<glyph unicode="&#xf8;" d="M84 520v43q-7 236 121.5 388t350.5 152q151 0 259 -72.5t160.5 -192.5t55.5 -275v-43q4 -152 -50.5 -274t-164.5 -194t-257 -72q-148 0 -258.5 71.5t-165.5 193.5t-51 275zM137 520q0 -158 59 -273l684 641l-18 24q-116 137 -306 137q-129 0 -227 -68t-146.5 -177.5 t-45.5 -240.5v-43zM225 199q11 -16 27 -34q115 -132 307 -132q132 0 229.5 66.5t144.5 176t44 244.5v43q0 161 -66 278z" />
<glyph unicode="&#xf9;" d="M168 465v617h54v-619q0 -214 79 -322t221 -108q164 0 255 80q87 77 118 108v861h55v-1082h-45l-8 174q-65 -89 -152 -142q-88 -53 -221 -53q-171 0 -263.5 121t-92.5 365zM323 1522l2 5h89l220 -261l-2 -5h-75z" />
<glyph unicode="&#xfa;" d="M168 465v617h54v-619q0 -214 79 -322t221 -108q164 0 255 80q87 77 118 108v861h55v-1082h-45l-8 174q-65 -89 -152 -142q-88 -53 -221 -53q-171 0 -263.5 121t-92.5 365zM533 1258l220 261h78l2 -5l-231 -261h-67z" />
<glyph unicode="&#xfb;" d="M168 465v617h54v-619q0 -214 79 -322t221 -108q164 0 255 80q87 77 118 108v861h55v-1082h-45l-8 174q-65 -89 -152 -142q-88 -53 -221 -53q-171 0 -263.5 121t-92.5 365zM330 1258v17l210 206h80l214 -210v-13h-70l-185 186l-183 -186h-66z" />
<glyph unicode="&#xfc;" d="M168 465v617h54v-619q0 -214 79 -322t221 -108q164 0 255 80q87 77 118 108v861h55v-1082h-45l-8 174q-65 -89 -152 -142q-88 -53 -221 -53q-171 0 -263.5 121t-92.5 365zM285 1331v118h137v-118h-137zM755 1331v118h136v-118h-136z" />
<glyph unicode="&#xfd;" horiz-adv-x="978" d="M43 1082h59l356 -886l40 -108h6l6 16l374 978h60l-481 -1262q-71 -158 -123 -207q-53 -50 -166 -50h-87l5 53h82q93 0 134 37q42 36 101 177l65 176zM467 1258l220 261h78l2 -5l-231 -261h-67z" />
<glyph unicode="&#xfe;" d="M170 305v440q0 3 2 8v329h1v478h54v-666q55 99 148 153.5t216 54.5q191 0 299 -152q109 -151 109 -408v-21q0 -251 -108 -396q-108 -146 -298 -146q-123 0 -217 48.5t-149 135.5v-163h-1v-416h-54v712q-2 8 -2 9zM227 261q43 -108 136.5 -168t230.5 -60q172 0 260 132 q90 132 90 356v21q0 226 -91 365q-90 141 -261 141q-154 0 -240 -76q-87 -78 -125 -188v-523z" />
<glyph unicode="&#xff;" horiz-adv-x="978" d="M43 1082h59l356 -886l40 -108h6l6 16l374 978h60l-481 -1262q-71 -158 -123 -207q-53 -50 -166 -50h-87l5 53h82q93 0 134 37q42 36 101 177l65 176zM219 1331v118h137v-118h-137zM689 1331v118h136v-118h-136z" />
<glyph unicode="&#x152;" horiz-adv-x="1873" d="M112 576v304q0 264 143 431q142 166 374 166q124 0 332 -21h798v-54h-802v-616h700v-54h-700v-678h802v-54h-798q-104 -11 -178 -15q-75 -6 -152 -6q-231 0 -375 166q-144 167 -144 431zM166 576q0 -241 127 -392t338 -151q167 0 272 12v1366q-120 12 -274 12 q-211 0 -337 -149q-126 -148 -126 -392v-306z" />
<glyph unicode="&#x153;" horiz-adv-x="1921" d="M92 520v42q0 237 131 389q132 151 342 151q164 0 282 -94q120 -96 166 -255q47 160 162 254q118 95 271 95q180 0 287 -119t107 -323v-83h-799v-13v-64q0 -199 112 -333q113 -134 288 -134q97 0 186 36q91 36 146 96l29 -42q-130 -144 -361 -144q-151 0 -267 94 q-117 95 -162 251q-46 -159 -166 -253q-119 -92 -279 -92q-211 0 -343 151q-132 152 -132 390zM146 520q0 -204 114 -346q114 -141 307 -141q190 0 304 142q114 143 114 345v42q0 200 -115 342q-116 144 -305 144q-191 0 -305 -144q-114 -142 -114 -342v-42zM1049 637l3 -6 h734v33q0 168 -91 275q-91 109 -249 109q-168 0 -276 -117t-121 -294z" />
<glyph unicode="&#x178;" horiz-adv-x="1223" d="M36 1456h66l481 -809l26 -50l27 50l483 809h66l-547 -903v-553h-55v553zM313 1662v118h137v-118h-137zM783 1662v118h136v-118h-136z" />
<glyph unicode="&#x2c6;" horiz-adv-x="796" d="M152 1252v17l210 206h80l214 -210v-13h-70l-185 186l-183 -186h-66z" />
<glyph unicode="&#x2dc;" horiz-adv-x="818" d="M75 1286q0 79 50 129t126 50q71 0 153 -62t134 -62q50 0 85 39q36 40 36 102l55 -10q0 -82 -51 -134t-125 -52q-75 0 -154 62q-78 63 -133 63q-52 0 -86.5 -37.5t-34.5 -97.5z" />
<glyph unicode="&#x2000;" horiz-adv-x="945" />
<glyph unicode="&#x2001;" horiz-adv-x="1891" />
<glyph unicode="&#x2002;" horiz-adv-x="945" />
<glyph unicode="&#x2003;" horiz-adv-x="1891" />
<glyph unicode="&#x2004;" horiz-adv-x="630" />
<glyph unicode="&#x2005;" horiz-adv-x="472" />
<glyph unicode="&#x2006;" horiz-adv-x="315" />
<glyph unicode="&#x2007;" horiz-adv-x="315" />
<glyph unicode="&#x2008;" horiz-adv-x="236" />
<glyph unicode="&#x2009;" horiz-adv-x="378" />
<glyph unicode="&#x200a;" horiz-adv-x="105" />
<glyph unicode="&#x2010;" horiz-adv-x="807" d="M99 599v54h590v-54h-590z" />
<glyph unicode="&#x2011;" horiz-adv-x="807" d="M99 599v54h590v-54h-590z" />
<glyph unicode="&#x2012;" horiz-adv-x="807" d="M99 599v54h590v-54h-590z" />
<glyph unicode="&#x2013;" horiz-adv-x="1412" d="M173 721v54h1085v-54h-1085z" />
<glyph unicode="&#x2014;" horiz-adv-x="1673" d="M180 721v54h1336v-54h-1336z" />
<glyph unicode="&#x2018;" horiz-adv-x="430" d="M172 1019v166l50 271h50l-46 -267v-170h-54z" />
<glyph unicode="&#x2019;" horiz-adv-x="430" d="M155 1019l46 268v169h54v-166l-50 -271h-50z" />
<glyph unicode="&#x201a;" horiz-adv-x="447" d="M155 -171l46 269v170h54v-168l-50 -271h-50z" />
<glyph unicode="&#x201c;" horiz-adv-x="673" d="M172 1019v166l50 271h50l-46 -267v-170h-54zM422 1019v166l50 271h50l-46 -267v-170h-54z" />
<glyph unicode="&#x201d;" horiz-adv-x="657" d="M186 1019l46 268v169h54v-166l-50 -271h-50zM388 1019l46 268v169h54v-166l-50 -271h-50z" />
<glyph unicode="&#x201e;" horiz-adv-x="615" d="M155 -169l45 269v169h55v-166l-50 -272h-50zM336 -169l46 269v169h54v-166l-50 -272h-50z" />
<glyph unicode="&#x2022;" horiz-adv-x="635" d="M155 703v70q0 71 45.5 115.5t120.5 44.5q76 0 122 -46q46 -45 46 -114v-70q0 -70 -46 -114t-121 -44q-76 0 -121.5 43.5t-45.5 114.5z" />
<glyph unicode="&#x2026;" horiz-adv-x="1255" d="M211 0v130h86v-130h-86zM595 0v130h86v-130h-86zM964 0v130h86v-130h-86z" />
<glyph unicode="&#x202f;" horiz-adv-x="378" />
<glyph unicode="&#x2039;" horiz-adv-x="604" d="M108 551v19l295 370h70l-294 -380l294 -379h-70z" />
<glyph unicode="&#x203a;" horiz-adv-x="604" d="M106 171l293 379l-293 390h70l294 -380v-19l-294 -370h-70z" />
<glyph unicode="&#x205f;" horiz-adv-x="472" />
<glyph unicode="&#x20ac;" horiz-adv-x="1060" d="M82 553v55h187v222h-187v56h187v56q0 244 130 389q131 146 343 146q93 0 222 -31v-58q-118 35 -222 35q-194 0 -306 -129q-113 -128 -113 -350v-58h593v-56h-593v-222h593v-55h-593v-39q0 -220 114 -350q116 -131 307 -131q119 0 220 34v-57q-107 -31 -220 -31 q-212 0 -344 145q-131 146 -131 390v39h-187z" />
<glyph unicode="&#x2122;" horiz-adv-x="1247" d="M90 1399v57h384v-57h-158v-480h-56v480h-170zM552 919v537h75l181 -301h6l183 301h69v-537h-55v436l-6 1l-169 -276h-51l-172 275l-6 -1v-435h-55z" />
<glyph unicode="&#x25fc;" horiz-adv-x="1080" d="M0 0v1080h1080v-1080h-1080z" />
<glyph unicode="&#xfb02;" horiz-adv-x="1067" d="M66 1032v50h188v178q0 153 73 235t210 86q79 0 118 -5l-2 -49q-36 4 -115 4q-108 -5 -168 -66q-59 -62 -62 -205v-178h286v-50h-286v-1032h-54v1032h-188zM830 0v1560h54v-1560h-54z" />
<glyph unicode="&#xfb03;" horiz-adv-x="1712" d="M66 1032v50h188v178q0 153 73 235t210 86q79 0 118 -5l-2 -49q-36 4 -115 4q-108 -5 -168 -66q-59 -62 -62 -205v-178h286v-50h-286v-1032h-54v1032h-188zM711 1027v55h188v158q0 162 85 251.5t238 89.5q144 0 268 -57l-8 -52q-65 28 -122 42q-53 13 -137 13 q-126 0 -198 -76t-72 -211v-158h286v-55h-286v-1027h-54v1027h-188zM1475 0v1082h54v-1082h-54z" />
<glyph unicode="&#xfb04;" horiz-adv-x="1712" d="M66 1032v50h188v178q0 153 73 235t210 86q79 0 118 -5l-2 -49q-36 4 -115 4q-108 -5 -168 -66q-59 -62 -62 -205v-178h286v-50h-286v-1032h-54v1032h-188zM711 1032v50h188v178q0 153 73 235t210 86q79 0 118 -5l-2 -49q-36 4 -115 4q-108 -5 -168 -66q-59 -62 -62 -205 v-178h286v-50h-286v-1032h-54v1032h-188zM1475 0v1560h54v-1560h-54z" />
</font>
</defs>
</svg>
