<?xml version="1.0" standalone="no"?>
<!DOCTYPE svg PUBLIC "-//W3C//DTD SVG 1.1//EN" "http://www.w3.org/Graphics/SVG/1.1/DTD/svg11.dtd" >
<svg xmlns="http://www.w3.org/2000/svg" xmlns:xlink="http://www.w3.org/1999/xlink" version="1.1">
<metadata></metadata>
<defs>
<font id="centumaregular" horiz-adv-x="1164" >
<font-face units-per-em="2048" ascent="1536" descent="-512" />
<missing-glyph horiz-adv-x="509" />
<glyph unicode="&#xfb01;" horiz-adv-x="1140" d="M28 936v146h170v117q0 182 106 282t296 100q107 0 285 -61l-34 -160q-129 51 -236 51q-116 0 -168 -51.5t-52 -160.5v-117h215v-146h-215v-936h-197v936h-170zM783 0v1082h198v-1082h-198z" />
<glyph horiz-adv-x="0" />
<glyph horiz-adv-x="682" />
<glyph horiz-adv-x="0" />
<glyph unicode="&#x9;" horiz-adv-x="0" />
<glyph unicode="&#xd;" horiz-adv-x="509" />
<glyph unicode=" "  horiz-adv-x="509" />
<glyph unicode="&#x09;" horiz-adv-x="509" />
<glyph unicode="&#xa0;" horiz-adv-x="509" />
<glyph unicode="!" horiz-adv-x="539" d="M171 0v204h198v-204h-198zM171 478v978h197v-978h-197z" />
<glyph unicode="&#x22;" horiz-adv-x="733" d="M126 936l1 240v280h197v-270l-101 -250h-97zM435 936v520h198v-270l-101 -250h-97z" />
<glyph unicode="#" horiz-adv-x="1276" d="M70 410v140h264l68 348h-256v142h284l82 416h151l-82 -416h255l82 416h151l-82 -416h199v-142h-226l-68 -348h219v-140h-247l-80 -410h-152l80 410h-255l-80 -410h-151l80 410h-236zM485 550h255l68 348h-255z" />
<glyph unicode="$" horiz-adv-x="1193" d="M85 90l30 169q226 -118 491 -118q57 0 109 12t98.5 37.5t74 72.5t27.5 109q0 49 -21 91t-52 70.5t-77.5 52.5t-88 38t-92.5 27q-228 57 -349.5 165t-121.5 267q0 175 121.5 278.5t304.5 117.5v204h158v-206q215 -23 331 -110l-48 -173q-148 120 -385 120 q-285 0 -285 -228q0 -49 23 -90t55 -67.5t83.5 -50t89 -36t91.5 -26.5q230 -60 345 -164t115 -279q0 -94 -34.5 -166.5t-96 -118t-137.5 -70.5t-168 -32v-204h-157v204q-244 11 -434 104z" />
<glyph unicode="%" horiz-adv-x="1498" d="M104 1099v77q0 128 82 214q82 87 219 87t219 -87q82 -85 82 -214v-77q0 -128 -82 -213q-81 -86 -217 -86q-138 0 -221 86q-82 85 -82 213zM250 1099q0 -74 40 -126q40 -51 117 -51q72 0 113 51q40 50 40 126v77q0 73 -41 126t-114 53q-74 0 -115 -53q-40 -52 -40 -126 v-77zM349 177l711 1138l109 -67l-711 -1138zM809 279v78q0 128 82 213q83 87 219 87t218 -87q83 -86 83 -213v-78q0 -129 -82 -214q-83 -86 -217 -86q-138 0 -221 86q-82 85 -82 214zM955 279q0 -75 40 -127q41 -51 117 -51q72 0 113 51q40 52 40 127v78q0 73 -41 126 q-40 52 -114 52q-75 0 -115 -52t-40 -126v-78z" />
<glyph unicode="&#x26;" horiz-adv-x="1276" d="M103 407q0 126 58 216t168 133q-96 48 -149.5 132t-53.5 186q0 98 44 176t119.5 127t171.5 74.5t204 25.5q253 0 398 -116l-74 -142q-149 102 -324 102q-82 0 -158 -26t-130 -83.5t-54 -133.5q0 -112 73 -178t196 -71v-154q-131 -5 -211.5 -75t-80.5 -197 q0 -75 54.5 -138.5t136 -97.5t167.5 -34q105 0 202 38v658l333 10v-161h-132v-589v-1q-67 -51 -184 -80t-219 -29q-142 0 -267 49.5t-206.5 149t-81.5 229.5z" />
<glyph unicode="'" horiz-adv-x="445" d="M126 951l1 265v240h197v-223l-101 -282h-97z" />
<glyph unicode="(" horiz-adv-x="679" d="M132 582v9q0 394 159 673t334 372l6 -1l38 -116q-137 -107 -239 -343q-101 -237 -101 -583v-13q0 -346 101 -583q101 -236 239 -352l-38 -108h-6q-175 93 -334 372q-159 277 -159 673z" />
<glyph unicode=")" horiz-adv-x="687" d="M6 -355q135 105 237 346q103 239 103 589v13q0 343 -106 583q-106 243 -234 352l38 108h6q174 -93 333 -372q160 -278 160 -673v-9q0 -396 -160 -673q-159 -279 -333 -372h-6z" />
<glyph unicode="*" horiz-adv-x="884" d="M88 763l49 154l236 -90l-10 254h161l-10 -260l233 89l48 -156l-242 -68l153 -200l-132 -96l-140 218l-135 -210l-133 92l158 206z" />
<glyph unicode="+" horiz-adv-x="1162" d="M78 605v178h402v423h197v-423h399v-178h-399v-459h-197v459h-402z" />
<glyph unicode="," horiz-adv-x="404" d="M48 -258l70 316v163h197v-173l-150 -306h-117z" />
<glyph unicode="-" horiz-adv-x="923" d="M167 538v154h590v-154h-590z" />
<glyph unicode="." horiz-adv-x="548" d="M161 0v202h197v-202h-197z" />
<glyph unicode="/" horiz-adv-x="850" d="M16 -125l608 1581h167l-607 -1581h-168z" />
<glyph unicode="0" horiz-adv-x="1153" d="M113 514v428q0 244 125 390q126 145 337 145q212 0 338 -145q127 -145 127 -390v-428q0 -247 -126 -391q-125 -144 -337 -144q-211 0 -338 144q-126 144 -126 391zM310 474q0 -158 70 -249q71 -92 197 -92q128 0 197 91q69 92 69 250v509q0 157 -70 248t-198 91 q-127 0 -196 -91t-69 -248v-509z" />
<glyph unicode="1" horiz-adv-x="723" d="M68 1271v152l515 54v-1477h-198v1305z" />
<glyph unicode="2" horiz-adv-x="1153" d="M150 0v135l457 545q18 22 57 70.5t53 67t39 57t34.5 65t17.5 66t8 83.5q0 99 -73.5 162t-182.5 63q-92 0 -181.5 -25t-149.5 -76l-76 135q143 129 407 129q199 0 326 -104.5t127 -282.5q0 -61 -11.5 -112t-40.5 -103t-52.5 -85.5t-74 -98t-78.5 -102.5l-367 -430l2 -5 h663v-154h-904z" />
<glyph unicode="3" horiz-adv-x="1118" d="M95 88l53 165q54 -43 158 -81.5t217 -38.5q126 0 202 75t76 194q0 136 -73 204.5t-210 68.5h-147v153h147q129 0 194.5 64.5t65.5 184.5q0 119 -71 181.5t-191 62.5q-103 0 -196 -24.5t-146 -75.5l-74 140q60 54 182.5 85t233.5 31q217 0 338 -102.5t121 -301.5 q0 -102 -53.5 -186t-149.5 -131q110 -44 168 -133.5t58 -216.5q0 -199 -131 -313t-344 -114q-106 0 -234 29t-194 80z" />
<glyph unicode="4" horiz-adv-x="1012" d="M65 336v111l619 1009h215l-602 -966h399l26 280h170v-770h-196v336h-631z" />
<glyph unicode="5" horiz-adv-x="1153" d="M141 83l78 152q61 -44 158 -71t206 -27q135 0 199 86t64 239q0 137 -64.5 224t-198.5 87q-84 0 -137 -26t-103 -88l-159 72l75 725h729l-11 -175h-552l-47 -419q79 79 234 81q211 -1 321 -131.5t110 -347.5q0 -239 -117.5 -362t-342.5 -123q-145 0 -263 27t-179 77z" />
<glyph unicode="6" horiz-adv-x="1153" d="M137 552v335q0 276 145 433t359 157q83 0 192 -20q104 -19 187 -55l-47 -165q-167 78 -332 77q-150 7 -229 -109t-79 -296v-105q64 56 148 89.5t176 33.5q187 0 297 -126q110 -127 110 -331q0 -225 -123 -358q-121 -133 -330 -133q-201 0 -338 153q-136 154 -136 420z M333 533q0 -184 80 -293q81 -107 198 -107q123 0 189 93q67 94 67 244q0 142 -72 226q-71 84 -201 84q-93 0 -160 -40t-101 -84v-123z" />
<glyph unicode="7" horiz-adv-x="1153" d="M97 1301v155h966v-155q-275 -327 -373 -579q-97 -249 -97 -563v-159h-197v159q0 331 121 594q119 260 352 548h-772z" />
<glyph unicode="8" horiz-adv-x="1153" d="M102 400q0 52 17 103t38.5 86t57.5 75.5t55.5 58t52.5 45.5q-84 49 -132 134t-48 182q0 188 122 290.5t320 102.5q191 0 308 -102.5t117 -290.5q0 -33 -6 -64.5t-14 -56.5t-24 -52.5t-27 -44t-31.5 -40t-29.5 -33t-30 -30t-24 -23.5q99 -50 162.5 -140.5t63.5 -199.5 q0 -195 -129 -308t-334 -113q-229 0 -357 105.5t-128 315.5zM299 404q0 -134 74 -202.5t214 -68.5q125 0 196 72.5t71 198.5q0 53 -21.5 97.5t-55 75t-86 57t-101.5 43.5t-115 34q-34 -29 -60.5 -56.5t-55 -66.5t-44.5 -86.5t-16 -97.5zM340 1081q0 -51 18.5 -91t41 -64 t72 -48t80 -34.5t96.5 -30.5q17 -5 26 -8q139 137 139 276q0 117 -58.5 179t-169.5 62q-116 0 -180.5 -60t-64.5 -181z" />
<glyph unicode="9" horiz-adv-x="1153" d="M93 978q0 219 119 359q120 140 322 140q482 0 482 -524v-442q0 -251 -144 -392q-145 -140 -371 -140q-77 0 -157 15q-76 14 -199 59l33 165q104 -53 170 -69q65 -16 153 -16q142 0 229 98q88 97 88 278v140q-50 -59 -122 -94.5t-154 -35.5q-210 0 -330 129 q-119 131 -119 330zM290 978q0 -149 65.5 -227t186.5 -78q102 0 173 47q72 47 103 83v179q0 340 -278 340q-125 0 -188 -96q-62 -95 -62 -248z" />
<glyph unicode=":" horiz-adv-x="517" d="M161 0v202h197v-202h-197zM161 876v202h197v-202h-197z" />
<glyph unicode=";" horiz-adv-x="525" d="M99 -258l70 316v163h197v-173l-150 -306h-117zM162 876v202h197v-202h-197z" />
<glyph unicode="&#x3c;" horiz-adv-x="1040" d="M71 486v149l816 378v-201l-559 -233l-85 -18v-6l85 -19l559 -228v-201z" />
<glyph unicode="=" horiz-adv-x="1153" d="M152 407v164h834v-164h-834zM152 823v164h834v-164h-834z" />
<glyph unicode="&#x3e;" horiz-adv-x="1072" d="M136 87v196l598 238l85 17v6l-85 20l-598 234v195l856 -378v-149z" />
<glyph unicode="?" horiz-adv-x="974" d="M121 1358q60 50 158 84t192 34q119 0 211 -40.5t148 -128t56 -212.5q0 -68 -19.5 -130t-60 -120.5t-78 -101t-99.5 -103.5q-53 -53 -66 -96q-11 -47 -11 -135h-197q2 148 25 202q26 58 126 148q17 19 49 53.5t46 50.5t35 45.5t30 52.5t16 56.5t7 72.5q0 106 -56.5 163 t-161.5 57q-54 0 -139.5 -29.5t-128.5 -74.5zM353 0h206v208h-206v-208z" />
<glyph unicode="@" horiz-adv-x="1833" d="M114 478q19 422 249 688q229 265 602 265q379 0 581 -250t186 -679q-9 -214 -120 -369q-111 -154 -332 -154q-73 0 -126 41.5t-76 117.5q-100 -159 -290 -159q-125 0 -194 120q-69 121 -51 317q22 258 137 415t280 157q103 0 169 -26q62 -24 139 -80l-4 -4h6l-51 -585 q-9 -110 21 -152q32 -41 82 -41q123 0 197 113q75 116 82 289q16 382 -144 595q-160 214 -496 214q-309 0 -496 -231q-187 -230 -202 -602q-18 -376 150 -594q168 -219 482 -219q90 0 178 22q90 21 153 56l38 -107q-69 -43 -171 -65q-103 -24 -202 -24q-380 0 -588 250 q-207 249 -189 681zM720 416q-11 -142 21.5 -216t106.5 -74q135 0 214 112q-2 29 2 55l47 538q-57 26 -114 26q-124 0 -190 -108t-87 -333z" />
<glyph unicode="A" horiz-adv-x="1295" d="M43 0l525 1456h169l514 -1456h-201l-128 375h-548l-130 -375h-201zM431 540h435l-212 625h-6z" />
<glyph unicode="B" horiz-adv-x="1302" d="M170 0v1456h475q228 0 357 -99q129 -97 129 -295q0 -93 -57.5 -167.5t-154.5 -114.5q143 -20 226 -124q84 -104 84 -245q0 -200 -130 -306q-131 -105 -352 -105h-577zM367 154h380q135 0 209.5 66.5t74.5 188.5t-76 195q-78 75 -205 79h-13h-370v-529zM367 837h319 q110 0 179 60q69 61 69 169q0 117 -74 176t-215 59h-278v-464z" />
<glyph unicode="C" horiz-adv-x="1226" d="M118 598v259q0 304 157 462t421 158q280 0 450 -132l-112 -130q-55 44 -155.5 75.5t-182.5 31.5q-188 0 -284.5 -117t-96.5 -346v-261q0 -213 100.5 -339t280.5 -126q104 0 204 34t152 88l97 -138q-71 -66 -197.5 -102t-255.5 -36q-261 0 -419.5 161.5t-158.5 457.5z" />
<glyph unicode="D" horiz-adv-x="1387" d="M170 0v1456h458q286 0 458 -141q174 -140 174 -488v-199q0 -353 -174 -491q-173 -137 -458 -137h-458zM367 154h261q202 0 318 90q117 92 117 384v201q0 259 -117 365q-116 107 -318 107h-261v-1147z" />
<glyph unicode="E" horiz-adv-x="1130" d="M170 0v1456h855v-155h-658v-471h598v-155h-598v-521h669v-154h-866z" />
<glyph unicode="F" horiz-adv-x="1130" d="M170 0v1456h913v-155h-716v-502h614v-155h-614v-644h-197z" />
<glyph unicode="G" horiz-adv-x="1387" d="M121 577v301q0 598 569 598q290 0 450 -125l-42 -180q-145 145 -408 145q-204 0 -287.5 -103.5t-83.5 -333.5v-302v-20q0 -194 94 -306q99 -118 290 -118q226 0 317 113v327h-330v154h527v-532q-87 -113 -211.5 -164.5t-302.5 -51.5q-272 0 -431 159q-151 150 -151 409 v30z" />
<glyph unicode="H" horiz-adv-x="1441" d="M170 0v1456h197v-658h707v658h197v-1456h-197v643h-707v-643h-197z" />
<glyph unicode="I" horiz-adv-x="579" d="M190 0v1456h198v-1456h-198z" />
<glyph unicode="J" horiz-adv-x="1123" d="M132 99l89 149q47 -51 125.5 -83t165.5 -32q115 0 183 84q64 79 64 192v13v1034h197v-1034q0 -215 -118 -329t-326 -114q-103 0 -209 29.5t-171 90.5z" />
<glyph unicode="K" horiz-adv-x="1302" d="M170 0v1456h197v-652l108 8l543 644h214v-23l-583 -671l625 -742v-20h-234l-545 658l-128 9v-667h-197z" />
<glyph unicode="L" horiz-adv-x="1126" d="M170 0v1456h197v-1302h710v-154h-907z" />
<glyph unicode="M" horiz-adv-x="1779" d="M170 0v1456h255l465 -909h10l468 909h240v-1456h-197v1125l-6 1l-441 -826h-137l-454 828l-6 -1v-1127h-197z" />
<glyph unicode="N" horiz-adv-x="1442" d="M170 0v1456h197l701 -1111l6 2v1109h197v-1456h-197l-701 1112l-6 -2v-1110h-197z" />
<glyph unicode="O" horiz-adv-x="1396" d="M113 598v259q0 323 149 472q149 148 425 148q286 0 440 -148q155 -149 155 -472v-259q0 -312 -151.5 -465.5t-443.5 -153.5q-270 0 -422 151q-152 152 -152 468zM310 598q0 -244 102 -351q104 -107 275 -107q183 0 290 107q108 107 108 351v261q0 261 -108 358 q-106 95 -279 95h-11h-10q-164 0 -265 -95q-102 -97 -102 -358v-261z" />
<glyph unicode="P" horiz-adv-x="1302" d="M170 0v1456h557q233 0 362 -120q130 -120 130 -316q0 -199 -130 -317q-130 -119 -362 -119h-360v-584h-197zM367 738h360q148 0 221 79t73 201q0 120 -74 202q-74 81 -220 81h-360v-563z" />
<glyph unicode="Q" horiz-adv-x="1427" d="M113 598v259q0 343 159 481q160 139 415 139q263 0 429 -140q166 -139 166 -480v-259q0 -186 -32 -258q-31 -70 -97 -143l217 -211l-135 -129l-222 213q-73 -46 -139 -68q-69 -23 -187 -23q-255 0 -415 145q-159 146 -159 474zM310 598q0 -252 102 -355 q103 -103 275 -103q183 0 290 101q108 102 108 357v261q0 249 -108 353q-107 103 -290 103q-171 0 -275 -102q-102 -101 -102 -354v-261z" />
<glyph unicode="R" horiz-adv-x="1303" d="M171 0v1456h557h17q204 0 337 -113q138 -118 138 -323q0 -151 -82.5 -261t-235.5 -155l280 -547v-57h-212l-275 584h-327v-584h-197zM368 738h360h13q125 0 201 73q80 77 80 207q0 129 -80 208q-76 75 -201 75h-13h-360v-563z" />
<glyph unicode="S" horiz-adv-x="1252" d="M122 85l30 169q224 -117 491 -117q57 0 109 12t98.5 37.5t74 72t27.5 108.5q0 50 -21 91.5t-52 70t-78 52.5t-88 38.5t-92 27.5q-227 56 -349 164t-122 267q0 96 39.5 173.5t106.5 126t153 74t183 25.5q123 0 239.5 -28.5t193.5 -86.5l-48 -173q-150 121 -385 121 q-285 0 -285 -229q0 -49 23 -90t55 -67.5t83.5 -50t89 -36t91.5 -26.5q230 -60 345 -163.5t115 -278.5q0 -83 -27.5 -149.5t-74.5 -111t-112 -74t-137.5 -42.5t-154.5 -13q-168 0 -289.5 26.5t-231.5 79.5z" />
<glyph unicode="T" horiz-adv-x="1225" d="M37 1301v155h1151v-155h-480v-1301h-197v1301h-474z" />
<glyph unicode="U" horiz-adv-x="1386" d="M147 489v967h197v-967q0 -203 95 -280q95 -76 247 -76q160 0 260 76q101 77 101 280v967h197v-967q0 -272 -143 -391t-415 -119t-405 121q-134 122 -134 389z" />
<glyph unicode="V" horiz-adv-x="1295" d="M22 1456h214l376 -1074l33 -121h6l33 121l376 1074h213l-541 -1456h-169z" />
<glyph unicode="W" horiz-adv-x="1763" d="M37 1456h213l240 -1132l7 -1l293 841h182l296 -844h6l238 1136h215l-353 -1456h-175l-313 885h-10l-313 -885h-175z" />
<glyph unicode="X" horiz-adv-x="1295" d="M66 0l472 734l-462 722h236l338 -568l340 568h238l-462 -722l472 -734h-235l-349 578l-350 -578h-238z" />
<glyph unicode="Y" horiz-adv-x="1295" d="M40 1456h225l380 -740l380 740h225l-511 -944v-512h-196v527z" />
<glyph unicode="Z" horiz-adv-x="1225" d="M97 0v146l778 1155h-767v155h992v-141l-781 -1161h814v-154h-1036z" />
<glyph unicode="[" horiz-adv-x="552" d="M143 -312v1976h385v-155h-188v-1666h188v-155h-385z" />
<glyph unicode="\" horiz-adv-x="846" d="M39 1456h186l608 -1581h-186z" />
<glyph unicode="]" horiz-adv-x="552" d="M11 -157h189v1666h-189v155h386v-1976h-386v155z" />
<glyph unicode="^" horiz-adv-x="856" d="M61 729l299 727h134l298 -727h-181l-166 419l-16 70h-6l-16 -70l-163 -419h-183z" />
<glyph unicode="_" horiz-adv-x="931" d="M4 0h923v-154h-923v154z" />
<glyph unicode="`" horiz-adv-x="641" d="M82 1512l3 6h230l175 -266h-158z" />
<glyph unicode="a" horiz-adv-x="1126" d="M104 303q0 159 120 249q111 82 311 83q18 0 36 -1q55 -2 108.5 -14t79.5 -23l26 -11v155q0 109 -55.5 154.5t-166.5 45.5q-171 0 -343 -55l-34 155q179 61 387 61q95 0 168 -19.5t129 -61t85 -113.5q27 -67 27 -156v-13v-522q0 -38 0.5 -108t0.5 -109h-165 q-5 29 -15 70.5t-15 72.5q-66 -72 -155.5 -118.5t-181.5 -46.5q-167 0 -257 85.5t-90 239.5zM302 305q0 -78 45.5 -120t132.5 -42q68 0 155.5 34.5t149.5 76.5v200q-9 4 -26.5 10.5t-75 17.5t-119.5 11q-116 0 -189 -45.5t-73 -142.5z" />
<glyph unicode="b" d="M143 0v1560h197v-558q67 43 145 70q83 30 158 30q200 0 312 -160t112 -421v-21q0 -233 -113 -378q-113 -143 -309 -143q-96 0 -169 43q-64 38 -155 109l-27 -131h-151zM340 275q51 -45 134 -90q85 -46 154 -46q106 0 174 99q68 100 68 262v21q0 186 -69 303 q-67 118 -208 118q-67 0 -144 -36q-68 -31 -109 -58v-573z" />
<glyph unicode="c" horiz-adv-x="1072" d="M97 520v42q0 247 139.5 393.5t386.5 146.5q104 0 204.5 -29.5t152.5 -82.5l-109 -133q-40 39 -116.5 64.5t-131.5 25.5q-155 0 -241 -106t-87 -279v-42q1 -165 86.5 -274.5t241.5 -109.5q59 0 133 20.5t116 62.5l106 -132q-52 -51 -152.5 -79.5t-202.5 -28.5 q-245 0 -385.5 141t-140.5 400z" />
<glyph unicode="d" d="M98 500v21q0 261 111 421q112 160 313 160q95 0 170 -36q73 -34 124 -71v565h197v-1560h-151l-27 118q-57 -48 -133 -92q-80 -47 -182 -47q-197 0 -310 143q-112 143 -112 378zM295 500q0 -165 67 -263q68 -98 188 -98q76 4 149 40q71 35 117 72v587q-34 28 -105 66 t-139 38q-142 0 -210 -117q-67 -116 -67 -304v-21z" />
<glyph unicode="e" horiz-adv-x="1072" d="M97 520v44q0 264 129 400q129 138 334 138q232 0 333 -135q101 -136 101 -359v-98h-695v-11q0 -163 72 -265q72 -101 220 -101q116 0 193 16q81 17 177 69l44 -157q-55 -30 -166 -56q-116 -26 -248 -26q-233 0 -364 149q-130 148 -130 392zM307 659h490v16q0 119 -58 195 q-59 77 -179 77q-103 0 -171 -80q-67 -79 -82 -203v-5z" />
<glyph unicode="f" horiz-adv-x="674" d="M56 936v146h169v137q0 173 90 267.5t253 94.5q60 0 124 -6v-161q-49 6 -100 6q-170 0 -170 -201v-137h196v-146h-196v-936h-197v936h-169z" />
<glyph unicode="g" horiz-adv-x="1143" d="M77 -99q0 87 51.5 132t145.5 45q-83 16 -113 49t-30 118q0 65 41.5 107t119.5 43q-110 47 -160 122.5t-55 195.5q1 100 37 175t101 118.5t146.5 64.5t181.5 21q107 0 182 -16l348 4v-154l-159 5q83 -69 83 -218q-1 -123 -62 -210t-160.5 -128t-229.5 -41q-40 0 -64 -0.5 t-57.5 -3t-53 -8.5t-39 -15.5t-28.5 -25t-9 -36.5q0 -58 52.5 -73.5t232.5 -15.5q153 0 245 -12t148.5 -45t76 -83.5t19.5 -134.5q0 -74 -42 -129t-115.5 -86t-161 -46t-188.5 -15q-255 0 -369.5 68t-114.5 228zM265 -103q0 -72 64 -102t236 -30q321 0 321 122q0 34 -8 51.5 t-39.5 33.5t-95 21.5t-172.5 5.5q-172 0 -239 -21.5t-67 -80.5zM267 713q4 -227 278 -227q130 0 196 54.5t66 172.5q0 223 -264 223q-276 0 -276 -223z" />
<glyph unicode="h" d="M143 0v1560h197v-583q52 48 135 86q84 39 183 39q177 0 271.5 -106t94.5 -318v-678h-197v680q0 262 -229 262q-88 0 -153 -35t-105 -60v-847h-197z" />
<glyph unicode="i" horiz-adv-x="516" d="M159 0v1082h197v-1082h-197zM159 1324v236h197v-236h-197z" />
<glyph unicode="j" horiz-adv-x="530" d="M-58 -277q27 1 89 1q142 0 142 187v1171h197v-1171q0 -166 -86 -257q-84 -90 -236 -90h-3q-81 0 -103 2v157zM173 1324v236h197v-236h-197z" />
<glyph unicode="k" horiz-adv-x="1050" d="M144 0v1560h197v-916l99 12l325 426h231v-13l-388 -486l421 -566v-17h-227l-360 499l-101 13v-512h-197z" />
<glyph unicode="l" horiz-adv-x="516" d="M159 0v1560h197v-1560h-197z" />
<glyph unicode="m" horiz-adv-x="1790" d="M143 0v1082h168l19 -120q54 54 137 97q82 43 190 43q107 0 185 -50t112 -138q132 188 336 188q168 0 262.5 -115.5t94.5 -339.5v-647h-197v649q0 161 -55 226q-55 67 -164 67q-93 0 -151 -57q-46 -45 -86 -89v-109v-687h-198v649q0 293 -219 293q-90 0 -148 -37 q-56 -36 -89 -69v-836h-197z" />
<glyph unicode="n" d="M143 0v1082h176l11 -138q58 64 138 110q82 48 186 48q178 0 272.5 -104.5t94.5 -314.5v-683h-197v679q0 141 -55.5 202t-173.5 61q-91 0 -155 -37q-61 -35 -100 -80v-825h-197z" />
<glyph unicode="o" d="M97 529v22q0 241 130 395q131 156 353 156q224 0 355 -155t131 -396v-22q0 -242 -130 -396t-354 -154q-225 0 -355 154t-130 396zM294 529q0 -171 72 -284q73 -112 216 -112q141 0 214 112t73 284v22q0 170 -74 283t-215 113q-140 0 -214 -113q-72 -112 -72 -283v-22z " />
<glyph unicode="p" d="M143 -416v1498h151l23 -116q64 56 140 95q80 41 184 41q201 0 312 -160q112 -158 112 -421v-21q0 -235 -112 -378q-113 -143 -309 -143q-100 0 -176 33q-82 38 -128 64v-492h-197zM340 231q44 -28 103 -60q64 -34 141 -34h13q130 0 199 98q72 104 72 265v21 q0 184 -73 302q-72 119 -213 119q-85 0 -145 -39q-55 -34 -97 -68v-604z" />
<glyph unicode="q" d="M98 500v21q0 261 111 421q112 160 313 160q175 0 303 -131l26 111h151v-1498h-197v492q-53 -34 -123 -66q-69 -31 -162 -31q-197 0 -310 143q-112 143 -112 378zM295 500q0 -165 67 -266q68 -101 208 -101q81 0 138 36q54 33 97 68v601q-41 41 -97 74q-58 35 -136 35 q-142 0 -209 -120q-68 -119 -68 -306v-21z" />
<glyph unicode="r" horiz-adv-x="717" d="M143 0v1082h176l13 -132q54 60 119 105q68 47 156 47q38 0 75 -11l-27 -183q-31 1 -59 1q-97 0 -150 -16q-70 -22 -106 -42v-851h-197z" />
<glyph unicode="s" horiz-adv-x="1071" d="M126 79l53 154q89 -51 170.5 -75t198.5 -24q104 0 164 42.5t60 114.5q0 34 -15 61.5t-36.5 45t-56.5 32.5t-62.5 22.5t-66.5 16.5q-202 44 -299 115t-97 198q0 79 34 141.5t91.5 100.5t128.5 58t150 20q119 0 218.5 -25t157.5 -72l-67 -143q-121 85 -309 85 q-102 0 -154.5 -41.5t-52.5 -117.5q0 -31 15 -56.5t36 -42t54.5 -30t60 -20.5t62.5 -14q203 -43 304 -120.5t101 -199.5q0 -86 -34.5 -150.5t-94.5 -102t-133 -55.5t-159 -18q-118 0 -236 27t-186 73z" />
<glyph unicode="t" horiz-adv-x="660" d="M158 279v1014l197 50v-261h205v-146h-205v-657q0 -138 115 -138q35 0 73 14l27 -135q-22 -18 -65 -29.5t-85 -11.5q-124 0 -193 74.5t-69 225.5z" />
<glyph unicode="u" d="M139 444v638h197v-640q0 -174 51 -238q51 -65 159 -65q105 0 167 44q66 46 110 81v818h197v-1082h-162l-25 135q-48 -48 -132 -103q-83 -53 -187 -53q-181 0 -278 115.5t-97 349.5z" />
<glyph unicode="v" horiz-adv-x="1030" d="M46 1082h202l256 -763l17 -76h6l19 76l249 763h201l-398 -1082h-149z" />
<glyph unicode="w" horiz-adv-x="1550" d="M41 1082h204l170 -688l25 -130h7l26 67l222 535h148l220 -535l29 -83h5l33 146l160 688h206l-314 -1082h-155l-259 626h-6l-252 -626h-156z" />
<glyph unicode="x" horiz-adv-x="1030" d="M46 0l361 547l-351 535h227l227 -399l230 399h230l-351 -535l361 -547h-226l-240 409l-240 -409h-228z" />
<glyph unicode="y" horiz-adv-x="1030" d="M26 1082h220l228 -681l35 -136h6l266 817h219l-455 -1248q-40 -107 -118 -190q-77 -81 -206 -81q-23 0 -61 6q-28 3 -57 10l20 155l25 -1h1h1h1l1 -1h1h1h1h1h1h1q42 -3 53 -3q62 0 103 56q39 53 67 124l47 113z" />
<glyph unicode="z" horiz-adv-x="1030" d="M94 0v138l585 788h-578v156h819v-134l-591 -794h625v-154h-860z" />
<glyph unicode="{" horiz-adv-x="696" d="M63 543v147q104 0 156.5 60.5t52.5 175.5v206q0 172 82 290q82 120 277 175l40 -117q-202 -65 -202 -348v-206q0 -106 -43 -185.5t-127 -124.5q84 -45 127 -125.5t43 -184.5v-205q0 -281 202 -347l-40 -118q-195 55 -277 175q-82 119 -82 290v205q0 114 -52.5 175.5 t-156.5 61.5z" />
<glyph unicode="|" horiz-adv-x="507" d="M145 -270v1726h197v-1726h-197z" />
<glyph unicode="}" horiz-adv-x="696" d="M21 -246q203 67 203 347v205q0 226 184 310q-184 81 -184 310v206q0 282 -203 348l41 117q194 -56 276 -175q83 -119 83 -290v-206q0 -236 209 -236v-147q-209 0 -209 -237v-205q0 -169 -83 -290q-82 -119 -276 -175z" />
<glyph unicode="~" horiz-adv-x="1391" d="M128 474q0 137 85 232q85 97 218 97q85 0 160 -33.5t163 -105.5q110 -97 206 -97q66 0 114 57q49 56 49 134l141 -18q0 -138 -87 -238q-87 -101 -217 -101q-90 0 -164 33q-70 32 -158 107q-118 96 -207 96q-67 0 -115 -53q-47 -53 -47 -128z" />
<glyph unicode="&#xa1;" horiz-adv-x="507" d="M144 -374v978h197v-978h-197zM144 876v206h197v-206h-197z" />
<glyph unicode="&#xa2;" horiz-adv-x="1122" d="M107 516v42q0 214 105.5 354t297.5 176v230h199v-224q87 -9 163 -36.5t118 -71.5l-62 -152q-54 54 -136 81.5t-159 27.5q-155 0 -241 -106t-87 -279v-42q1 -165 86.5 -272.5t241.5 -107.5q78 0 159 24t134 72l62 -149q-86 -84 -279 -104v-224h-199v230 q-190 34 -296.5 170.5t-106.5 360.5z" />
<glyph unicode="&#xa3;" horiz-adv-x="1194" d="M70 615v155h158l-10 270q-5 195 108 316t304 121q124 0 218.5 -34.5t153.5 -91.5l-74 -151q-47 54 -127.5 88t-170.5 34q-100 0 -157.5 -75t-57.5 -207l9 -270h419v-155h-413l6 -149q0 -190 -60 -312h735l-1 -154h-976v154h10q88 46 96 312l-7 149h-163z" />
<glyph unicode="&#xa4;" horiz-adv-x="1456" d="M104 112l138 140q-103 155 -103 356q0 208 111 368l-146 149l139 139l143 -146q157 116 348 116q193 0 350 -118l146 149l140 -140l-150 -153q109 -164 109 -364q0 -194 -101 -353l142 -143l-140 -139l-133 135q-159 -128 -363 -128q-205 0 -361 126l-130 -132zM321 608 q0 -188 120 -321q121 -132 293 -132q170 0 290 132q121 133 121 321q0 187 -121 318q-120 132 -290 132q-172 0 -293 -132q-120 -132 -120 -318z" />
<glyph unicode="&#xa5;" horiz-adv-x="1243" d="M30 1456h226l359 -663l360 663h224l-418 -718h312v-123h-383v-167h383v-122h-383v-326h-197v326h-375v122h375v167h-375v123h311z" />
<glyph unicode="&#xa6;" horiz-adv-x="499" d="M145 -270v792h197v-792h-197zM145 698v758h197v-758h-197z" />
<glyph unicode="&#xa7;" horiz-adv-x="1259" d="M109 551q0 91 47 161.5t134 111.5q-136 99 -136 286q0 94 42 166.5t113 115t156.5 64t180.5 21.5q113 0 239.5 -43t193.5 -101l-83 -158q-46 57 -160 102t-190 45q-59 0 -110 -11.5t-93.5 -35.5t-67 -65.5t-24.5 -97.5q0 -23 5 -43.5t11 -36.5t21 -31.5t26 -26t35 -23.5 t38.5 -20t46.5 -19t48.5 -18t55.5 -19t58 -19q190 -65 256 -98q141 -71 186 -181q25 -63 25 -146q0 -93 -48 -163.5t-135 -110.5q71 -52 105 -120.5t34 -164.5t-41 -168.5t-111.5 -115t-155.5 -63t-183 -20.5q-87 0 -160.5 12.5t-132 37t-96.5 45.5t-85 53l97 156 q59 -62 179.5 -105.5t197.5 -43.5q56 0 106.5 12t93.5 36.5t68.5 66t25.5 95.5q0 39 -9.5 70t-30 53t-42 38t-58 30t-63 22t-72.5 20.5t-73 21.5q-68 19 -109 31.5t-96.5 34t-88 42t-69.5 52.5t-56.5 68.5t-32.5 87t-13 110.5zM305 553q0 -44 18 -80.5t46 -61.5t76.5 -48 t93.5 -38t113 -34q145 -45 163 -51q72 20 111.5 69.5t39.5 118.5q0 30 -8.5 56t-20.5 45t-36 37.5t-42.5 30t-54.5 26.5t-57 22.5t-65 22t-64 21.5q-106 27 -166 52q-72 -18 -109.5 -68t-37.5 -120z" />
<glyph unicode="&#xa8;" horiz-adv-x="1021" d="M170 1256v200h219v-200h-219zM640 1256v200h219v-200h-219z" />
<glyph unicode="&#xa9;" horiz-adv-x="1604" d="M88 729q0 315 207 531t503 216q295 0 502 -216t207 -531q0 -316 -208 -533q-207 -217 -501 -217q-296 0 -503 217q-207 218 -207 533zM209 729q0 -265 171 -447q173 -182 418 -182q244 0 417 182q172 181 172 447q0 263 -172 444t-417 181q-246 0 -418 -181 q-171 -181 -171 -444zM401 711v33q0 165 82 273.5t230 136.5q9 2 23 3.5t56.5 4t74.5 -2.5q153 -16 218 -84l-48 -118q-41 42 -105 63.5t-123 21.5q-120 0 -187 -82t-68 -216v-33q1 -128 67 -211.5t188 -83.5q60 0 122.5 19t103.5 56l49 -115q-67 -67 -217 -81 q-40 -4 -74 -3.5t-57 4.5l-23 3q-148 26 -230 132t-82 280z" />
<glyph unicode="&#xaa;" horiz-adv-x="917" d="M167 923q0 109 82.5 170.5t237.5 56.5q38 -2 74.5 -10t54.5 -16l17 -7v106q0 74 -38 105.5t-114 31.5q-115 0 -235 -38l-23 106q122 42 265 42q134 0 208.5 -59t71.5 -190v-357q0 -26 0.5 -74t0.5 -75h-113q-4 22 -11 50.5t-10 47.5q-45 -49 -106.5 -81t-123.5 -32 q-114 0 -176 59t-62 164zM303 924q0 -53 31 -82t90 -29q47 0 107.5 24t101.5 52v137q-56 27 -151 27q-80 0 -129.5 -31t-49.5 -98z" />
<glyph unicode="&#xab;" horiz-adv-x="966" d="M97 506v19l295 389h148l-255 -399l255 -398h-148zM432 506v19l295 389h148l-255 -399l255 -398h-148z" />
<glyph unicode="&#xac;" horiz-adv-x="1137" d="M127 637v165h835v-427h-198v262h-637z" />
<glyph unicode="&#xad;" horiz-adv-x="923" d="M167 538v154h590v-154h-590z" />
<glyph unicode="&#xae;" horiz-adv-x="1604" d="M88 729q0 315 207 531t503 216q295 0 502 -216t207 -531q0 -316 -208 -533q-207 -217 -501 -217q-296 0 -503 217q-207 218 -207 533zM209 729q0 -267 171 -448q172 -181 418 -181q243 0 416 182q172 181 172 447q0 265 -172 444q-171 181 -416 181q-246 0 -418 -181 q-171 -180 -171 -444zM514 316v850h280q154 0 239.5 -66t85.5 -191q0 -68 -40.5 -129t-119.5 -90l165 -333v-41h-145l-157 338h-159v-338h-149zM663 784h152q66 2 110 32q46 31 46 88q0 73 -39.5 102.5t-137.5 29.5h-131v-252z" />
<glyph unicode="&#xaf;" horiz-adv-x="950" d="M123 1310v146h721v-146h-721z" />
<glyph unicode="&#xb0;" horiz-adv-x="763" d="M128 1216q0 107 76 183q76 78 181 78q103 0 177 -78q75 -77 75 -183q0 -107 -74 -183q-74 -74 -178 -74q-105 0 -182 74q-75 75 -75 183zM259 1216q0 -55 36 -91q37 -36 90 -36q52 0 87.5 36.5t35.5 90.5t-36 92t-87 38q-52 0 -90 -38q-36 -38 -36 -92z" />
<glyph unicode="&#xb1;" horiz-adv-x="1097" d="M99 702v154h381v411h177v-411h358v-154h-358v-413h-177v413h-381zM136 4v155h835v-155h-835z" />
<glyph unicode="&#xb2;" horiz-adv-x="765" d="M102 1405q97 72 235 72t210 -58.5t72 -172.5q0 -28 -7.5 -56t-15.5 -47t-29.5 -49.5t-32 -43.5t-42.5 -50.5t-42 -49.5l-132 -156l1 -3h326v-123h-535v105l247 279q3 4 9 11q33 40 48.5 61t30 55t14.5 66q0 50 -32 77.5t-90 27.5q-108 0 -172 -70z" />
<glyph unicode="&#xb3;" horiz-adv-x="734" d="M102 1415q34 29 106 45.5t140 16.5q136 0 215.5 -60t79.5 -169q0 -55 -32 -102t-87 -73q131 -50 131 -190q0 -76 -46 -132t-114 -81t-147 -25q-62 0 -134.5 16t-110.5 44l48 125q24 -22 74.5 -41.5t122.5 -19.5q56 0 101 32.5t45 83.5q0 62 -38 93.5t-102 31.5h-85v122 h85q58 0 92.5 30.5t34.5 83.5q0 47 -40.5 76.5t-92.5 29.5q-22 0 -42 -2t-34.5 -4.5t-29.5 -7.5t-24 -8.5t-20 -10t-15.5 -9t-13.5 -9.5t-11 -8z" />
<glyph unicode="&#xb4;" horiz-adv-x="654" d="M131 1252l185 266h230l2 -6l-269 -260h-148z" />
<glyph unicode="&#xb5;" d="M153 -416v1498h196v-642q1 -178 57 -243q55 -64 156 -64q185 0 251 142v807h197v-1082h-177l-9 108q-91 -129 -254 -129q-144 0 -221 68v-463h-196z" />
<glyph unicode="&#xb6;" horiz-adv-x="1006" d="M63 988q0 206 129 337q131 131 363 131h281v-1456h-197v520h-84q-233 0 -363 129q-129 131 -129 339z" />
<glyph unicode="&#xb7;" horiz-adv-x="540" d="M161 624v212h198v-212h-198z" />
<glyph unicode="&#xb8;" horiz-adv-x="509" d="M119 -326q74 0 117 25t43 73q0 47 -35 66.5t-124 26.5l32 135h140l-12 -52q151 -26 151 -173q0 -97 -80 -153.5t-225 -56.5z" />
<glyph unicode="&#xb9;" horiz-adv-x="557" d="M95 1320v134l301 23v-812h-174v655h-127z" />
<glyph unicode="&#xba;" horiz-adv-x="933" d="M120 1025v117q0 148 94 241q94 94 251 94q158 0 252 -94q94 -93 94 -241v-117q0 -149 -94 -242q-94 -92 -250 -92q-158 0 -253 92q-94 93 -94 242zM293 1025q0 -90 44.5 -141.5t129.5 -51.5q82 0 127 52t45 141v117q0 86 -46 138.5t-128 52.5t-127 -52.5t-45 -138.5v-117 z" />
<glyph unicode="&#xbb;" horiz-adv-x="966" d="M116 170l231 380l-231 380h148l278 -357h5l1 -9l5 -5l-2 -9l2 -9l-5 -6l-1 -7h-4l-279 -358h-148zM462 170l231 380l-231 380h148l278 -357h5l1 -9l5 -5l-2 -9l2 -9l-5 -6l-1 -7h-4l-279 -358h-148z" />
<glyph unicode="&#xbf;" horiz-adv-x="1013" d="M114 -12q0 68 19.5 130t60 120.5t78 101t99.5 103.5q52 52 66 96q11 47 11 135h197q-2 -148 -25 -202q-26 -58 -126 -148q-17 -19 -49 -53.5t-46 -50.5t-35 -45.5t-30 -52.5t-16 -56.5t-7 -72.5q0 -106 56.5 -163t161.5 -57q54 0 139.5 29.5t128.5 74.5l82 -152 q-60 -50 -158 -84t-192 -34q-119 0 -211 40.5t-148 128t-56 212.5zM441 874v209h206v-209h-206z" />
<glyph unicode="&#xc0;" horiz-adv-x="1295" d="M43 0l525 1456h169l514 -1456h-201l-128 375h-548l-130 -375h-201zM323 1861l3 6h230l175 -266h-158zM431 540h435l-212 625h-6z" />
<glyph unicode="&#xc1;" horiz-adv-x="1295" d="M43 0l525 1456h169l514 -1456h-201l-128 375h-548l-130 -375h-201zM431 540h435l-212 625h-6zM558 1597l185 266h230l2 -6l-269 -260h-148z" />
<glyph unicode="&#xc2;" horiz-adv-x="1295" d="M43 0l525 1456h169l514 -1456h-201l-128 375h-548l-130 -375h-201zM342 1601v26l246 237h120l248 -238v-25h-161l-147 148l-146 -148h-160zM431 540h435l-212 625h-6z" />
<glyph unicode="&#xc3;" horiz-adv-x="1295" d="M43 0l525 1456h169l514 -1456h-201l-128 375h-548l-130 -375h-201zM301 1628q0 93 59 161q58 69 150 69q55 0 140 -47t136 -47q42 0 71.5 32.5t29.5 79.5l108 -32q0 -94 -60 -159q-59 -65 -149 -65q-72 0 -148 46q-77 47 -128 47q-42 0 -71.5 -32.5t-29.5 -78.5zM431 540 h435l-212 625h-6z" />
<glyph unicode="&#xc4;" horiz-adv-x="1295" d="M43 0l525 1456h169l514 -1456h-201l-128 375h-548l-130 -375h-201zM304 1605v200h219v-200h-219zM431 540h435l-212 625h-6zM774 1605v200h219v-200h-219z" />
<glyph unicode="&#xc5;" horiz-adv-x="1295" d="M43 0l525 1456h169l514 -1456h-201l-128 375h-548l-130 -375h-201zM431 540h435l-212 625h-6zM471 1734q0 72 51 120q52 49 125 49t122 -49q51 -48 51 -120t-51 -119q-49 -45 -122 -45q-75 0 -125 46q-51 46 -51 118zM571 1734q0 -31 22.5 -52.5t53.5 -21.5q30 0 51.5 21 t21.5 53t-21.5 54.5t-51.5 22.5q-32 0 -54 -22.5t-22 -54.5z" />
<glyph unicode="&#xc6;" horiz-adv-x="1999" d="M14 0l881 1456h967v-155h-691l20 -466h590v-155h-584l22 -526h705v-154h-895l-15 350h-557l-201 -350h-242zM560 529h447l-31 710l-5 2z" />
<glyph unicode="&#xc7;" horiz-adv-x="1297" d="M118 598v259q0 304 157 462t421 158q280 0 450 -132l-112 -130q-55 44 -155.5 75.5t-182.5 31.5q-188 0 -284.5 -117t-96.5 -346v-261q0 -213 100.5 -339t280.5 -126q104 0 204 34t152 88l97 -138q-71 -66 -197.5 -102t-255.5 -36q-261 0 -419.5 161.5t-158.5 457.5z M581 -335l7 -109q145 0 225 56.5t80 153.5q0 147 -151 173l12 52h-140l-32 -135q89 -7 124 -26.5t35 -66.5q0 -48 -43 -73t-117 -25z" />
<glyph unicode="&#xc8;" horiz-adv-x="1130" d="M170 0v1456h855v-155h-658v-471h598v-155h-598v-521h669v-154h-866zM294 1861l3 6h230l175 -266h-158z" />
<glyph unicode="&#xc9;" horiz-adv-x="1130" d="M170 0v1456h855v-155h-658v-471h598v-155h-598v-521h669v-154h-866zM529 1597l185 266h230l2 -6l-269 -260h-148z" />
<glyph unicode="&#xca;" horiz-adv-x="1130" d="M170 0v1456h855v-155h-658v-471h598v-155h-598v-521h669v-154h-866zM313 1601v26l246 237h120l248 -238v-25h-161l-147 148l-146 -148h-160z" />
<glyph unicode="&#xcb;" horiz-adv-x="1130" d="M170 0v1456h855v-155h-658v-471h598v-155h-598v-521h669v-154h-866zM275 1605v200h219v-200h-219zM745 1605v200h219v-200h-219z" />
<glyph unicode="&#xcc;" horiz-adv-x="579" d="M-35 1861l3 6h230l175 -266h-158zM190 0v1456h198v-1456h-198z" />
<glyph unicode="&#xcd;" horiz-adv-x="579" d="M190 0v1456h198v-1456h-198zM199 1597l185 266h230l2 -6l-269 -260h-148z" />
<glyph unicode="&#xce;" horiz-adv-x="579" d="M-16 1601v26l246 237h120l248 -238v-25h-161l-147 148l-146 -148h-160zM190 0v1456h198v-1456h-198z" />
<glyph unicode="&#xcf;" horiz-adv-x="579" d="M-54 1605v200h219v-200h-219zM190 0v1456h198v-1456h-198zM416 1605v200h219v-200h-219z" />
<glyph unicode="&#xd0;" horiz-adv-x="1387" d="M2 663v155h168v638h458q285 0 458 -176q174 -176 174 -453v-199q0 -278 -174 -454q-172 -174 -458 -174h-458v663h-168zM367 154h261q203 0 318 133q117 133 117 341v201q0 205 -117 339q-115 133 -318 133h-261v-483h276v-155h-276v-509z" />
<glyph unicode="&#xd1;" horiz-adv-x="1442" d="M170 0v1456h197l701 -1111l6 2v1109h197v-1456h-197l-701 1112l-6 -2v-1110h-197zM372 1628q0 93 59 161q59 69 150 69q55 0 140 -47t136 -47q42 0 71.5 32.5t29.5 79.5l108 -32q0 -94 -60 -159q-59 -65 -149 -65q-72 0 -148 46q-77 47 -128 47q-42 0 -71.5 -32.5 t-29.5 -78.5z" />
<glyph unicode="&#xd2;" horiz-adv-x="1396" d="M113 598v259q0 323 149 472q149 148 425 148q286 0 440 -148q155 -149 155 -472v-259q0 -312 -151.5 -465.5t-443.5 -153.5q-270 0 -422 151q-152 152 -152 468zM310 598q0 -244 102 -351q104 -107 275 -107q183 0 290 107q108 107 108 351v261q0 261 -108 358 q-109 98 -290 95q-171 3 -275 -95q-102 -97 -102 -358v-261zM373 1882l3 6h230l175 -266h-158z" />
<glyph unicode="&#xd3;" horiz-adv-x="1396" d="M113 598v259q0 323 149 472q149 148 425 148q286 0 440 -148q155 -149 155 -472v-259q0 -312 -151.5 -465.5t-443.5 -153.5q-270 0 -422 151q-152 152 -152 468zM310 598q0 -244 102 -351q104 -107 275 -107q183 0 290 107q108 107 108 351v261q0 261 -108 358 q-109 98 -290 95q-171 3 -275 -95q-102 -97 -102 -358v-261zM608 1618l185 266h230l2 -6l-269 -260h-148z" />
<glyph unicode="&#xd4;" horiz-adv-x="1396" d="M113 598v259q0 323 149 472q149 148 425 148q286 0 440 -148q155 -149 155 -472v-259q0 -312 -151.5 -465.5t-443.5 -153.5q-270 0 -422 151q-152 152 -152 468zM310 598q0 -244 102 -351q104 -107 275 -107q183 0 290 107q108 107 108 351v261q0 261 -108 358 q-109 98 -290 95q-171 3 -275 -95q-102 -97 -102 -358v-261zM392 1622v26l246 237h120l248 -238v-25h-161l-147 148l-146 -148h-160z" />
<glyph unicode="&#xd5;" horiz-adv-x="1396" d="M113 598v259q0 323 149 472q149 148 425 148q286 0 440 -148q155 -149 155 -472v-259q0 -312 -151.5 -465.5t-443.5 -153.5q-270 0 -422 151q-152 152 -152 468zM310 598q0 -244 102 -351q104 -107 275 -107q183 0 290 107q108 107 108 351v261q0 261 -108 358 q-109 98 -290 95q-171 3 -275 -95q-102 -97 -102 -358v-261zM351 1649q0 93 59 161q58 69 150 69q55 0 140 -47t136 -47q42 0 71.5 32.5t29.5 79.5l108 -32q0 -95 -60 -159q-59 -65 -149 -65q-72 0 -148 46q-77 47 -128 47q-42 0 -71.5 -32.5t-29.5 -78.5z" />
<glyph unicode="&#xd6;" horiz-adv-x="1396" d="M113 598v259q0 323 149 472q149 148 425 148q286 0 440 -148q155 -149 155 -472v-259q0 -312 -151.5 -465.5t-443.5 -153.5q-270 0 -422 151q-152 152 -152 468zM310 598q0 -244 102 -351q104 -107 275 -107q183 0 290 107q108 107 108 351v261q0 261 -108 358 q-109 98 -290 95q-171 3 -275 -95q-102 -97 -102 -358v-261zM354 1626v200h219v-200h-219zM824 1626v200h219v-200h-219z" />
<glyph unicode="&#xd7;" horiz-adv-x="1096" d="M88 351l327 334l-327 334l126 126l326 -333l327 333l126 -126l-328 -334l328 -334l-126 -126l-327 332l-326 -332z" />
<glyph unicode="&#xd8;" horiz-adv-x="1396" d="M113 598v259q0 266 159 443q161 177 415 177q92 0 203 -35q107 -34 208 -133q184 -180 184 -452v-259q0 -268 -166 -443q-165 -176 -429 -176q-87 0 -193 34q-105 34 -191 106q-83 71 -137 206q-53 136 -53 273zM310 598q0 -82 18.5 -156t46.5 -112l6 -1l552 901 q-104 85 -246 85q-171 0 -275 -128q-102 -127 -102 -328v-261zM475 208q89 -68 212 -68q184 0 290 127q108 127 108 331v261q0 73 -16 140.5t-40 105.5l-6 1z" />
<glyph unicode="&#xd9;" horiz-adv-x="1386" d="M147 489v967h197v-967q0 -203 95 -280q95 -76 247 -76q160 0 260 76q101 77 101 280v967h197v-967q0 -272 -143 -391t-415 -119t-405 121q-134 122 -134 389zM372 1861l3 6h230l175 -266h-158z" />
<glyph unicode="&#xda;" horiz-adv-x="1386" d="M147 489v967h197v-967q0 -203 95 -280q95 -76 247 -76q160 0 260 76q101 77 101 280v967h197v-967q0 -272 -143 -391t-415 -119t-405 121q-134 122 -134 389zM607 1597l185 266h230l2 -6l-269 -260h-148z" />
<glyph unicode="&#xdb;" horiz-adv-x="1386" d="M147 489v967h197v-967q0 -203 95 -280q95 -76 247 -76q160 0 260 76q101 77 101 280v967h197v-967q0 -272 -143 -391t-415 -119t-405 121q-134 122 -134 389zM391 1601v26l246 237h120l248 -238v-25h-161l-147 148l-146 -148h-160z" />
<glyph unicode="&#xdc;" horiz-adv-x="1386" d="M147 489v967h197v-967q0 -203 95 -280q95 -76 247 -76q160 0 260 76q101 77 101 280v967h197v-967q0 -272 -143 -391t-415 -119t-405 121q-134 122 -134 389zM353 1605v200h219v-200h-219zM823 1605v200h219v-200h-219z" />
<glyph unicode="&#xdd;" horiz-adv-x="1295" d="M40 1456h225l380 -740l380 740h225l-511 -944v-512h-196v527zM556 1596l185 266h230l2 -6l-269 -260h-148z" />
<glyph unicode="&#xde;" horiz-adv-x="1209" d="M163 0v1456h197v-293h269q232 0 362 -118t130 -307q0 -190 -130 -308q-131 -117 -362 -117h-269v-313h-197zM360 467h269q147 0 220 78q74 79 74 191q0 113 -74 193t-220 80h-269v-542z" />
<glyph unicode="&#xdf;" horiz-adv-x="1221" d="M137 0v1082q0 224 117 348q119 125 301 125q161 0 262 -86t101 -253q0 -118 -65 -228q-64 -109 -64 -167q0 -81 173 -224q174 -143 174 -281q0 -166 -105 -252q-103 -85 -282 -85q-85 0 -173 21q-86 19 -125 50l44 159q42 -27 108 -52q65 -24 126 -24q105 0 157.5 46 t52.5 127q0 84 -174 227q-173 144 -173 290q0 81 70 190q71 112 71 187q0 93 -51 147t-117 54q-103 0 -168 -84q-64 -82 -64 -235v-1082h-196z" />
<glyph unicode="&#xe0;" horiz-adv-x="1126" d="M104 303q0 160 120.5 249.5t346.5 81.5q55 -2 108.5 -14t79.5 -23l26 -11v155q0 109 -55.5 154.5t-166.5 45.5q-171 0 -343 -55l-34 155q179 61 387 61q95 0 168 -19.5t129 -61t85 -113t27 -169.5v-522q0 -38 0.5 -108t0.5 -109h-165q-5 29 -15 70.5t-15 72.5 q-66 -72 -155.5 -118.5t-181.5 -46.5q-167 0 -257 85.5t-90 239.5zM230 1539l3 6h230l175 -266h-158zM302 305q0 -78 45.5 -120t132.5 -42q68 0 155.5 34.5t149.5 76.5v200q-9 4 -26.5 10.5t-75 17.5t-119.5 11q-116 0 -189 -45.5t-73 -142.5z" />
<glyph unicode="&#xe1;" horiz-adv-x="1126" d="M104 303q0 160 120.5 249.5t346.5 81.5q55 -2 108.5 -14t79.5 -23l26 -11v155q0 109 -55.5 154.5t-166.5 45.5q-171 0 -343 -55l-34 155q179 61 387 61q95 0 168 -19.5t129 -61t85 -113t27 -169.5v-522q0 -38 0.5 -108t0.5 -109h-165q-5 29 -15 70.5t-15 72.5 q-66 -72 -155.5 -118.5t-181.5 -46.5q-167 0 -257 85.5t-90 239.5zM302 305q0 -78 45.5 -120t132.5 -42q68 0 155.5 34.5t149.5 76.5v200q-9 4 -26.5 10.5t-75 17.5t-119.5 11q-116 0 -189 -45.5t-73 -142.5zM465 1275l185 266h230l2 -6l-269 -260h-148z" />
<glyph unicode="&#xe2;" horiz-adv-x="1126" d="M104 303q0 160 120.5 249.5t346.5 81.5q55 -2 108.5 -14t79.5 -23l26 -11v155q0 109 -55.5 154.5t-166.5 45.5q-171 0 -343 -55l-34 155q179 61 387 61q95 0 168 -19.5t129 -61t85 -113t27 -169.5v-522q0 -38 0.5 -108t0.5 -109h-165q-5 29 -15 70.5t-15 72.5 q-66 -72 -155.5 -118.5t-181.5 -46.5q-167 0 -257 85.5t-90 239.5zM249 1279v26l246 237h120l248 -238v-25h-161l-147 148l-146 -148h-160zM302 305q0 -78 45.5 -120t132.5 -42q68 0 155.5 34.5t149.5 76.5v200q-9 4 -26.5 10.5t-75 17.5t-119.5 11q-116 0 -189 -45.5 t-73 -142.5z" />
<glyph unicode="&#xe3;" horiz-adv-x="1126" d="M104 303q0 160 120.5 249.5t346.5 81.5q55 -2 108.5 -14t79.5 -23l26 -11v155q0 109 -55.5 154.5t-166.5 45.5q-171 0 -343 -55l-34 155q179 61 387 61q95 0 168 -19.5t129 -61t85 -113t27 -169.5v-522q0 -38 0.5 -108t0.5 -109h-165q-5 29 -15 70.5t-15 72.5 q-66 -72 -155.5 -118.5t-181.5 -46.5q-167 0 -257 85.5t-90 239.5zM208 1306q0 93 59 161q59 69 150 69q55 0 140 -47t136 -47q42 0 71.5 32.5t29.5 79.5l108 -32q0 -94 -60 -159q-59 -65 -149 -65q-72 0 -148 46q-77 47 -128 47q-42 0 -71.5 -32.5t-29.5 -78.5zM302 305 q0 -78 45.5 -120t132.5 -42q68 0 155.5 34.5t149.5 76.5v200q-9 4 -26.5 10.5t-75 17.5t-119.5 11q-116 0 -189 -45.5t-73 -142.5z" />
<glyph unicode="&#xe4;" horiz-adv-x="1126" d="M104 303q0 160 120.5 249.5t346.5 81.5q55 -2 108.5 -14t79.5 -23l26 -11v155q0 109 -55.5 154.5t-166.5 45.5q-171 0 -343 -55l-34 155q179 61 387 61q95 0 168 -19.5t129 -61t85 -113t27 -169.5v-522q0 -38 0.5 -108t0.5 -109h-165q-5 29 -15 70.5t-15 72.5 q-66 -72 -155.5 -118.5t-181.5 -46.5q-167 0 -257 85.5t-90 239.5zM211 1283v200h219v-200h-219zM302 305q0 -78 45.5 -120t132.5 -42q68 0 155.5 34.5t149.5 76.5v200q-9 4 -26.5 10.5t-75 17.5t-119.5 11q-116 0 -189 -45.5t-73 -142.5zM681 1283v200h219v-200h-219z" />
<glyph unicode="&#xe5;" horiz-adv-x="1126" d="M104 303q0 160 120.5 249.5t346.5 81.5q55 -2 108.5 -14t79.5 -23l26 -11v155q0 109 -55.5 154.5t-166.5 45.5q-171 0 -343 -55l-34 155q179 61 387 61q95 0 168 -19.5t129 -61t85 -113t27 -169.5v-522q0 -38 0.5 -108t0.5 -109h-165q-5 29 -15 70.5t-15 72.5 q-66 -72 -155.5 -118.5t-181.5 -46.5q-167 0 -257 85.5t-90 239.5zM302 305q0 -78 45.5 -120t132.5 -42q68 0 155.5 34.5t149.5 76.5v200q-9 4 -26.5 10.5t-75 17.5t-119.5 11q-116 0 -189 -45.5t-73 -142.5zM378 1412q0 72 51 120q52 49 125 49t122 -49q51 -48 51 -120 t-51 -119q-50 -45 -122 -45q-75 0 -125 46q-51 46 -51 118zM478 1412q0 -31 22.5 -52.5t53.5 -21.5q30 0 51.5 21t21.5 53t-21.5 54.5t-51.5 22.5q-32 0 -54 -22.5t-22 -54.5z" />
<glyph unicode="&#xe6;" horiz-adv-x="1789" d="M85 304q0 158 116 243.5t334 85.5h229v86q0 107 -52.5 167.5t-148.5 60.5q-168 0 -324 -97l-93 132q91 58 204 89t213 31q114 0 201.5 -40.5t137.5 -117.5q64 76 152 117t188 41q220 0 332.5 -125t112.5 -364v-118h-709l-2 -5q0 -160 79.5 -258.5t233.5 -98.5 q96 0 167.5 27t168.5 88l67 -139q-78 -62 -184 -96t-219 -34q-272 0 -410 186q-145 -186 -439 -186q-163 0 -259 83.5t-96 241.5zM282 300q0 -76 51 -121.5t146 -45.5q72 0 158.5 43t126.5 101v214h-227q-102 3 -178.5 -48.5t-76.5 -142.5zM980 645l2 -5h508v31 q-1 127 -63 201.5t-185 74.5q-78 0 -135.5 -43.5t-87.5 -109.5t-39 -149z" />
<glyph unicode="&#xe7;" horiz-adv-x="1072" d="M97 520v42q0 247 139.5 393.5t386.5 146.5q104 0 204.5 -29.5t152.5 -82.5l-109 -133q-40 39 -116.5 64.5t-131.5 25.5q-155 0 -241 -106t-87 -279v-42q1 -165 86.5 -274.5t241.5 -109.5q59 0 133 20.5t116 62.5l106 -132q-52 -51 -152.5 -79.5t-202.5 -28.5 q-245 0 -385.5 141t-140.5 400zM450 -335l7 -109q145 0 225 56.5t80 153.5q0 147 -151 173l12 52h-140l-32 -135q89 -7 124 -26.5t35 -66.5q0 -48 -43 -73t-117 -25z" />
<glyph unicode="&#xe8;" horiz-adv-x="1072" d="M97 520v44q0 264 129 400q129 138 334 138q232 0 333 -135q101 -136 101 -359v-98h-695v-11q0 -163 72 -265q72 -101 220 -101q116 0 193 16q81 17 177 69l44 -157q-55 -30 -166 -56q-116 -26 -248 -26q-233 0 -364 149q-130 148 -130 392zM214 1540l3 6h230l175 -266 h-158zM307 659h490v16q0 119 -58 195q-59 77 -179 77q-103 0 -171 -80q-67 -79 -82 -203v-5z" />
<glyph unicode="&#xe9;" horiz-adv-x="1072" d="M97 520v44q0 264 129 400q129 138 334 138q232 0 333 -135q101 -136 101 -359v-98h-695v-11q0 -163 72 -265q72 -101 220 -101q116 0 193 16q81 17 177 69l44 -157q-55 -30 -166 -56q-116 -26 -248 -26q-233 0 -364 149q-130 148 -130 392zM307 659h490v16q0 119 -58 195 q-59 77 -179 77q-103 0 -171 -80q-67 -79 -82 -203v-5zM449 1276l185 266h230l2 -6l-269 -260h-148z" />
<glyph unicode="&#xea;" horiz-adv-x="1072" d="M97 520v44q0 264 129 400q129 138 334 138q232 0 333 -135q101 -136 101 -359v-98h-695v-11q0 -163 72 -265q72 -101 220 -101q116 0 193 16q81 17 177 69l44 -157q-55 -30 -166 -56q-116 -26 -248 -26q-233 0 -364 149q-130 148 -130 392zM233 1280v26l246 237h120 l248 -238v-25h-161l-147 148l-146 -148h-160zM307 659h490v16q0 119 -58 195q-59 77 -179 77q-103 0 -171 -80q-67 -79 -82 -203v-5z" />
<glyph unicode="&#xeb;" horiz-adv-x="1072" d="M97 520v44q0 264 129 400q129 138 334 138q232 0 333 -135q101 -136 101 -359v-98h-695v-11q0 -163 72 -265q72 -101 220 -101q116 0 193 16q81 17 177 69l44 -157q-55 -30 -166 -56q-116 -26 -248 -26q-233 0 -364 149q-130 148 -130 392zM195 1284v200h219v-200h-219z M307 659h490v16q0 119 -58 195q-59 77 -179 77q-103 0 -171 -80q-67 -79 -82 -203v-5zM665 1284v200h219v-200h-219z" />
<glyph unicode="&#xec;" horiz-adv-x="515" d="M-72 1518l3 6h230l175 -266h-158zM153 0v1082h197v-1082h-197z" />
<glyph unicode="&#xed;" horiz-adv-x="515" d="M153 0v1082h197v-1082h-197zM162 1254l185 266h230l2 -6l-269 -260h-148z" />
<glyph unicode="&#xee;" horiz-adv-x="515" d="M-53 1258v26l246 237h120l248 -238v-25h-161l-147 148l-146 -148h-160zM153 0v1082h197v-1082h-197z" />
<glyph unicode="&#xef;" horiz-adv-x="515" d="M-91 1262v200h219v-200h-219zM153 0v1082h197v-1082h-197zM379 1262v200h219v-200h-219z" />
<glyph unicode="&#xf0;" horiz-adv-x="1202" d="M72 466q0 228 138 370t351 142q88 0 168 -36.5t133 -97.5l4 5q-17 211 -162 351l-290 -165l-77 102l256 146q-70 39 -166 70l60 164q157 -37 286 -131l218 125l77 -102l-195 -112q199 -218 199 -542v-220q0 -245 -144 -401q-144 -155 -359 -155q-218 0 -358 140 q-139 139 -139 347zM269 466q0 -133 82 -233t222 -100q133 0 217 114q85 113 85 288v148q-37 62 -119 101t-195 39q-131 0 -212 -104q-80 -104 -80 -253z" />
<glyph unicode="&#xf1;" d="M143 0v1082h176l11 -138q58 64 138 110q82 48 186 48q178 0 272.5 -104.5t94.5 -314.5v-683h-197v679q0 141 -55.5 202t-173.5 61q-91 0 -155 -37q-61 -35 -100 -80v-825h-197zM231 1306q0 93 59 161q58 69 150 69q55 0 140 -47t136 -47q42 0 71.5 32.5t29.5 79.5 l108 -32q0 -94 -60 -159q-59 -65 -149 -65q-72 0 -148 46q-77 47 -128 47q-42 0 -71.5 -32.5t-29.5 -78.5z" />
<glyph unicode="&#xf2;" d="M97 529v22q0 241 130 395q131 156 353 156q224 0 355 -155t131 -396v-22q0 -242 -130 -396t-354 -154q-225 0 -355 154t-130 396zM257 1539l3 6h230l175 -266h-158zM294 529q0 -171 72 -284q73 -112 216 -112q141 0 214 112t73 284v22q0 170 -74 283t-215 113 q-140 0 -214 -113q-72 -112 -72 -283v-22z" />
<glyph unicode="&#xf3;" d="M97 529v22q0 241 130 395q131 156 353 156q224 0 355 -155t131 -396v-22q0 -242 -130 -396t-354 -154q-225 0 -355 154t-130 396zM294 529q0 -171 72 -284q73 -112 216 -112q141 0 214 112t73 284v22q0 170 -74 283t-215 113q-140 0 -214 -113q-72 -112 -72 -283v-22z M492 1275l185 266h230l2 -6l-269 -260h-148z" />
<glyph unicode="&#xf4;" d="M97 529v22q0 241 130 395q131 156 353 156q224 0 355 -155t131 -396v-22q0 -242 -130 -396t-354 -154q-225 0 -355 154t-130 396zM276 1279v26l246 237h120l248 -238v-25h-161l-147 148l-146 -148h-160zM294 529q0 -171 72 -284q73 -112 216 -112q141 0 214 112t73 284 v22q0 170 -74 283t-215 113q-140 0 -214 -113q-72 -112 -72 -283v-22z" />
<glyph unicode="&#xf5;" d="M97 529v22q0 241 130 395q131 156 353 156q224 0 355 -155t131 -396v-22q0 -242 -130 -396t-354 -154q-225 0 -355 154t-130 396zM235 1306q0 93 59 161q58 69 150 69q55 0 140 -47t136 -47q42 0 71.5 32.5t29.5 79.5l108 -32q0 -94 -60 -159q-59 -65 -149 -65 q-72 0 -148 46q-77 47 -128 47q-42 0 -71.5 -32.5t-29.5 -78.5zM294 529q0 -171 72 -284q73 -112 216 -112q141 0 214 112t73 284v22q0 170 -74 283t-215 113q-140 0 -214 -113q-72 -112 -72 -283v-22z" />
<glyph unicode="&#xf6;" d="M97 529v22q0 241 130 395q131 156 353 156q224 0 355 -155t131 -396v-22q0 -242 -130 -396t-354 -154q-225 0 -355 154t-130 396zM238 1283v200h219v-200h-219zM294 529q0 -171 72 -284q73 -112 216 -112q141 0 214 112t73 284v22q0 170 -74 283t-215 113 q-140 0 -214 -113q-72 -112 -72 -283v-22zM708 1283v200h219v-200h-219z" />
<glyph unicode="&#xf7;" horiz-adv-x="1170" d="M71 597v188h998v-188h-998zM472 180v203h198v-203h-198zM472 999v203h198v-203h-198z" />
<glyph unicode="&#xf8;" d="M97 529v22q0 241 130 395q131 156 353 156q58 0 143 -22q88 -21 168 -89q82 -68 128 -183q47 -117 47 -257v-22q0 -242 -130 -396t-354 -154q-158 0 -271 80q-214 156 -214 470zM294 529q0 -196 81 -290h6l332 674q-63 34 -133 34q-140 0 -214 -113q-72 -112 -72 -283 v-22zM469 156q46 -23 113 -23q141 0 214 112t73 284v22q0 170 -67 268h-6z" />
<glyph unicode="&#xf9;" d="M139 444v638h197v-640q0 -174 51 -238q51 -65 159 -65q105 0 167 44q66 46 110 81v818h197v-1082h-162l-25 135q-48 -48 -132 -103q-83 -53 -187 -53q-181 0 -278 115.5t-97 349.5zM255 1518l3 6h230l175 -266h-158z" />
<glyph unicode="&#xfa;" d="M139 444v638h197v-640q0 -174 51 -238q51 -65 159 -65q105 0 167 44q66 46 110 81v818h197v-1082h-162l-25 135q-48 -48 -132 -103q-83 -53 -187 -53q-181 0 -278 115.5t-97 349.5zM490 1254l185 266h230l2 -6l-269 -260h-148z" />
<glyph unicode="&#xfb;" d="M139 444v638h197v-640q0 -174 51 -238q51 -65 159 -65q105 0 167 44q66 46 110 81v818h197v-1082h-162l-25 135q-48 -48 -132 -103q-83 -53 -187 -53q-181 0 -278 115.5t-97 349.5zM274 1258v26l246 237h120l248 -238v-25h-161l-147 148l-146 -148h-160z" />
<glyph unicode="&#xfc;" d="M139 444v638h197v-640q0 -174 51 -238q51 -65 159 -65q105 0 167 44q66 46 110 81v818h197v-1082h-162l-25 135q-48 -48 -132 -103q-83 -53 -187 -53q-181 0 -278 115.5t-97 349.5zM236 1262v200h219v-200h-219zM706 1262v200h219v-200h-219z" />
<glyph unicode="&#xfd;" horiz-adv-x="1030" d="M26 1082h220l228 -681l35 -136h6l266 817h219l-455 -1248q-40 -107 -118 -190q-77 -81 -206 -81q-23 0 -61 6q-28 3 -57 10l20 155l25 -1h1h1h1l1 -1h1h1h1h1h1h1q42 -3 53 -3q62 0 103 56q39 53 67 124l47 113zM424 1254l185 266h230l2 -6l-269 -260h-148z" />
<glyph unicode="&#xfe;" horiz-adv-x="1186" d="M153 -416v1976h197v-598q109 140 301 140q201 0 312 -160q112 -158 112 -421v-21q0 -235 -112 -378q-113 -143 -309 -143q-197 0 -304 134v-529h-197zM350 275q78 -142 244 -142q140 0 212 102q72 104 72 265v21q0 184 -73 302q-72 119 -213 119q-163 0 -242 -144v-523z " />
<glyph unicode="&#xff;" horiz-adv-x="1030" d="M26 1082h220l228 -681l35 -136h6l266 817h219l-455 -1248q-40 -107 -118 -190q-77 -81 -206 -81q-23 0 -61 6q-28 3 -57 10l20 155l25 -1h1h1h1l1 -1h1h1h1h1h1h1q42 -3 53 -3q62 0 103 56q39 53 67 124l47 113zM170 1262v200h219v-200h-219zM640 1262v200h219v-200h-219 z" />
<glyph unicode="&#x152;" horiz-adv-x="1960" d="M104 576v304q0 265 154 431t404 166q107 0 291 -21h838v-155h-689v-471h598v-155h-598v-521h700v-154h-849q-90 -10 -157 -15q-64 -6 -132 -6q-249 0 -405 166q-155 167 -155 431zM301 576q0 -215 97 -328q98 -114 266 -114q126 0 241 18v1151q-140 19 -243 19 q-169 0 -265 -114q-96 -112 -96 -326v-306z" />
<glyph unicode="&#x153;" horiz-adv-x="1854" d="M97 529v22q0 241 130 395q131 156 353 156q126 0 226.5 -53.5t165.5 -150.5q64 96 160.5 150t207.5 54q217 0 325 -135q109 -134 109 -359v-104h-692l-3 -5q0 -163 72 -265q72 -101 220 -101q190 0 305 107l77 -128q-137 -133 -382 -133q-271 0 -402 198 q-65 -95 -164 -146.5t-223 -51.5q-225 0 -355 154t-130 396zM294 529q0 -171 72 -284q73 -112 216 -112q141 0 214 112t73 284v22q0 170 -74 283t-215 113q-140 0 -214 -113q-72 -112 -72 -283v-22zM1087 664l2 -5h488v16q0 119 -58 195q-59 77 -179 77q-103 0 -171 -80 q-67 -79 -82 -203z" />
<glyph unicode="&#x178;" horiz-adv-x="1295" d="M40 1456h225l380 -740l380 740h225l-511 -944v-512h-196v527zM302 1604v200h219v-200h-219zM772 1604v200h219v-200h-219z" />
<glyph unicode="&#x2c6;" horiz-adv-x="979" d="M171 1252v26l246 237h120l248 -238v-25h-161l-147 148l-146 -148h-160z" />
<glyph unicode="&#x2dc;" horiz-adv-x="979" d="M135 1275q0 93 59 161q58 69 150 69q55 0 140 -47t136 -47q42 0 71.5 32.5t29.5 79.5l108 -32q0 -95 -60 -159q-59 -65 -149 -65q-72 0 -148 46q-77 47 -128 47q-42 0 -71.5 -32.5t-29.5 -78.5z" />
<glyph unicode="&#x2000;" horiz-adv-x="951" />
<glyph unicode="&#x2001;" horiz-adv-x="1903" />
<glyph unicode="&#x2002;" horiz-adv-x="951" />
<glyph unicode="&#x2003;" horiz-adv-x="1903" />
<glyph unicode="&#x2004;" horiz-adv-x="634" />
<glyph unicode="&#x2005;" horiz-adv-x="475" />
<glyph unicode="&#x2006;" horiz-adv-x="317" />
<glyph unicode="&#x2007;" horiz-adv-x="317" />
<glyph unicode="&#x2008;" horiz-adv-x="237" />
<glyph unicode="&#x2009;" horiz-adv-x="380" />
<glyph unicode="&#x200a;" horiz-adv-x="105" />
<glyph unicode="&#x2010;" horiz-adv-x="923" d="M167 538v154h590v-154h-590z" />
<glyph unicode="&#x2011;" horiz-adv-x="923" d="M167 538v154h590v-154h-590z" />
<glyph unicode="&#x2012;" horiz-adv-x="923" d="M167 538v154h590v-154h-590z" />
<glyph unicode="&#x2013;" horiz-adv-x="1416" d="M179 648v155h1086v-155h-1086z" />
<glyph unicode="&#x2014;" horiz-adv-x="1660" d="M188 648v155h1336v-155h-1336z" />
<glyph unicode="&#x2018;" horiz-adv-x="524" d="M145 917v184l101 355h97l-1 -361v-178h-197z" />
<glyph unicode="&#x2019;" horiz-adv-x="516" d="M160 917l1 343v196h197v-193l-101 -346h-97z" />
<glyph unicode="&#x201a;" horiz-adv-x="540" d="M168 -255l1 263v241h197v-223l-101 -281h-97z" />
<glyph unicode="&#x201c;" horiz-adv-x="788" d="M123 917v184l101 355h97l-1 -361v-178h-197zM451 917v184l101 355h97l-1 -361v-178h-197z" />
<glyph unicode="&#x201d;" horiz-adv-x="769" d="M125 917l1 343v196h197v-193l-101 -346h-97zM461 917l1 343v196h197v-193l-101 -346h-97z" />
<glyph unicode="&#x201e;" horiz-adv-x="767" d="M138 -239l1 325v194h197v-184l-101 -335h-97zM446 -239l1 333v186h197v-184l-101 -335h-97z" />
<glyph unicode="&#x2022;" horiz-adv-x="695" d="M137 733v60q0 88 56 144t150 56q95 0 151 -56q57 -55 57 -144v-60q0 -90 -56 -144t-151 -54q-96 0 -151 55q-56 56 -56 143z" />
<glyph unicode="&#x2026;" horiz-adv-x="1380" d="M161 0v202h197v-202h-197zM604 0v202h197v-202h-197zM1024 0v202h197v-202h-197z" />
<glyph unicode="&#x202f;" horiz-adv-x="380" />
<glyph unicode="&#x2039;" horiz-adv-x="615" d="M108 541v19l295 389h148l-255 -399l255 -398h-148z" />
<glyph unicode="&#x203a;" horiz-adv-x="615" d="M94 170l231 380l-231 380h148l278 -357h5l1 -9l5 -5l-2 -9l2 -9l-5 -6l-1 -7h-4l-279 -358h-148z" />
<glyph unicode="&#x205f;" horiz-adv-x="475" />
<glyph unicode="&#x20ac;" horiz-adv-x="1088" d="M79 512v124h146v166h-146v125h146v15q0 244 141 389q143 146 373 146q106 0 242 -31l-19 -159q-120 35 -223 35q-147 0 -232 -103t-85 -275v-17h492v-125h-492v-166h492v-124h-485l-2 -5q-4 -169 81 -272q86 -102 233 -102q119 0 221 34l19 -157q-116 -31 -240 -31 q-232 0 -374 144q-142 145 -142 389h-146z" />
<glyph unicode="&#x2122;" horiz-adv-x="1284" d="M103 1374v82h384v-82h-145v-455h-94v455h-145zM565 919v537h116l161 -281h6l162 281h110v-537h-93v367l-6 2l-150 -249h-51l-156 253l-6 -2v-371h-93z" />
<glyph unicode="&#x25fc;" horiz-adv-x="1080" d="M0 0v1080h1080v-1080h-1080z" />
<glyph unicode="&#xfb02;" horiz-adv-x="1190" d="M56 936v146h169v137q0 173 90 267.5t253 94.5q60 0 124 -6v-161q-49 6 -100 6q-170 0 -170 -201v-137h196v-146h-196v-936h-197v936h-169zM833 0v1560h197v-1560h-197z" />
<glyph unicode="&#xfb03;" horiz-adv-x="1814" d="M56 936v146h169v137q0 173 90 267.5t253 94.5q60 0 124 -6v-161q-49 6 -100 6q-170 0 -170 -201v-137h196v-146h-196v-936h-197v936h-169zM702 936v146h170v117q0 182 106 282t296 100q107 0 285 -61l-34 -160q-129 51 -236 51q-116 0 -168 -51.5t-52 -160.5v-117h215 v-146h-215v-936h-197v936h-170zM1457 0v1082h198v-1082h-198z" />
<glyph unicode="&#xfb04;" horiz-adv-x="1864" d="M56 936v146h169v137q0 173 90 267.5t253 94.5q60 0 124 -6v-161q-49 6 -100 6q-170 0 -170 -201v-137h196v-146h-196v-936h-197v936h-169zM730 936v146h169v137q0 173 90 267.5t253 94.5q60 0 124 -6v-161q-50 6 -100 6q-170 0 -170 -201v-137h196v-146h-196v-936h-197 v936h-169zM1507 0v1560h197v-1560h-197z" />
</font>
</defs>
</svg>
