<?xml version="1.0" standalone="no"?>
<!DOCTYPE svg PUBLIC "-//W3C//DTD SVG 1.1//EN" "http://www.w3.org/Graphics/SVG/1.1/DTD/svg11.dtd" >
<svg xmlns="http://www.w3.org/2000/svg" xmlns:xlink="http://www.w3.org/1999/xlink" version="1.1">
<metadata></metadata>
<defs>
<font id="centumaregular" horiz-adv-x="1140" >
<font-face units-per-em="2048" ascent="1536" descent="-512" />
<missing-glyph horiz-adv-x="498" />
<glyph unicode="&#xfb01;" horiz-adv-x="1100" d="M48 984v98h180v138q0 171 95 266t264 95q132 0 276 -59l-20 -103q-130 53 -248 53q-122 0 -184.5 -64.5t-62.5 -187.5v-138h253v-98h-253v-984h-120v984h-180zM808 0v1082h120v-1082h-120z" />
<glyph horiz-adv-x="0" />
<glyph horiz-adv-x="682" />
<glyph horiz-adv-x="0" />
<glyph unicode="&#x9;" horiz-adv-x="0" />
<glyph unicode="&#xd;" horiz-adv-x="498" />
<glyph unicode=" "  horiz-adv-x="498" />
<glyph unicode="&#x09;" horiz-adv-x="498" />
<glyph unicode="&#xa0;" horiz-adv-x="498" />
<glyph unicode="!" horiz-adv-x="462" d="M158 0v167h142v-167h-142zM169 478v978h119v-978h-119z" />
<glyph unicode="&#x22;" horiz-adv-x="666" d="M142 979l25 255v222h120v-216l-73 -261h-72zM381 979l26 258v219h119v-216l-73 -261h-72z" />
<glyph unicode="#" horiz-adv-x="1270" d="M67 410v93h272l83 441h-279v96h297l79 416h100l-79 -416h314l79 416h100l-79 -416h229v-96h-247l-83 -441h255v-93h-273l-77 -410h-100l77 410h-313l-77 -410h-100l77 410h-255zM439 503h314l83 441h-314z" />
<glyph unicode="$" horiz-adv-x="1154" d="M98 89l25 114q108 -59 220 -88t254 -29q70 0 135 16t120 47.5t88 86t33 124.5q0 42 -12 78t-29.5 63t-49.5 51.5t-60 40.5t-74.5 34t-78.5 28.5t-86 26.5q-85 24 -145 45t-127.5 57t-108.5 77t-68 102.5t-27 137.5q0 87 37 158t99.5 117.5t140 73.5t163.5 32v195h102 v-195q115 -7 195.5 -38.5t174.5 -90.5l-32 -106q-39 24 -54 33.5t-62.5 33.5t-82.5 35t-90 21.5t-109 10.5q-70 0 -134 -17t-115.5 -50t-82.5 -87.5t-31 -123.5q0 -40 9 -73t23.5 -57t39.5 -45t48.5 -35t60.5 -29t66.5 -25t74 -25t75.5 -27q53 -16 94.5 -30t92.5 -36 t89.5 -45.5t77 -56.5t63 -69.5t40 -84.5t15.5 -103q0 -70 -25 -130t-68 -102.5t-101 -73.5t-122 -47.5t-133 -21.5v-195h-102v194q-310 10 -446 103z" />
<glyph unicode="%" horiz-adv-x="1514" d="M110 1099v77q0 127 78 214q80 87 207 87t205 -87q79 -86 79 -214v-77q0 -126 -78 -213q-78 -86 -204 -86q-128 0 -208 86q-79 86 -79 213zM206 1099q0 -89 49 -150q50 -62 142 -62q89 0 137 62q49 61 49 150v77q0 89 -49 151q-50 63 -139 63q-91 0 -140 -63 q-49 -62 -49 -151v-77zM352 169l711 1138l74 -48l-711 -1138zM842 279v78q0 126 78 213q80 87 207 87t206 -87q79 -86 79 -213v-78q0 -128 -79 -214q-78 -86 -204 -86q-128 0 -208 86q-79 86 -79 214zM939 279q0 -90 49 -151q50 -62 141 -62q89 0 137 62q49 61 49 151v78 q0 91 -49 152t-139 61q-89 0 -139 -62q-49 -61 -49 -151v-78z" />
<glyph unicode="&#x26;" horiz-adv-x="1260" d="M113 396q0 132 67.5 223.5t193.5 131.5q-105 38 -169.5 128t-64.5 199q0 98 39.5 175.5t107.5 125.5t155.5 73t187.5 25q101 0 199.5 -29t158.5 -83l-45 -95q-52 58 -138.5 81.5t-174.5 23.5q-157 0 -263.5 -76.5t-106.5 -216.5q0 -135 99 -211.5t259 -71.5v-102 q-188 0 -287 -76.5t-99 -228.5q0 -80 34.5 -141.5t93.5 -97.5t131 -54t155 -18q148 0 267 60v658l246 10v-110h-128v-610v-1q-68 -51 -177 -80t-208 -29q-106 0 -199.5 25t-169 74.5t-120 131t-44.5 186.5z" />
<glyph unicode="'" horiz-adv-x="423" d="M142 986l25 266v204h120v-195l-73 -275h-72z" />
<glyph unicode="(" horiz-adv-x="640" d="M140 573v15q0 364 139 651q140 289 310 386l6 -1l26 -73q-145 -103 -253 -366t-108 -594v-20q0 -331 108 -594q109 -264 253 -370l-26 -70h-6q-174 101 -311 382q-138 282 -138 654z" />
<glyph unicode=")" horiz-adv-x="652" d="M18 -393q144 102 252 367q109 264 109 597v20q0 329 -111 595q-109 266 -250 369l26 70h6q169 -97 309 -386q139 -287 139 -651v-15q0 -372 -138 -654t-310 -382h-6z" />
<glyph unicode="*" horiz-adv-x="869" d="M89 782l32 101l272 -92l-8 291l104 -1l-4 -294l264 97l33 -101l-273 -84l172 -230l-85 -62l-163 241l-159 -239l-85 60l172 237z" />
<glyph unicode="+" horiz-adv-x="1156" d="M75 628v112h434v466h121v-466h443v-112h-443v-482h-121v482h-434z" />
<glyph unicode="," horiz-adv-x="392" d="M83 -258l69 279v167h119v-170l-106 -276h-82z" />
<glyph unicode="-" horiz-adv-x="860" d="M130 570v101h590v-101h-590z" />
<glyph unicode="." horiz-adv-x="489" d="M167 0v164h137v-164h-137z" />
<glyph unicode="/" horiz-adv-x="813" d="M30 -125l608 1581h108l-607 -1581h-109z" />
<glyph unicode="0" horiz-adv-x="1135" d="M115 514v428q0 248 121 391q122 144 331 144t331 -144q122 -145 122 -391v-428q0 -250 -121 -392q-120 -143 -330 -143t-332 143q-122 145 -122 392zM234 496q0 -189 87 -303q89 -113 248 -113t245 113t86 303v465q0 191 -87 302q-85 112 -246 112q-160 0 -247 -112 q-86 -113 -86 -302v-465z" />
<glyph unicode="1" horiz-adv-x="754" d="M93 1311v96l465 62v-1469h-120v1353z" />
<glyph unicode="2" horiz-adv-x="1135" d="M153 0v92l479 559q19 25 59 79t56.5 76.5t43.5 65.5t37.5 71t20 67.5t9.5 78.5q0 135 -72.5 210.5t-210.5 75.5q-90 0 -182.5 -28.5t-158.5 -80.5l-58 86q77 61 183 93t216 32q184 0 293.5 -104t109.5 -285q0 -55 -15 -107t-46.5 -106t-60.5 -95t-79 -106.5t-79 -107.5 l-394 -459l2 -6h733v-101h-886z" />
<glyph unicode="3" horiz-adv-x="1135" d="M109 88l51 94q75 -54 176 -78t194 -24q169 0 269.5 76.5t100.5 234.5q0 152 -90.5 228.5t-260.5 76.5h-134v102h134q143 -5 233 71.5t90 211.5q0 144 -86 219t-237 75q-91 0 -183.5 -23.5t-143.5 -81.5l-45 94q60 54 164.5 83.5t207.5 29.5q203 0 323 -101.5t120 -298.5 q0 -109 -64.5 -198.5t-169.5 -128.5q126 -40 193.5 -131.5t67.5 -223.5q0 -105 -37.5 -186t-104.5 -130.5t-154.5 -74.5t-192.5 -25q-104 0 -229.5 29t-191.5 80z" />
<glyph unicode="4" horiz-adv-x="1002" d="M73 368v68l657 1020h129l-644 -987h527l15 301h104v-770h-119v368h-669z" />
<glyph unicode="5" horiz-adv-x="1135" d="M126 79l56 96q154 -95 370 -95q166 0 262 99.5t96 282.5q0 157 -81.5 256t-232.5 99q-194 0 -313 -110l-93 69l70 680h708l-6 -111h-599l-54 -524q115 102 300 108q129 2 226 -60.5t146 -168t49 -236.5q0 -219 -127.5 -352t-350.5 -133q-136 0 -249.5 26t-176.5 74z" />
<glyph unicode="6" horiz-adv-x="1135" d="M155 531v394q0 243 135 397q137 155 336 155q79 0 161 -17q80 -16 208 -69l-34 -104q-124 57 -188 72q-60 16 -147 16q-152 0 -253 -122q-99 -121 -99 -317v-180q60 64 155 114q95 51 210 51q193 0 301 -126t108 -341q0 -213 -122 -344t-319 -131q-196 0 -324 149 t-128 403zM274 522q0 -201 94 -322q94 -120 239 -120q149 0 234 106q87 107 87 268q0 178 -82 273.5t-240 95.5q-118 0 -206 -64q-89 -65 -126 -100v-137z" />
<glyph unicode="7" horiz-adv-x="1135" d="M91 1354v102h947v-102q-244 -286 -369 -573q-123 -287 -123 -637v-144h-120v144q0 345 128 642q129 294 360 568h-823z" />
<glyph unicode="8" horiz-adv-x="1135" d="M100.5 409.5q-2.5 13.5 2.5 41t11 59.5t25 69.5t44 72t69 67.5t100 55q-94 44 -152 128t-58 188q0 127 58 215.5t154.5 130t222.5 41.5q119 0 212 -42.5t150 -132.5t57 -216q0 -50 -18 -99.5t-42 -86t-57.5 -71.5t-56 -53.5t-45.5 -34.5q114 -41 187.5 -134.5 t73.5 -212.5q0 -189 -129.5 -302t-328.5 -113q-97 0 -181.5 25.5t-151 75.5t-105.5 130.5t-41 183.5q2 2 -0.5 15.5zM219 393q0 -144 102 -225.5t259 -87.5q140 0 238.5 85.5t98.5 227.5q0 39 -9 73t-23 60.5t-39 50.5t-48 41t-58.5 34t-63 27.5t-70 22.5t-70 19t-71.5 17 q-11 3 -17 4q-32 -15 -56.5 -29t-59.5 -44t-57.5 -65t-39 -90t-16.5 -121zM260 1091q0 -58 23.5 -104t58.5 -75.5t88.5 -53.5t101 -39t107.5 -31q28 -7 42 -11q54 36 94 81.5t58.5 85t29 73.5t11.5 54l2 20q-2 128 -85 206t-214 78q-65 0 -120.5 -16.5t-100.5 -49.5 t-70.5 -89t-25.5 -129z" />
<glyph unicode="9" horiz-adv-x="1135" d="M94 983q0 213 125 353q125 141 313 141q206 0 333 -135q127 -134 127 -384v-474q0 -237 -132 -371q-131 -134 -342 -134q-78 0 -152 16q-79 17 -231 79l19 103q129 -59 203 -78q75 -19 161 -19q161 0 255 106q95 107 95 296v212q-53 -89 -141 -137t-196 -48 q-198 0 -318 131q-119 133 -119 343zM218 983q0 -160 83 -267q84 -106 230 -106q128 0 214 64q88 65 123 158v139q0 194 -90 299t-241 105q-141 0 -230 -113t-89 -279z" />
<glyph unicode=":" horiz-adv-x="434" d="M167 0v164h137v-164h-137zM167 876v164h137v-164h-137z" />
<glyph unicode=";" horiz-adv-x="438" d="M134 -258l69 279v167h119v-170l-106 -276h-82zM168 876v164h137v-164h-137z" />
<glyph unicode="&#x3c;" horiz-adv-x="1047" d="M77 501v97l827 378v-126l-614 -272l-108 -28v-6l108 -28l614 -268v-126z" />
<glyph unicode="=" horiz-adv-x="1147" d="M149 422v106h834v-106h-834zM149 833v106h834v-106h-834z" />
<glyph unicode="&#x3e;" horiz-adv-x="1061" d="M124 113v124l632 274l108 27v6l-108 29l-632 271v123l845 -378v-97z" />
<glyph unicode="?" horiz-adv-x="930" d="M118 1356q51 56 150 88t190 32q170 0 276 -99.5t106 -273.5q0 -68 -19 -130t-57 -120t-78.5 -105t-100.5 -104q-62 -51 -76 -98q-13 -46 -13 -142h-119q2 132 22 182q20 49 114 137q52 53 79.5 84.5t62 81.5t50 102t15.5 111q0 128 -68 197.5t-194 69.5q-66 0 -144 -25.5 t-113 -68.5zM373 0h139v154h-139v-154z" />
<glyph unicode="@" horiz-adv-x="1870" d="M122 478q18 423 252 683q235 259 610 259q390 0 587 -242q196 -241 180 -665q-11 -216 -117 -375t-313 -159q-78 0 -130.5 51t-69.5 142q-107 -193 -311 -193q-132 0 -199 120q-68 122 -49 317q23 254 141 407q118 154 286 154q94 0 151 -27q57 -26 126 -81l-2 -2h3 l-50 -574q-11 -132 30 -180t95 -48q142 0 224 124q84 126 94 324q18 389 -150 604q-168 216 -530 216q-323 0 -533 -236q-211 -236 -227 -619q-19 -378 163 -612q183 -234 520 -234q90 0 178 22q91 23 152 57l31 -75q-66 -42 -167 -65q-103 -24 -198 -24q-380 0 -588 250 q-209 249 -189 681zM672 416q-16 -154 26 -247q42 -92 138 -92q86 0 156 43q71 44 123 157q0 11 1 16l47 544q-68 49 -158 49q-136 0 -223 -120.5t-110 -349.5z" />
<glyph unicode="A" horiz-adv-x="1256" d="M38 0l535 1456h113l531 -1456h-124l-145 406h-639l-147 -406h-124zM347 513h562l-276 772h-6z" />
<glyph unicode="B" horiz-adv-x="1263" d="M186 0v1456h425q227 0 354 -96q127 -94 127 -287q0 -108 -62 -191q-61 -81 -165 -116q138 -16 225 -120q88 -103 88 -241q0 -195 -127 -300q-126 -105 -338 -105h-527zM306 101h407q162 0 253 79q92 80 92 223q0 131 -91 212q-90 82 -242 87h-16h-403v-601zM306 803h350 q152 3 234 73t82 201q0 137 -91.5 207t-269.5 70h-305v-551z" />
<glyph unicode="C" horiz-adv-x="1274" d="M132 609v237q0 135 37.5 249t108 199.5t181.5 134t251 48.5q144 0 249 -26t196 -86l-71 -92q-142 102 -374 102q-120 0 -209.5 -40.5t-142 -114t-79 -166t-28.5 -206.5v-239q0 -154 49.5 -271t154.5 -187.5t255 -70.5q140 0 236.5 28.5t175.5 111.5l62 -76 q-122 -165 -474 -165q-142 0 -253 47t-181.5 131.5t-107 199t-36.5 252.5z" />
<glyph unicode="D" horiz-adv-x="1378" d="M186 0v1456h444q298 0 457 -168t159 -467v-187q0 -279 -154 -457q-153 -177 -462 -177h-444zM306 101h324q249 0 372 151q124 151 124 382v190q0 228 -124 379q-123 151 -372 151h-324v-1253z" />
<glyph unicode="E" horiz-adv-x="1129" d="M186 0v1456h870v-102h-750v-547h653v-102h-653v-604h755v-101h-875z" />
<glyph unicode="F" horiz-adv-x="1128" d="M186 0v1456h891v-102h-771v-569h669v-103h-669v-682h-120z" />
<glyph unicode="G" horiz-adv-x="1410" d="M147 600v267q-1 16 -1 33q0 118 39 219q44 115 126.5 193t197.5 121.5t249 43.5q122 0 229.5 -32t175.5 -93l-45 -97q-124 120 -360 120q-147 0 -261.5 -62t-176.5 -178q-54 -103 -54 -232q0 -17 1 -34v-269v-19q0 -129 49 -239q54 -117 159.5 -189.5t242.5 -72.5 q270 0 385 153v374h-392v101h511v-512q-78 -109 -210 -163t-294 -54q-168 0 -301.5 83t-204.5 225q-65 133 -65 290v23z" />
<glyph unicode="H" horiz-adv-x="1439" d="M186 0v1456h120v-684h827v684h120v-1456h-120v670h-827v-670h-120z" />
<glyph unicode="I" horiz-adv-x="554" d="M217 0v1456h120v-1456h-120z" />
<glyph unicode="J" horiz-adv-x="1122" d="M123 108l63 93q54 -61 143 -91t186 -30q142 0 223.5 90.5t81.5 251.5v1034h120v-1034q0 -199 -112 -321t-313 -122q-109 0 -221.5 31.5t-170.5 97.5z" />
<glyph unicode="K" horiz-adv-x="1261" d="M186 0v1456h120v-673l156 9l572 664h136v-8l-602 -697l662 -742v-9h-144l-623 691l-157 11v-702h-120z" />
<glyph unicode="L" horiz-adv-x="1128" d="M186 0v1456h120v-1355h752v-101h-872z" />
<glyph unicode="M" horiz-adv-x="1766" d="M186 0v1456h160l540 -1014h6l542 1014h146v-1456h-120v1251l-6 1l-522 -952h-86l-534 960l-6 -1v-1259h-120z" />
<glyph unicode="N" horiz-adv-x="1445" d="M186 0v1456h120l827 -1243l6 1v1242h120v-1456h-120l-827 1246l-6 -1v-1245h-120z" />
<glyph unicode="O" horiz-adv-x="1378" d="M124 609v237q0 310 144 470.5t416 160.5q275 0 422.5 -161t147.5 -470v-237q0 -327 -147 -479q-147 -151 -422 -151q-277 0 -419 151t-142 479zM244 609q0 -290 116 -409q117 -117 325 -117q213 0 331 117q119 119 119 409v239q0 277 -120 400q-118 124 -331 124 q-209 0 -324 -124q-116 -124 -116 -400v-239z" />
<glyph unicode="P" horiz-adv-x="1263" d="M186 0v1456h502q230 0 354 -117q126 -117 126 -308q0 -195 -126 -310q-125 -116 -354 -116h-382v-605h-120zM306 707h382q180 0 270 91q90 92 90 231q0 141 -90 232q-90 93 -270 93h-382v-647z" />
<glyph unicode="Q" horiz-adv-x="1393" d="M124 609v237q0 280 152 456q151 175 408 175q261 0 415 -175q155 -176 155 -456v-237q0 -268 -141 -440l232 -227l-83 -80l-235 225q-141 -108 -342 -108q-256 0 -409 174q-152 175 -152 456zM244 609q0 -237 116 -382q117 -144 325 -144q212 0 331 143q119 145 119 383 v239q0 236 -120 380q-118 144 -331 144q-208 0 -324 -144q-116 -145 -116 -380v-239z" />
<glyph unicode="R" horiz-adv-x="1300" d="M182 0v1456h502q230 0 353 -117q127 -117 127 -308q0 -195 -127 -310q-62 -57 -145 -85l291 -597v-39h-118l-292 610q-47 -5 -89 -5h-382v-605h-120zM302 707h382q180 0 270 91q90 92 90 231q0 141 -90 232q-90 93 -270 93h-382v-647z" />
<glyph unicode="S" horiz-adv-x="1236" d="M132 82l25 115q213 -117 473 -117q56 0 108.5 9.5t101.5 31t86 53t59 78t22 102.5q0 42 -12 78t-29.5 62.5t-50 51t-60 40.5t-74.5 34.5t-79 29t-86 26.5q-59 16 -104 30.5t-97 36t-89.5 44.5t-74.5 54.5t-60 67.5t-37 83.5t-14 102.5q0 74 27.5 137t74 107.5t108.5 76 t131 46.5t142 15q140 0 232.5 -32.5t197.5 -98.5l-33 -106q-43 28 -70.5 43.5t-82 41t-116 38t-128.5 12.5q-95 0 -175.5 -29t-134 -93.5t-53.5 -155.5q0 -40 9 -73t23 -57t39.5 -45t49 -35t60.5 -29t66 -25t73.5 -25t75.5 -27q53 -16 94.5 -30t92.5 -36.5t89.5 -45.5 t77 -56t63 -70t40 -85t15.5 -102q0 -94 -43.5 -168t-115.5 -118.5t-159 -67.5t-180 -23q-157 0 -291 26.5t-207 76.5z" />
<glyph unicode="T" horiz-adv-x="1224" d="M48 1354v102h1128v-102h-496v-1354h-119v1354h-513z" />
<glyph unicode="U" horiz-adv-x="1374" d="M167 489v967h120v-967q0 -188 111 -299q113 -110 286 -110q177 0 292 110q114 109 114 299v967h119v-967q0 -240 -147 -375t-378 -135q-228 0 -373 135q-144 136 -144 375z" />
<glyph unicode="V" horiz-adv-x="1256" d="M29 1456h130l437 -1201l29 -102h6l29 102l438 1201h129l-542 -1456h-114z" />
<glyph unicode="W" horiz-adv-x="1813" d="M50 1456h130l260 -1038l45 -235h6l355 1010h121l354 -1011h6l48 236l257 1038h130l-373 -1456h-114l-363 1033h-10l-365 -1033h-114z" />
<glyph unicode="X" horiz-adv-x="1256" d="M59 0l500 738l-485 718h145l409 -622l411 622h145l-484 -718l500 -738h-143l-427 642l-426 -642h-145z" />
<glyph unicode="Y" horiz-adv-x="1256" d="M38 1456h139l448 -809l451 809h139l-531 -924v-532h-119v537z" />
<glyph unicode="Z" horiz-adv-x="1224" d="M95 0v92l858 1262h-831v102h977v-87l-861 -1268h893v-101h-1036z" />
<glyph unicode="[" horiz-adv-x="491" d="M163 -312v1976h330v-102h-210v-1772h210v-102h-330z" />
<glyph unicode="\" horiz-adv-x="807" d="M48 1456h117l608 -1581h-117z" />
<glyph unicode="]" horiz-adv-x="491" d="M0 -210h211v1772h-211v102h331v-1976h-331v102z" />
<glyph unicode="^" horiz-adv-x="852" d="M77 729l299 727h90l298 -727h-116l-196 484l-30 106h-6l-30 -106l-193 -484h-116z" />
<glyph unicode="_" horiz-adv-x="884" d="M1 0h881v-101h-881v101z" />
<glyph unicode="`" horiz-adv-x="585" d="M93 1513l2 5h154l202 -266h-117z" />
<glyph unicode="a" horiz-adv-x="1101" d="M98 292q0 69 26.5 125.5t70.5 94.5t103 63t124 35q54 8 110 8h23q79 -3 145.5 -18.5t93.5 -29.5l27 -14v196q0 116 -73.5 181.5t-207.5 65.5q-163 0 -353 -77l-25 101q183 78 384 78q180 0 286 -90q108 -93 108 -261v-532l1 -218h-95q-5 45 -11.5 87t-9.5 75 q-58 -74 -169 -128.5t-224 -54.5q-154 0 -244 81.5t-90 231.5zM218 288q0 -96 63 -150t164 -54q100 0 202.5 48.5t173.5 117.5v213q-12 7 -35 17.5t-92.5 28t-139.5 17.5q-59 0 -116.5 -14t-107.5 -41.5t-81 -75t-31 -107.5z" />
<glyph unicode="b" d="M158 0v1560h120v-640q59 80 138 131q80 51 199 51q196 0 305 -156q110 -155 110 -414v-21q0 -242 -110 -388q-110 -144 -303 -144q-131 0 -211 50q-82 53 -139 111l-15 -140h-94zM278 248q56 -62 124 -112q74 -53 192 -53q156 0 236 116q79 115 79 312v21q0 206 -80 336 q-79 130 -237 130q-106 0 -186 -63q-77 -59 -128 -154v-533z" />
<glyph unicode="c" horiz-adv-x="1054" d="M97 520v42q0 243 135.5 391.5t365.5 148.5q222 0 338 -105l-52 -89q-106 92 -286 92h-10q-90 0 -160 -33q-74 -35 -119.5 -96.5t-68 -139.5t-23.5 -169v-42v-5q1 -115 45 -213q46 -100 134 -161t203 -61q74 0 157 20.5t137 66.5l44 -87q-110 -101 -338 -101 q-241 0 -371.5 150t-130.5 391z" />
<glyph unicode="d" d="M111 511v21q0 260 109 414q110 156 306 156q124 0 197 -52q72 -50 136 -140v650h120v-1560h-98l-14 146q-129 -167 -343 -167q-194 0 -304 144q-109 145 -109 388zM231 511q0 -197 78 -312q80 -116 237 -116q116 0 193 51q78 54 120 110v546q-59 92 -131 150 q-70 58 -180 58q-159 0 -238 -130q-79 -128 -79 -336v-21z" />
<glyph unicode="e" horiz-adv-x="1054" d="M97 509v55q0 234 132 386q134 152 329 152q198 0 304 -127q108 -126 108 -340v-93h-753v-33q0 -185 93 -307q95 -122 259 -122q210 0 372 77l36 -96q-62 -38 -176 -60q-111 -22 -232 -22q-211 0 -341 148q-131 149 -131 382zM227 650l3 -6h620v25q0 145 -76 237 q-75 94 -216 94q-138 0 -227 -99q-89 -100 -104 -251z" />
<glyph unicode="f" horiz-adv-x="658" d="M61 984v98h179v158q0 162 82 251.5t229 89.5q60 0 136 -19l-16 -99q-52 13 -108 13q-98 0 -150.5 -62t-52.5 -174v-158h245v-98h-245v-984h-120v984h-179z" />
<glyph unicode="g" horiz-adv-x="1148" d="M92 -137q0 84 56.5 140.5t142.5 56.5q-109 38 -109 156q0 27 4.5 47t17 42t39.5 38t69 25q-212 79 -212 326q0 402 445 402q125 0 205 -23h303v-100h-170q55 -33 88 -113t33 -166q0 -188 -117 -282.5t-340 -94.5q-145 0 -199 -20t-54 -81q0 -58 59.5 -85t222.5 -27 q104 0 177.5 -5.5t137.5 -21t102.5 -42t60 -69t21.5 -102.5q0 -74 -38.5 -128t-108 -84t-153 -44t-185.5 -14q-265 0 -381.5 56.5t-116.5 212.5zM207 -137q0 -62 32.5 -97.5t115.5 -53.5t231 -18q371 0 371 165q0 85 -78 113t-301 28q-213 0 -292 -30t-79 -107zM219 695 q0 -283 329 -283q337 0 337 282q0 149 -86 225.5t-253 76.5q-164 0 -240 -70t-87 -231z" />
<glyph unicode="h" d="M158 0v1560h120v-631q56 67 144 119q90 54 210 54q354 0 354 -435v-667h-120v669q0 176 -70 252q-69 77 -191 77q-111 0 -200 -62q-92 -64 -127 -113v-823h-120z" />
<glyph unicode="i" horiz-adv-x="465" d="M173 0v1082h119v-1082h-119zM173 1392v168h119v-168h-119z" />
<glyph unicode="j" horiz-adv-x="484" d="M-115 -418l13 101q45 -15 93 -15q90 0 139.5 62t49.5 181v1171h119v-1171q0 -166 -79.5 -257t-222.5 -91q-50 0 -112 19zM174 1396v164h119v-164h-119z" />
<glyph unicode="k" horiz-adv-x="1006" d="M159 0v1560h120v-940l114 10l415 452h135v-13l-437 -483l472 -571v-15h-132l-441 527l-126 9v-536h-120z" />
<glyph unicode="l" horiz-adv-x="465" d="M173 0v1560h119v-1560h-119z" />
<glyph unicode="m" horiz-adv-x="1815" d="M154 0v1082h106l11 -178q109 198 344 198q255 0 326 -241q50 115 141 178t217 63q176 0 269 -117t93 -354v-631h-120v633q0 199 -71 282t-196 83q-137 0 -212 -84q-76 -83 -95 -215q0 -7 0.5 -22t0.5 -28v-649h-121v633q0 196 -72 280q-70 85 -196 85q-240 0 -305 -235 v-763h-120z" />
<glyph unicode="n" d="M158 0v1082h106l11 -147q52 57 141 112q88 55 209 55q360 0 360 -443v-659h-120v658q0 187 -70 263q-69 77 -197 77q-172 0 -320 -158v-840h-120z" />
<glyph unicode="o" d="M91 524v33q0 268 131 407q130 138 347 138t348 -137t131 -408v-33q0 -268 -131 -407q-131 -138 -346 -138q-219 0 -349 144q-131 145 -131 401zM211 524q0 -213 95 -329q94 -115 265 -115q168 0 262 115q96 115 96 329v33q0 211 -96 327t-264 116q-169 0 -263 -118 q-95 -118 -95 -325v-33z" />
<glyph unicode="p" d="M158 -416v1498h92l22 -169q113 189 342 189q195 0 305 -156q110 -155 110 -414v-21q0 -242 -110 -388q-109 -144 -303 -144q-225 0 -338 165v-560h-120zM278 269q90 -189 311 -189q157 0 238 118q82 118 82 313v21q0 206 -82 336t-240 130q-221 0 -309 -205v-524z" />
<glyph unicode="q" d="M111 511v21q0 260 109 414q110 156 306 156q111 0 194 -50q80 -48 140 -117l18 147h96v-1498h-120v549q-121 -154 -330 -154q-194 0 -304 144q-109 145 -109 388zM231 511q0 -195 78 -314q79 -117 237 -117q110 0 187 53q73 50 121 106v582q-40 67 -116 124 q-73 55 -190 55q-158 0 -238 -131q-79 -130 -79 -337v-21z" />
<glyph unicode="r" horiz-adv-x="699" d="M158 0v1082h96l24 -125q41 46 119 96q77 49 195 49q38 0 75 -11l-15 -112q-55 14 -101 14q-79 0 -136 -39q-87 -60 -137 -109v-845h-120z" />
<glyph unicode="s" horiz-adv-x="1043" d="M115 85l31 102q86 -49 188 -78t192 -29q70 0 131.5 19.5t105 65.5t43.5 112q0 42 -16 75.5t-40.5 56t-64.5 41t-77 29.5t-89 23q-68 14 -116 27.5t-102 38t-86.5 54.5t-54 77t-21.5 107q0 94 57 163.5t142 101t183 31.5q121 0 215.5 -34.5t142.5 -78.5l-30 -106 q-48 46 -133 81.5t-195 35.5q-109 0 -185.5 -48t-76.5 -142q0 -42 15.5 -74t36.5 -51t64 -36t74.5 -25.5t91.5 -21.5q195 -43 290 -119t95 -200q0 -76 -34 -136t-91.5 -95.5t-127.5 -54t-147 -18.5q-115 0 -233 32.5t-178 73.5z" />
<glyph unicode="t" horiz-adv-x="644" d="M162 279v1041l121 39v-277h238v-98h-238v-705q0 -195 141 -195q40 0 91 11l18 -89q-54 -27 -130 -27q-241 0 -241 300z" />
<glyph unicode="u" d="M154 455v627h120v-629q0 -199 67 -284q68 -86 192 -86q135 0 215 60q83 63 114 104v835h120v-1082h-99l-17 139q-52 -49 -141 -106q-85 -54 -206 -54q-175 0 -270 118.5t-95 357.5z" />
<glyph unicode="v" horiz-adv-x="1002" d="M44 1082h124l298 -811l35 -127h6l38 127l294 811h124l-411 -1082h-96z" />
<glyph unicode="w" horiz-adv-x="1550" d="M65 1082h128l198 -731l42 -198h6l271 762h122l270 -768h6l47 204l193 731h128l-315 -1082h-110l-280 776h-6l-275 -776h-111z" />
<glyph unicode="x" horiz-adv-x="1002" d="M50 0l383 551l-367 531h141l291 -442l293 442h142l-367 -531l382 -551h-140l-308 461l-308 -461h-142z" />
<glyph unicode="y" horiz-adv-x="1002" d="M35 1082h133l297 -789l38 -129h6l327 918h134l-470 -1255q-43 -112 -109 -187q-68 -77 -196 -77q-18 0 -51 5q-31 5 -44 9l14 100q27 -3 38 -4q27 -3 39 -3q78 0 125 56q48 57 80 142l57 146z" />
<glyph unicode="z" horiz-adv-x="1002" d="M90 0v88l652 891h-632v103h783v-89l-655 -892h703v-101h-851z" />
<glyph unicode="{" horiz-adv-x="676" d="M68 543v104q116 0 173.5 66t57.5 191v228q0 171 77 290q78 119 261 175l26 -79q-244 -79 -244 -386v-228q0 -113 -46.5 -193t-137.5 -116q91 -38 137.5 -119t46.5 -192v-226q0 -301 247 -382l-29 -80q-183 56 -261 174q-77 119 -77 288v226q0 125 -57.5 192t-173.5 67z " />
<glyph unicode="|" horiz-adv-x="452" d="M164 -270v1726h120v-1726h-120z" />
<glyph unicode="}" horiz-adv-x="676" d="M9 -324q247 82 247 382v226q0 115 48 195t145 115q-193 69 -193 310v228q0 307 -244 386l26 79q183 -56 260 -175q78 -118 78 -290v-228q0 -257 231 -257v-104q-117 0 -174 -67t-57 -192v-226q0 -170 -78 -288q-76 -118 -260 -174z" />
<glyph unicode="~" horiz-adv-x="1402" d="M143 474q0 131 79 222t202 91q87 0 160 -37q79 -40 163 -113q119 -108 227 -108q77 0 131 64q54 65 54 162l98 -15q0 -128 -81 -223q-81 -94 -202 -94q-86 0 -161 35q-72 36 -160 115q-126 107 -229 107q-80 0 -132 -61q-52 -59 -52 -160z" />
<glyph unicode="&#xa1;" horiz-adv-x="452" d="M145 898v184h142v-184h-142zM156 -374v978h120v-978h-120z" />
<glyph unicode="&#xa2;" horiz-adv-x="1115" d="M111 516v42q0 226 118 371.5t322 165.5v223h120v-222q182 -15 279 -103l-52 -89q-107 92 -286 92q-96 2 -171 -33t-119.5 -96.5t-67.5 -139.5t-24 -169v-42q-2 -183 104.5 -311.5t278.5 -128.5q73 0 156.5 20.5t137.5 66.5l44 -87q-95 -86 -280 -99v-222h-120v223 q-212 20 -326 166.5t-114 371.5z" />
<glyph unicode="&#xa3;" horiz-adv-x="1170" d="M67 642v102h203l-11 296q-5 192 100.5 314.5t289.5 122.5q96 0 179.5 -28t129.5 -79l-30 -123q-40 57 -117 92.5t-162 35.5q-134 0 -203.5 -94.5t-66.5 -240.5l11 -296h450v-102h-447l7 -176q0 -226 -97 -365h769v-101h-941v101h10q131 45 140 365l-7 176h-207z" />
<glyph unicode="&#xa4;" horiz-adv-x="1481" d="M109 60l159 161q-124 167 -124 387q0 227 133 398l-168 171l85 87l167 -170q164 140 379 140q211 0 379 -142l170 173l86 -88l-171 -175q130 -171 130 -394q0 -214 -122 -384l163 -164l-86 -87l-158 160q-165 -153 -391 -153t-391 152l-155 -158zM257 608 q0 -214 141 -366q142 -151 342 -151q198 0 339 151q142 151 142 366q0 214 -142 363q-141 151 -339 151q-200 0 -342 -151q-141 -150 -141 -363z" />
<glyph unicode="&#xa5;" horiz-adv-x="1223" d="M45 1456h139l423 -723l424 723h139l-455 -751h371v-87h-421v-206h421v-86h-421v-326h-119v326h-416v86h416v206h-416v87h370z" />
<glyph unicode="&#xa6;" horiz-adv-x="444" d="M159 -270v771h120v-771h-120zM159 698v758h120v-758h-120z" />
<glyph unicode="&#xa7;" horiz-adv-x="1239" d="M98 550q0 98 58.5 169t164.5 105q-91 49 -134.5 120t-43.5 175q0 73 26 133t71 101t105.5 69t128 41t140.5 13q119 0 235 -36t193 -106l-87 -84q-56 56 -155 90t-186 34q-71 0 -131.5 -14t-111 -42.5t-79.5 -78.5t-29 -117q0 -69 20.5 -115.5t79 -80t97.5 -47t142 -42.5 q7 -3 11.5 -4t11 -2.5t11.5 -3.5q58 -15 94.5 -25.5t86.5 -27t81.5 -32.5t69 -39t60 -49t43 -59t29.5 -74.5t9 -90.5q0 -98 -60.5 -168.5t-171.5 -103.5q96 -51 142 -122t46 -176q0 -92 -39 -162.5t-106 -111.5t-149 -61.5t-175 -20.5q-121 0 -248 36t-211 111l87 78 q75 -63 177.5 -93t194.5 -30q67 0 127.5 14.5t110.5 43.5t80 79t30 115q0 53 -18.5 94t-45.5 67t-76 49t-91 36.5t-109 32.5q-19 5 -29 8q-64 16 -107.5 29t-98 33t-90 40.5t-73 51t-59 65.5t-35.5 82.5t-14 103.5zM218 552q0 -70 22.5 -117.5t82.5 -80.5t103.5 -48 t146.5 -43q31 -9 47 -13q78 -22 125 -37q114 13 179 71t65 143q0 53 -16.5 92t-41 63t-67 44.5t-80.5 32.5t-96.5 31.5t-101.5 37.5q-82 19 -142 42q-110 -14 -168 -72t-58 -146z" />
<glyph unicode="&#xa8;" horiz-adv-x="959" d="M162 1299v157h174v-157h-174zM632 1299v157h173v-157h-173z" />
<glyph unicode="&#xa9;" horiz-adv-x="1637" d="M107 729q0 315 207 531t503 216q295 0 502 -216t207 -531q0 -316 -208 -533q-207 -217 -501 -217q-296 0 -503 217q-207 218 -207 533zM192 729q0 -278 182 -472q183 -192 443 -192q257 0 440 192q184 193 184 472q0 277 -183 468q-183 192 -441 192q-260 0 -443 -192 q-182 -191 -182 -468zM420 721v33q0 178 93 293t254 131q24 2 48 2t35 -1l12 -1q143 -11 219 -81l-41 -71q-82 73 -225 73q-76 1 -135 -26t-94 -76t-53 -110t-19 -133v-33q-1 -145 82.5 -246t219.5 -101q58 0 123.5 16t107.5 52l35 -68q-72 -68 -220 -79q-24 -2 -45.5 -2 t-35.5 1l-14 2q-112 10 -191.5 68.5t-117.5 149.5t-38 207z" />
<glyph unicode="&#xaa;" horiz-adv-x="874" d="M136 910q0 79 48.5 133t118.5 76t152 19q55 -3 101.5 -14t65.5 -20l18 -10v137q0 81 -51 126.5t-145 45.5q-114 0 -246 -54l-18 70q131 55 268 55q125 0 200 -63q75 -64 75 -182v-371l1 -152h-67q-3 34 -7.5 64t-6.5 49q-40 -52 -118 -90t-156 -38q-108 0 -170.5 57 t-62.5 162zM220 907q0 -67 44 -104.5t114 -37.5t141.5 33.5t120.5 82.5v148q-9 5 -24.5 12.5t-64.5 19.5t-97 12q-41 0 -81 -10t-75 -29t-56.5 -52t-21.5 -75z" />
<glyph unicode="&#xab;" horiz-adv-x="933" d="M97 511v19l295 379h105l-276 -389l276 -388h-105zM432 511v19l295 379h105l-276 -389l276 -388h-105z" />
<glyph unicode="&#xac;" horiz-adv-x="1117" d="M124 670v106h812v-390h-120v284h-692z" />
<glyph unicode="&#xad;" horiz-adv-x="860" d="M130 570v101h590v-101h-590z" />
<glyph unicode="&#xae;" horiz-adv-x="1642" d="M102 729q0 315 207 531t503 216q295 0 502 -216q208 -215 208 -531t-208 -533q-207 -217 -502 -217q-296 0 -503 217q-207 218 -207 533zM187 729q0 -279 183 -472q183 -192 442 -192q258 0 441 192q183 193 183 472q0 277 -183 468q-183 192 -441 192q-259 0 -442 -192 q-183 -191 -183 -468zM543 304v850h258q148 0 226.5 -63t78.5 -185q0 -75 -47.5 -140.5t-134.5 -88.5l172 -329v-44h-88l-178 356h-188v-356h-99zM642 749h180q77 0 131.5 41.5t54.5 113.5q0 86 -47 123.5t-160 37.5h-159v-316z" />
<glyph unicode="&#xaf;" horiz-adv-x="874" d="M106 1359v97h670v-97h-670z" />
<glyph unicode="&#xb0;" horiz-adv-x="774" d="M143 1227q0 103 72 176q72 74 173 74q99 0 170 -74q72 -73 72 -176t-71 -176q-71 -71 -171 -71q-101 0 -173 72t-72 175zM233 1227q0 -68 44 -112q46 -44 111 -44q64 0 108 44t44 112q0 67 -44 113q-43 46 -108 46q-66 0 -111 -46q-44 -47 -44 -113z" />
<glyph unicode="&#xb1;" horiz-adv-x="1086" d="M85 728v101h414v438h110v-438h392v-101h-392v-439h-110v439h-414zM133 42v102h835v-102h-835z" />
<glyph unicode="&#xb2;" horiz-adv-x="802" d="M153 664v51l264 307q9 12 37.5 50.5t37 51.5t24 41t20.5 50t5 48q0 75 -40 116.5t-116 41.5q-50 0 -100.5 -16t-86.5 -44l-32 47q87 69 219 69q101 0 161.5 -57t60.5 -157q0 -37 -15.5 -76.5t-31.5 -64t-53.5 -74.5t-53.5 -72l-217 -253l1 -3h404v-56h-488z" />
<glyph unicode="&#xb3;" horiz-adv-x="824" d="M179 715l27 52q79 -56 204 -56q93 0 148 41.5t55 128.5q0 84 -49.5 126t-143.5 42h-73v55h73q79 -2 128.5 40t49.5 116q0 79 -47.5 120t-130.5 41q-128 0 -179 -57l-24 51q33 30 89.5 46t113.5 16q112 0 177.5 -55.5t65.5 -163.5q0 -60 -35.5 -109t-93.5 -70 q70 -23 107 -73t37 -123q0 -113 -74 -170t-194 -57q-57 0 -126 16t-105 43z" />
<glyph unicode="&#xb4;" horiz-adv-x="576" d="M122 1252l206 266h147l3 -6l-249 -260h-107z" />
<glyph unicode="&#xb5;" d="M162 -416v1498h119v-633q0 -206 71 -288q70 -81 192 -81q258 0 315 230v772h120v-1082h-103l-11 155q-100 -176 -313 -176q-185 0 -271 126v-521h-119z" />
<glyph unicode="&#xb6;" horiz-adv-x="973" d="M82 988q0 206 129 337q131 131 363 131h226v-1456h-120v520h-106q-232 0 -363 129q-129 131 -129 339z" />
<glyph unicode="&#xb7;" horiz-adv-x="503" d="M166 624v180h155v-180h-155z" />
<glyph unicode="&#xb8;" horiz-adv-x="498" d="M98 -357q90 0 151 31q62 30 62 89q0 57 -42 80q-40 22 -145 30l29 127h93l-12 -64q176 -20 176 -171q0 -92 -80 -146t-225 -54z" />
<glyph unicode="&#xb9;" horiz-adv-x="511" d="M88 1361v93l257 23v-812h-109v703z" />
<glyph unicode="&#xba;" horiz-adv-x="922" d="M135 1025v117q0 148 87 241q88 94 236 94t236 -94q88 -92 88 -241v-117q0 -150 -88 -242q-87 -92 -234 -92q-148 0 -237 92q-88 92 -88 242zM243 1025q0 -110 56 -174.5t161 -64.5q102 0 158 66q56 68 56 173v117q0 103 -56 171q-55 67 -160 67t-160 -67t-55 -171v-117z " />
<glyph unicode="&#xbb;" horiz-adv-x="928" d="M235 339l26 212l-26 215h123l25 -34h4l93 -128l40 -53l-1 -1l1 -1l-23 -30l-110 -151h-8l-21 -28zM581 339l26 212l-26 215h123l25 -34h4l93 -128l40 -53l-1 -1l1 -1l-23 -30l-110 -151h-8l-21 -28z" />
<glyph unicode="&#xbf;" horiz-adv-x="958" d="M108 -20q0 68 19 130t57 120t78.5 105t100.5 104q62 51 76 98q13 46 13 142h119q-2 -132 -22 -182q-20 -49 -114 -137q-52 -53 -79.5 -84.5t-62 -81.5t-50 -102t-15.5 -111q0 -128 68 -197.5t194 -69.5q66 0 144 25.5t113 68.5l83 -81q-51 -56 -150 -88t-190 -32 q-170 0 -276 99.5t-106 273.5zM436 928v155h139v-155h-139z" />
<glyph unicode="&#xc0;" horiz-adv-x="1256" d="M38 0l535 1456h113l531 -1456h-124l-145 406h-639l-147 -406h-124zM340 1864l2 5h154l202 -266h-117zM347 513h562l-276 772h-6z" />
<glyph unicode="&#xc1;" horiz-adv-x="1256" d="M38 0l535 1456h113l531 -1456h-124l-145 406h-639l-147 -406h-124zM347 513h562l-276 772h-6zM559 1597l206 266h147l3 -6l-249 -260h-107z" />
<glyph unicode="&#xc2;" horiz-adv-x="1256" d="M38 0l535 1456h113l531 -1456h-124l-145 406h-639l-147 -406h-124zM347 513h562l-276 772h-6zM352 1601v21l227 221h98l230 -224v-18h-112l-167 168l-166 -168h-110z" />
<glyph unicode="&#xc3;" horiz-adv-x="1256" d="M38 0l535 1456h113l531 -1456h-124l-145 406h-639l-147 -406h-124zM283 1622q0 86 54 144q54 59 137 59q65 0 147 -55t135 -55q46 0 79 36.5t33 90.5l80 -20q0 -88 -55 -146t-137 -58q-75 0 -151 55t-131 55q-48 0 -79.5 -35t-31.5 -89zM347 513h562l-276 772h-6z" />
<glyph unicode="&#xc4;" horiz-adv-x="1256" d="M38 0l535 1456h113l531 -1456h-124l-145 406h-639l-147 -406h-124zM311 1641v157h174v-157h-174zM347 513h562l-276 772h-6zM781 1641v157h173v-157h-173z" />
<glyph unicode="&#xc5;" horiz-adv-x="1256" d="M38 0l535 1456h113l531 -1456h-124l-145 406h-639l-147 -406h-124zM347 513h562l-276 772h-6zM472 1730q0 63 45 108q46 45 109 45q62 0 106 -45q45 -44 45 -108q0 -65 -44 -107q-43 -42 -107 -42t-109 42t-45 107zM549 1730q0 -33 22.5 -55t54.5 -22q31 0 53 22t22 55 t-22 56t-53 23q-32 0 -54.5 -22.5t-22.5 -56.5z" />
<glyph unicode="&#xc6;" horiz-adv-x="1900" d="M33 0l881 1456h864v-102h-694l23 -545h589v-102h-585l26 -606h702v-101h-817l-17 389h-597l-229 -389h-146zM475 502h526l-35 839l-6 1l-15 -44z" />
<glyph unicode="&#xc7;" horiz-adv-x="1313" d="M132 609v237q0 135 37.5 249t108 199.5t181.5 134t251 48.5q144 0 249 -26t196 -86l-71 -92q-142 102 -374 102q-120 0 -209.5 -40.5t-142 -114t-79 -166t-28.5 -206.5v-239q0 -154 49.5 -271t154.5 -187.5t255 -70.5q140 0 236.5 28.5t175.5 111.5l62 -76 q-122 -165 -474 -165q-142 0 -253 47t-181.5 131.5t-107 199t-36.5 252.5zM566 -366l7 -78q145 0 225 54t80 146q0 151 -176 171l12 64h-93l-29 -127q105 -8 145 -30q42 -22 42 -80q0 -59 -62 -89q-61 -31 -151 -31z" />
<glyph unicode="&#xc8;" horiz-adv-x="1129" d="M186 0v1456h870v-102h-750v-547h653v-102h-653v-604h755v-101h-875zM331 1864l2 5h154l202 -266h-117z" />
<glyph unicode="&#xc9;" horiz-adv-x="1129" d="M186 0v1456h870v-102h-750v-547h653v-102h-653v-604h755v-101h-875zM550 1597l206 266h147l3 -6l-249 -260h-107z" />
<glyph unicode="&#xca;" horiz-adv-x="1129" d="M186 0v1456h870v-102h-750v-547h653v-102h-653v-604h755v-101h-875zM343 1601v21l227 221h98l230 -224v-18h-112l-167 168l-166 -168h-110z" />
<glyph unicode="&#xcb;" horiz-adv-x="1129" d="M186 0v1456h870v-102h-750v-547h653v-102h-653v-604h755v-101h-875zM302 1641v157h174v-157h-174zM772 1641v157h173v-157h-173z" />
<glyph unicode="&#xcc;" horiz-adv-x="554" d="M-10 1864l2 5h154l202 -266h-117zM217 0v1456h120v-1456h-120z" />
<glyph unicode="&#xcd;" horiz-adv-x="554" d="M208 1597l206 266h147l3 -6l-249 -260h-107zM217 0v1456h120v-1456h-120z" />
<glyph unicode="&#xce;" horiz-adv-x="554" d="M2 1601v21l227 221h98l230 -224v-18h-112l-167 168l-166 -168h-110zM217 0v1456h120v-1456h-120z" />
<glyph unicode="&#xcf;" horiz-adv-x="554" d="M-39 1641v157h174v-157h-174zM217 0v1456h120v-1456h-120zM431 1641v157h173v-157h-173z" />
<glyph unicode="&#xd0;" horiz-adv-x="1378" d="M33 689v102h153v665h444q267 0 441 -178q175 -178 175 -457v-187q0 -279 -175 -457q-174 -177 -441 -177h-444v689h-153zM306 101h324q217 0 356 151q140 152 140 382v190q0 228 -141 379q-139 151 -355 151h-324v-563h339v-102h-339v-588z" />
<glyph unicode="&#xd1;" horiz-adv-x="1445" d="M186 0v1456h120l827 -1243l6 1v1242h120v-1456h-120l-827 1246l-6 -1v-1245h-120zM377 1622q0 86 54 144q54 59 137 59q65 0 147 -55t135 -55q46 0 79 36.5t33 90.5l80 -20q0 -88 -55 -146t-137 -58q-75 0 -151 55t-131 55q-48 0 -79.5 -35t-31.5 -89z" />
<glyph unicode="&#xd2;" horiz-adv-x="1378" d="M124 609v237q0 310 144 470.5t416 160.5q275 0 422.5 -161t147.5 -470v-237q0 -327 -147 -479q-147 -151 -422 -151q-277 0 -419 151t-142 479zM244 609q0 -290 116 -409q117 -117 325 -117q213 0 331 117q119 119 119 409v239q0 277 -120 400q-118 124 -331 124 q-209 0 -324 -124q-116 -124 -116 -400v-239zM398 1885l2 5h154l202 -266h-117z" />
<glyph unicode="&#xd3;" horiz-adv-x="1378" d="M124 609v237q0 310 144 470.5t416 160.5q275 0 422.5 -161t147.5 -470v-237q0 -327 -147 -479q-147 -151 -422 -151q-277 0 -419 151t-142 479zM244 609q0 -290 116 -409q117 -117 325 -117q213 0 331 117q119 119 119 409v239q0 277 -120 400q-118 124 -331 124 q-209 0 -324 -124q-116 -124 -116 -400v-239zM617 1618l206 266h147l3 -6l-249 -260h-107z" />
<glyph unicode="&#xd4;" horiz-adv-x="1378" d="M124 609v237q0 310 144 470.5t416 160.5q275 0 422.5 -161t147.5 -470v-237q0 -327 -147 -479q-147 -151 -422 -151q-277 0 -419 151t-142 479zM244 609q0 -290 116 -409q117 -117 325 -117q213 0 331 117q119 119 119 409v239q0 277 -120 400q-118 124 -331 124 q-209 0 -324 -124q-116 -124 -116 -400v-239zM410 1622v21l227 221h98l230 -224v-18h-112l-167 168l-166 -168h-110z" />
<glyph unicode="&#xd5;" horiz-adv-x="1378" d="M124 609v237q0 310 144 470.5t416 160.5q275 0 422.5 -161t147.5 -470v-237q0 -327 -147 -479q-147 -151 -422 -151q-277 0 -419 151t-142 479zM244 609q0 -290 116 -409q117 -117 325 -117q213 0 331 117q119 119 119 409v239q0 277 -120 400q-118 124 -331 124 q-209 0 -324 -124q-116 -124 -116 -400v-239zM341 1643q0 85 54 144t137 59q65 0 147 -55t135 -55q46 0 79 36.5t33 90.5l80 -20q0 -88 -55 -146t-137 -58q-75 0 -151 55t-131 55q-48 0 -79.5 -35t-31.5 -89z" />
<glyph unicode="&#xd6;" horiz-adv-x="1378" d="M124 609v237q0 310 144 470.5t416 160.5q275 0 422.5 -161t147.5 -470v-237q0 -327 -147 -479q-147 -151 -422 -151q-277 0 -419 151t-142 479zM244 609q0 -290 116 -409q117 -117 325 -117q213 0 331 117q119 119 119 409v239q0 277 -120 400q-118 124 -331 124 q-209 0 -324 -124q-116 -124 -116 -400v-239zM369 1662v157h174v-157h-174zM839 1662v157h173v-157h-173z" />
<glyph unicode="&#xd7;" horiz-adv-x="1072" d="M93 318l358 365l-343 350l79 80l342 -350l343 350l79 -80l-343 -350l358 -365l-79 -79l-358 364l-357 -364z" />
<glyph unicode="&#xd8;" horiz-adv-x="1379" d="M124 609v237q0 280 152 456q151 175 408 175q122 0 235 -42q114 -41 199 -144q87 -104 111 -209q25 -104 25 -236v-237q0 -281 -155 -456q-155 -174 -414 -174q-91 0 -197 30q-107 32 -196 122q-168 169 -168 478zM244 609q0 -117 29 -213.5t80 -154.5l6 -1l633 1014 q-120 118 -308 118q-208 0 -324 -144q-116 -145 -116 -380v-239zM426 164q104 -81 259 -81q212 0 331 143q119 145 119 383v239q0 94 -21 178t-55 140h-6z" />
<glyph unicode="&#xd9;" horiz-adv-x="1374" d="M167 489v967h120v-967q0 -188 111 -299q113 -110 286 -110q177 0 292 110q114 109 114 299v967h119v-967q0 -240 -147 -375t-378 -135q-228 0 -373 135q-144 136 -144 375zM409 1864l2 5h154l202 -266h-117z" />
<glyph unicode="&#xda;" horiz-adv-x="1374" d="M167 489v967h120v-967q0 -188 111 -299q113 -110 286 -110q177 0 292 110q114 109 114 299v967h119v-967q0 -240 -147 -375t-378 -135q-228 0 -373 135q-144 136 -144 375zM628 1597l206 266h147l3 -6l-249 -260h-107z" />
<glyph unicode="&#xdb;" horiz-adv-x="1374" d="M167 489v967h120v-967q0 -188 111 -299q113 -110 286 -110q177 0 292 110q114 109 114 299v967h119v-967q0 -240 -147 -375t-378 -135q-228 0 -373 135q-144 136 -144 375zM421 1601v21l227 221h98l230 -224v-18h-112l-167 168l-166 -168h-110z" />
<glyph unicode="&#xdc;" horiz-adv-x="1374" d="M167 489v967h120v-967q0 -188 111 -299q113 -110 286 -110q177 0 292 110q114 109 114 299v967h119v-967q0 -240 -147 -375t-378 -135q-228 0 -373 135q-144 136 -144 375zM380 1641v157h174v-157h-174zM850 1641v157h173v-157h-173z" />
<glyph unicode="&#xdd;" horiz-adv-x="1256" d="M38 1456h139l448 -809l451 809h139l-531 -924v-532h-119v537zM556 1590l206 266h147l3 -6l-249 -260h-107z" />
<glyph unicode="&#xde;" horiz-adv-x="1214" d="M183 0v1456h120v-304h324q220 0 345 -116q124 -115 124 -298q0 -185 -124 -300q-124 -114 -345 -114h-324v-324h-120zM303 425h324q172 0 261 92q88 91 88 219q0 131 -88 222q-88 93 -261 93h-324v-626z" />
<glyph unicode="&#xdf;" horiz-adv-x="1200" d="M151 0v1082q0 204 102 317q104 113 274 113q140 0 232 -80t92 -222q0 -109 -62 -216q-61 -106 -61 -184q0 -86 184 -228t184 -287q0 -152 -110 -235q-110 -81 -266 -81q-83 0 -177 23q-90 24 -129 57l34 101q38 -30 114 -56q74 -24 144 -24q125 0 197 60q73 60 73 155 q0 99 -184 240q-184 142 -184 277q0 93 63 201q63 109 63 191q0 92 -60 149q-59 58 -137 58q-120 0 -194 -86q-72 -85 -72 -243v-1082h-120z" />
<glyph unicode="&#xe0;" horiz-adv-x="1101" d="M98 292q0 69 26.5 125.5t70.5 94.5t103 63t124 35t133 8q79 -3 145.5 -18.5t93.5 -29.5l27 -14v196q0 116 -73.5 181.5t-207.5 65.5q-163 0 -353 -77l-25 101q183 78 384 78q180 0 286 -90q108 -93 108 -261v-532l1 -218h-95q-5 45 -11.5 87t-9.5 75q-58 -74 -169 -128.5 t-224 -54.5q-154 0 -244 81.5t-90 231.5zM218 288q0 -96 63 -150t164 -54q100 0 202.5 48.5t173.5 117.5v213q-12 7 -35 17.5t-92.5 28t-139.5 17.5q-59 0 -116.5 -14t-107.5 -41.5t-81 -75t-31 -107.5zM255 1543l2 5h154l202 -266h-117z" />
<glyph unicode="&#xe1;" horiz-adv-x="1101" d="M98 292q0 69 26.5 125.5t70.5 94.5t103 63t124 35t133 8q79 -3 145.5 -18.5t93.5 -29.5l27 -14v196q0 116 -73.5 181.5t-207.5 65.5q-163 0 -353 -77l-25 101q183 78 384 78q180 0 286 -90q108 -93 108 -261v-532l1 -218h-95q-5 45 -11.5 87t-9.5 75q-58 -74 -169 -128.5 t-224 -54.5q-154 0 -244 81.5t-90 231.5zM218 288q0 -96 63 -150t164 -54q100 0 202.5 48.5t173.5 117.5v213q-12 7 -35 17.5t-92.5 28t-139.5 17.5q-59 0 -116.5 -14t-107.5 -41.5t-81 -75t-31 -107.5zM474 1276l206 266h147l3 -6l-249 -260h-107z" />
<glyph unicode="&#xe2;" horiz-adv-x="1101" d="M98 292q0 69 26.5 125.5t70.5 94.5t103 63t124 35t133 8q79 -3 145.5 -18.5t93.5 -29.5l27 -14v196q0 116 -73.5 181.5t-207.5 65.5q-163 0 -353 -77l-25 101q183 78 384 78q180 0 286 -90q108 -93 108 -261v-532l1 -218h-95q-5 45 -11.5 87t-9.5 75q-58 -74 -169 -128.5 t-224 -54.5q-154 0 -244 81.5t-90 231.5zM218 288q0 -96 63 -150t164 -54q100 0 202.5 48.5t173.5 117.5v213q-12 7 -35 17.5t-92.5 28t-139.5 17.5q-59 0 -116.5 -14t-107.5 -41.5t-81 -75t-31 -107.5zM267 1280v21l227 221h98l230 -224v-18h-112l-167 168l-166 -168h-110z " />
<glyph unicode="&#xe3;" horiz-adv-x="1101" d="M98 292q0 69 26.5 125.5t70.5 94.5t103 63t124 35t133 8q79 -3 145.5 -18.5t93.5 -29.5l27 -14v196q0 116 -73.5 181.5t-207.5 65.5q-163 0 -353 -77l-25 101q183 78 384 78q180 0 286 -90q108 -93 108 -261v-532l1 -218h-95q-5 45 -11.5 87t-9.5 75q-58 -74 -169 -128.5 t-224 -54.5q-154 0 -244 81.5t-90 231.5zM198 1301q0 85 54 144t137 59q65 0 147 -55t135 -55q46 0 79 36.5t33 90.5l80 -20q0 -88 -55 -146t-137 -58q-75 0 -151 55t-131 55q-48 0 -79.5 -35t-31.5 -89zM218 288q0 -96 63 -150t164 -54q100 0 202.5 48.5t173.5 117.5v213 q-12 7 -35 17.5t-92.5 28t-139.5 17.5q-59 0 -116.5 -14t-107.5 -41.5t-81 -75t-31 -107.5z" />
<glyph unicode="&#xe4;" horiz-adv-x="1101" d="M98 292q0 69 26.5 125.5t70.5 94.5t103 63t124 35t133 8q79 -3 145.5 -18.5t93.5 -29.5l27 -14v196q0 116 -73.5 181.5t-207.5 65.5q-163 0 -353 -77l-25 101q183 78 384 78q180 0 286 -90q108 -93 108 -261v-532l1 -218h-95q-5 45 -11.5 87t-9.5 75q-58 -74 -169 -128.5 t-224 -54.5q-154 0 -244 81.5t-90 231.5zM218 288q0 -96 63 -150t164 -54q100 0 202.5 48.5t173.5 117.5v213q-12 7 -35 17.5t-92.5 28t-139.5 17.5q-59 0 -116.5 -14t-107.5 -41.5t-81 -75t-31 -107.5zM226 1320v157h174v-157h-174zM696 1320v157h173v-157h-173z" />
<glyph unicode="&#xe5;" horiz-adv-x="1101" d="M98 292q0 69 26.5 125.5t70.5 94.5t103 63t124 35t133 8q79 -3 145.5 -18.5t93.5 -29.5l27 -14v196q0 116 -73.5 181.5t-207.5 65.5q-163 0 -353 -77l-25 101q183 78 384 78q180 0 286 -90q108 -93 108 -261v-532l1 -218h-95q-5 45 -11.5 87t-9.5 75q-58 -74 -169 -128.5 t-224 -54.5q-154 0 -244 81.5t-90 231.5zM218 288q0 -96 63 -150t164 -54q100 0 202.5 48.5t173.5 117.5v213q-12 7 -35 17.5t-92.5 28t-139.5 17.5q-59 0 -116.5 -14t-107.5 -41.5t-81 -75t-31 -107.5zM387 1409q0 63 45 108q46 45 109 45t106 -45q45 -43 45 -108t-44 -107 t-107 -42q-64 0 -109 42t-45 107zM464 1409q0 -33 22.5 -55t54.5 -22q31 0 53 22t22 55t-22 56t-53 23q-32 0 -54.5 -22.5t-22.5 -56.5z" />
<glyph unicode="&#xe6;" horiz-adv-x="1796" d="M95 292q0 149 114 233t325 84h262v110q0 134 -63 207t-182 73q-81 0 -170.5 -23.5t-151.5 -76.5l-57 90q82 57 182 85t197 28q122 0 209.5 -54.5t126.5 -157.5q61 100 157 156t209 56q202 0 314 -128t109 -337v-99h-754v-30q0 -92 21 -168t63.5 -135.5t113 -92.5 t163.5 -33q182 0 324 120l47 -87q-78 -70 -166.5 -101.5t-204.5 -31.5q-137 0 -240 55t-164 158q-64 -104 -177.5 -158.5t-251.5 -54.5q-161 0 -258 80t-97 233zM215 289q0 -98 65.5 -154.5t186.5 -56.5q89 0 189 50t140 120v264h-260q-83 2 -153.5 -19.5t-119 -74 t-48.5 -129.5zM930 641l2 -6h625v32q1 148 -78.5 240t-225.5 92q-141 0 -224 -102.5t-99 -255.5z" />
<glyph unicode="&#xe7;" horiz-adv-x="1054" d="M97 520v42q0 243 135.5 391.5t365.5 148.5q222 0 338 -105l-52 -89q-106 92 -286 92q-96 2 -170.5 -33t-119.5 -96.5t-67.5 -139.5t-23.5 -169v-42q-1 -119 44.5 -218.5t134 -160.5t203.5 -61q74 0 157 20.5t137 66.5l44 -87q-110 -101 -338 -101q-241 0 -371.5 150 t-130.5 391zM435 -366l7 -78q145 0 225 54t80 146q0 151 -176 171l12 64h-93l-29 -127q105 -8 145 -30q42 -22 42 -80q0 -59 -62 -89q-61 -31 -151 -31z" />
<glyph unicode="&#xe8;" horiz-adv-x="1054" d="M97 509v55q0 234 132 386q134 152 329 152q198 0 304 -127q108 -126 108 -340v-93h-753v-33q0 -185 93 -307q95 -122 259 -122q210 0 372 77l36 -96q-62 -38 -176 -60q-111 -22 -232 -22q-211 0 -341 148q-131 149 -131 382zM227 650l3 -6h620v25q0 145 -76 237 q-75 94 -216 94q-138 0 -227 -99q-89 -100 -104 -251zM260 1543l2 5h154l202 -266h-117z" />
<glyph unicode="&#xe9;" horiz-adv-x="1054" d="M97 509v55q0 234 132 386q134 152 329 152q198 0 304 -127q108 -126 108 -340v-93h-753v-33q0 -185 93 -307q95 -122 259 -122q210 0 372 77l36 -96q-62 -38 -176 -60q-111 -22 -232 -22q-211 0 -341 148q-131 149 -131 382zM227 650l3 -6h620v25q0 145 -76 237 q-75 94 -216 94q-138 0 -227 -99q-89 -100 -104 -251zM479 1276l206 266h147l3 -6l-249 -260h-107z" />
<glyph unicode="&#xea;" horiz-adv-x="1054" d="M97 509v55q0 234 132 386q134 152 329 152q198 0 304 -127q108 -126 108 -340v-93h-753v-33q0 -185 93 -307q95 -122 259 -122q210 0 372 77l36 -96q-62 -38 -176 -60q-111 -22 -232 -22q-211 0 -341 148q-131 149 -131 382zM227 650l3 -6h620v25q0 145 -76 237 q-75 94 -216 94q-138 0 -227 -99q-89 -100 -104 -251zM272 1280v21l227 221h98l230 -224v-18h-112l-167 168l-166 -168h-110z" />
<glyph unicode="&#xeb;" horiz-adv-x="1054" d="M97 509v55q0 234 132 386q134 152 329 152q198 0 304 -127q108 -126 108 -340v-93h-753v-33q0 -185 93 -307q95 -122 259 -122q210 0 372 77l36 -96q-62 -38 -176 -60q-111 -22 -232 -22q-211 0 -341 148q-131 149 -131 382zM227 650l3 -6h620v25q0 145 -76 237 q-75 94 -216 94q-138 0 -227 -99q-89 -100 -104 -251zM231 1320v157h174v-157h-174zM701 1320v157h173v-157h-173z" />
<glyph unicode="&#xec;" horiz-adv-x="456" d="M-59 1521l2 5h154l202 -266h-117zM168 0v1082h120v-1082h-120z" />
<glyph unicode="&#xed;" horiz-adv-x="456" d="M159 1254l206 266h147l3 -6l-249 -260h-107zM168 0v1082h120v-1082h-120z" />
<glyph unicode="&#xee;" horiz-adv-x="456" d="M-47 1258v21l227 221h98l230 -224v-18h-112l-167 168l-166 -168h-110zM168 0v1082h120v-1082h-120z" />
<glyph unicode="&#xef;" horiz-adv-x="456" d="M-88 1299v157h174v-157h-174zM168 0v1082h120v-1082h-120zM382 1299v157h173v-157h-173z" />
<glyph unicode="&#xf0;" horiz-adv-x="1191" d="M99 455q0 236 127 372q128 138 340 138q114 0 209 -45t151 -120l5 5q-10 282 -189 445l-327 -187l-50 74l302 173q-87 57 -213 103l39 104q166 -55 285 -144l240 138l51 -74l-220 -126q206 -208 206 -556v-220q0 -244 -137 -401q-137 -155 -344 -155q-208 0 -342 137 q-133 136 -133 339zM219 455q0 -149 97 -261t262 -112q158 0 257 127q100 127 100 326v139q-39 76 -135 132q-94 55 -234 55q-167 0 -257 -115q-90 -116 -90 -291z" />
<glyph unicode="&#xf1;" d="M158 0v1082h106l11 -147q52 57 141 112q88 55 209 55q360 0 360 -443v-659h-120v658q0 187 -70 263q-69 77 -197 77q-172 0 -320 -158v-840h-120zM233 1300q0 86 54 144q54 59 137 59q65 0 147 -55t135 -55q46 0 79 36.5t33 90.5l80 -20q0 -88 -55 -146t-137 -58 q-75 0 -151 55t-131 55q-48 0 -79.5 -35t-31.5 -89z" />
<glyph unicode="&#xf2;" d="M91 524v33q0 268 131 407q130 138 347 138t348 -137t131 -408v-33q0 -268 -131 -407q-131 -138 -346 -138q-219 0 -349 144q-131 145 -131 401zM211 524q0 -213 95 -329q94 -115 265 -115q168 0 262 115q96 115 96 329v33q0 211 -96 327t-264 116q-169 0 -263 -118 q-95 -118 -95 -325v-33zM294 1542l2 5h154l202 -266h-117z" />
<glyph unicode="&#xf3;" d="M91 524v33q0 268 131 407q130 138 347 138t348 -137t131 -408v-33q0 -268 -131 -407q-131 -138 -346 -138q-219 0 -349 144q-131 145 -131 401zM211 524q0 -213 95 -329q94 -115 265 -115q168 0 262 115q96 115 96 329v33q0 211 -96 327t-264 116q-169 0 -263 -118 q-95 -118 -95 -325v-33zM513 1275l206 266h147l3 -6l-249 -260h-107z" />
<glyph unicode="&#xf4;" d="M91 524v33q0 268 131 407q130 138 347 138t348 -137t131 -408v-33q0 -268 -131 -407q-131 -138 -346 -138q-219 0 -349 144q-131 145 -131 401zM211 524q0 -213 95 -329q94 -115 265 -115q168 0 262 115q96 115 96 329v33q0 211 -96 327t-264 116q-169 0 -263 -118 q-95 -118 -95 -325v-33zM306 1279v21l227 221h98l230 -224v-18h-112l-167 168l-166 -168h-110z" />
<glyph unicode="&#xf5;" d="M91 524v33q0 268 131 407q130 138 347 138t348 -137t131 -408v-33q0 -268 -131 -407q-131 -138 -346 -138q-219 0 -349 144q-131 145 -131 401zM211 524q0 -213 95 -329q94 -115 265 -115q168 0 262 115q96 115 96 329v33q0 211 -96 327t-264 116q-169 0 -263 -118 q-95 -118 -95 -325v-33zM237 1300q0 86 54 144q54 59 137 59q65 0 147 -55t135 -55q46 0 79 36.5t33 90.5l80 -20q0 -88 -55 -146t-137 -58q-75 0 -151 55t-131 55q-48 0 -79.5 -35t-31.5 -89z" />
<glyph unicode="&#xf6;" d="M91 524v33q0 268 131 407q130 138 347 138t348 -137t131 -408v-33q0 -268 -131 -407q-131 -138 -346 -138q-219 0 -349 144q-131 145 -131 401zM211 524q0 -213 95 -329q94 -115 265 -115q168 0 262 115q96 115 96 329v33q0 211 -96 327t-264 116q-169 0 -263 -118 q-95 -118 -95 -325v-33zM265 1319v157h174v-157h-174zM735 1319v157h173v-157h-173z" />
<glyph unicode="&#xf7;" horiz-adv-x="1164" d="M72 644v116h998v-116h-998zM506 212v160h142v-160h-142zM506 1010v160h142v-160h-142z" />
<glyph unicode="&#xf8;" horiz-adv-x="1141" d="M87 524v33q0 269 131 406q130 139 347 139t348 -137t131 -408v-33q0 -268 -131 -407q-131 -138 -346 -138q-219 0 -349 144q-131 145 -131 401zM207 524q0 -137 39 -233l604 565q-7 10 -21 28q-96 116 -264 116q-169 0 -263 -118q-95 -118 -95 -325v-33zM304 192 q94 -112 263 -112q168 0 262 115q96 115 96 329v33q0 113 -26 192z" />
<glyph unicode="&#xf9;" d="M154 455v627h120v-629q0 -199 67 -284q68 -86 192 -86q135 0 215 60q83 63 114 104v835h120v-1082h-99l-17 139q-52 -49 -141 -106q-85 -54 -206 -54q-175 0 -270 118.5t-95 357.5zM292 1521l2 5h154l202 -266h-117z" />
<glyph unicode="&#xfa;" d="M154 455v627h120v-629q0 -199 67 -284q68 -86 192 -86q135 0 215 60q83 63 114 104v835h120v-1082h-99l-17 139q-52 -49 -141 -106q-85 -54 -206 -54q-175 0 -270 118.5t-95 357.5zM511 1254l206 266h147l3 -6l-249 -260h-107z" />
<glyph unicode="&#xfb;" d="M154 455v627h120v-629q0 -199 67 -284q68 -86 192 -86q135 0 215 60q83 63 114 104v835h120v-1082h-99l-17 139q-52 -49 -141 -106q-85 -54 -206 -54q-175 0 -270 118.5t-95 357.5zM304 1258v21l227 221h98l230 -224v-18h-112l-167 168l-166 -168h-110z" />
<glyph unicode="&#xfc;" d="M154 455v627h120v-629q0 -199 67 -284q68 -86 192 -86q135 0 215 60q83 63 114 104v835h120v-1082h-99l-17 139q-52 -49 -141 -106q-85 -54 -206 -54q-175 0 -270 118.5t-95 357.5zM263 1299v157h174v-157h-174zM733 1299v157h173v-157h-173z" />
<glyph unicode="&#xfd;" horiz-adv-x="1002" d="M35 1082h133l297 -789l38 -129h6l327 918h134l-470 -1255q-43 -112 -109 -187q-68 -77 -196 -77q-18 0 -51 5q-31 5 -44 9l14 100q27 -3 38 -4q27 -3 39 -3q78 0 125 56q48 57 80 142l57 146zM445 1254l206 266h147l3 -6l-249 -260h-107z" />
<glyph unicode="&#xfe;" horiz-adv-x="1151" d="M167 0v1560h119v-641q113 183 338 183q196 0 305 -156q110 -155 110 -414v-21q0 -242 -110 -388q-109 -144 -303 -144q-225 0 -338 165v-560h-120v416h-1zM288 269q90 -189 311 -189q157 0 238 118q82 118 82 313v21q0 206 -82 336t-240 130q-221 0 -309 -205v-524z" />
<glyph unicode="&#xff;" horiz-adv-x="1002" d="M35 1082h133l297 -789l38 -129h6l327 918h134l-470 -1255q-43 -112 -109 -187q-68 -77 -196 -77q-18 0 -51 5q-31 5 -44 9l14 100q27 -3 38 -4q27 -3 39 -3q78 0 125 56q48 57 80 142l57 146zM197 1299v157h174v-157h-174zM667 1299v157h173v-157h-173z" />
<glyph unicode="&#x152;" horiz-adv-x="1913" d="M108 576v304q0 264 148 430q149 167 388 167q117 0 313 -21h834v-102h-750v-547h653v-102h-653v-604h755v-101h-839q-97 -10 -168 -15q-71 -6 -143 -6q-239 0 -389 166q-149 167 -149 431zM228 576q0 -228 113 -362q114 -133 305 -133q156 0 275 17v1259q-137 18 -277 18 q-191 0 -304 -132q-112 -131 -112 -361v-306z" />
<glyph unicode="&#x153;" horiz-adv-x="1890" d="M91 524v33q0 238 131 392q131 153 347 153q127 0 228.5 -56.5t165.5 -159.5q63 102 161 159t214 57q198 0 304 -127q108 -126 108 -340v-93h-702v-18q0 -99 -25 -191q37 -118 122 -185.5t204 -67.5q97 0 180.5 32t139.5 88l51 -82q-132 -139 -371 -139q-125 0 -225 55 t-163 157q-63 -102 -163.5 -157t-226.5 -55q-218 0 -349 152q-131 154 -131 393zM211 524q0 -188 95 -316t265 -128q118 0 203 67.5t125 186.5q-22 81 -22 175v55q0 98 23 178q-41 118 -125 187q-86 71 -206 71q-168 0 -263 -129q-95 -130 -95 -314v-33zM1023 745 q16 -64 20 -101h587v25q0 145 -76 237q-75 94 -216 94q-112 0 -195 -68.5t-120 -186.5z" />
<glyph unicode="&#x178;" horiz-adv-x="1256" d="M38 1456h139l448 -809l451 809h139l-531 -924v-532h-119v537zM308 1634v157h174v-157h-174zM778 1634v157h173v-157h-173z" />
<glyph unicode="&#x2c6;" horiz-adv-x="880" d="M160 1252v21l227 221h98l230 -224v-18h-112l-167 168l-166 -168h-110z" />
<glyph unicode="&#x2dc;" horiz-adv-x="892" d="M102 1281q0 85 54 144t137 59q65 0 147 -55t135 -55q46 0 79 36.5t33 90.5l80 -20q0 -88 -55 -146t-137 -58q-75 0 -151 55t-131 55q-48 0 -79.5 -35t-31.5 -89z" />
<glyph unicode="&#x2000;" horiz-adv-x="945" />
<glyph unicode="&#x2001;" horiz-adv-x="1890" />
<glyph unicode="&#x2002;" horiz-adv-x="945" />
<glyph unicode="&#x2003;" horiz-adv-x="1890" />
<glyph unicode="&#x2004;" horiz-adv-x="630" />
<glyph unicode="&#x2005;" horiz-adv-x="472" />
<glyph unicode="&#x2006;" horiz-adv-x="315" />
<glyph unicode="&#x2007;" horiz-adv-x="315" />
<glyph unicode="&#x2008;" horiz-adv-x="236" />
<glyph unicode="&#x2009;" horiz-adv-x="378" />
<glyph unicode="&#x200a;" horiz-adv-x="105" />
<glyph unicode="&#x2010;" horiz-adv-x="860" d="M130 570v101h590v-101h-590z" />
<glyph unicode="&#x2011;" horiz-adv-x="860" d="M130 570v101h590v-101h-590z" />
<glyph unicode="&#x2012;" horiz-adv-x="860" d="M130 570v101h590v-101h-590z" />
<glyph unicode="&#x2013;" horiz-adv-x="1414" d="M175 686v102h1086v-102h-1086z" />
<glyph unicode="&#x2014;" horiz-adv-x="1667" d="M183 686v102h1336v-102h-1336z" />
<glyph unicode="&#x2018;" horiz-adv-x="473" d="M159 970v175l74 311h71l-25 -312v-174h-120z" />
<glyph unicode="&#x2019;" horiz-adv-x="469" d="M157 970l26 304v182h119v-179l-73 -307h-72z" />
<glyph unicode="&#x201a;" horiz-adv-x="489" d="M161 -211l25 266v204h120v-194l-74 -276h-71z" />
<glyph unicode="&#x201c;" horiz-adv-x="726" d="M137 970v175l74 311h71l-25 -312v-174h-120zM465 970v175l74 311h71l-25 -312v-174h-120z" />
<glyph unicode="&#x201d;" horiz-adv-x="708" d="M122 970l26 304v182h119v-179l-73 -307h-72zM458 970l26 304v182h119v-179l-73 -307h-72z" />
<glyph unicode="&#x201e;" horiz-adv-x="685" d="M147 -202l25 295v181h120v-175l-74 -301h-71zM386 -202l26 299v177h119v-175l-73 -301h-72z" />
<glyph unicode="&#x2022;" horiz-adv-x="662" d="M146 717v65q0 78 50 128q51 51 135 51q85 0 135 -51q51 -50 51 -128v-65q0 -79 -50.5 -128t-134.5 -49t-135 49t-51 128z" />
<glyph unicode="&#x2026;" horiz-adv-x="1313" d="M167 0v164h137v-164h-137zM610 0v164h137v-164h-137zM1030 0v164h137v-164h-137z" />
<glyph unicode="&#x202f;" horiz-adv-x="378" />
<glyph unicode="&#x2039;" horiz-adv-x="609" d="M108 546v19l295 379h105l-276 -389l276 -388h-105z" />
<glyph unicode="&#x203a;" horiz-adv-x="609" d="M213 339l26 212l-26 215h123l25 -34h4l93 -128l40 -53l-1 -1l1 -1l-23 -30l-110 -151h-8l-21 -28z" />
<glyph unicode="&#x205f;" horiz-adv-x="472" />
<glyph unicode="&#x20ac;" horiz-adv-x="1073" d="M80 533v88h169v195h-169v89h169v37q0 244 135 389q137 146 356 146q100 0 232 -31l-9 -106q-120 35 -223 35q-171 0 -272 -116q-100 -115 -100 -315v-39h547v-89h-547v-195h547v-88h-547v-19q0 -197 101 -316q102 -118 273 -118q119 0 221 34l9 -104q-112 -31 -230 -31 q-221 0 -357 145t-136 390v19h-169z" />
<glyph unicode="&#x2122;" horiz-adv-x="1264" d="M96 1387v69h384v-69h-152v-468h-74v468h-158zM558 919v537h86l179 -303h6l174 303h88v-537h-73v398l-6 1l-160 -267h-51l-165 267l-6 -1v-398h-72z" />
<glyph unicode="&#x25fc;" horiz-adv-x="1080" d="M0 0v1080h1080v-1080h-1080z" />
<glyph unicode="&#xfb02;" horiz-adv-x="1123" d="M61 984v98h179v158q0 162 82 251.5t229 89.5q60 0 136 -19l-16 -99q-52 13 -108 13q-98 0 -150.5 -62t-52.5 -174v-158h245v-98h-245v-984h-120v984h-179zM831 0v1560h119v-1560h-119z" />
<glyph unicode="&#xfb03;" horiz-adv-x="1758" d="M61 984v98h179v158q0 162 82 251.5t229 89.5q60 0 136 -19l-16 -99q-52 13 -108 13q-98 0 -150.5 -62t-52.5 -174v-158h245v-98h-245v-984h-120v984h-179zM706 984v98h180v138q0 171 95 266t264 95q132 0 276 -59l-20 -103q-130 53 -248 53q-122 0 -184.5 -64.5 t-62.5 -187.5v-138h253v-98h-253v-984h-120v984h-180zM1466 0v1082h120v-1082h-120z" />
<glyph unicode="&#xfb04;" horiz-adv-x="1781" d="M61 984v98h179v158q0 162 82 251.5t229 89.5q60 0 136 -19l-16 -99q-52 13 -108 13q-98 0 -150.5 -62t-52.5 -174v-158h245v-98h-245v-984h-120v984h-179zM719 984v98h179v158q0 162 82 251.5t229 89.5q60 0 136 -19l-16 -99q-52 13 -108 13q-98 0 -150.5 -62t-52.5 -174 v-158h245v-98h-245v-984h-120v984h-179zM1489 0v1560h119v-1560h-119z" />
</font>
</defs>
</svg>
